<?xml version="1.0" encoding="iso-8859-1"?>
<!-- Generator: Adobe Illustrator 16.0.3, SVG Export Plug-In . SVG Version: 6.00 Build 0)  -->
<!DOCTYPE svg PUBLIC "-//W3C//DTD SVG 1.1//EN" "http://www.w3.org/Graphics/SVG/1.1/DTD/svg11.dtd">
<svg version="1.1" id="Capa_1" xmlns="http://www.w3.org/2000/svg" xmlns:xlink="http://www.w3.org/1999/xlink" x="0px" y="0px"
	 width="177.334px" height="207.667px" viewBox="0 0 177.334 207.667" style="enable-background:new 0 0 177.334 207.667;"
	 xml:space="preserve">
<g>
	<g>
		<linearGradient id="SVGID_1_" gradientUnits="userSpaceOnUse" x1="108.1978" y1="58.0234" x2="76.6978" y2="189.0234">
			<stop  offset="0" style="stop-color:#E59A1E"/>
			<stop  offset="1" style="stop-color:#E07000"/>
		</linearGradient>
		<path style="fill:url(#SVGID_1_);stroke:#432F2A;stroke-width:3;stroke-miterlimit:10;" d="M59.333,18.631
			c5.01-7.407,9.167,13.704,42.5,13.037s60.167,3.833,67.833,8.833c0,0-1.167,48.083-7.417,68.333s-13.25,77.668-12.5,93.584
			c0,0-43,0.166-64,1.666s-75.25-6-81.25-9.25C4.5,194.834,11.333,89.593,59.333,18.631z"/>
		<path style="fill:#432F2A;stroke:#43302A;stroke-width:3;stroke-miterlimit:10;" d="M148.375,202.459
			c0,0,15.337-79.375,18.141-98.125c2.805-18.75,11.074-54.291,4.786-63.833"/>
		<path style="fill:none;stroke:#43302A;stroke-width:3;stroke-miterlimit:10;" d="M8.661,161.029c0,0,5.148-74.803,40.744-126.249"
			/>
	</g>
	<path style="fill:#6F8FA1;stroke:#43302A;stroke-width:3;stroke-miterlimit:10;" d="M28.786,79.084
		c8.396,8.75,25.439,12.5,42.859,13c17.419,0.5,73.311,8.375,90.855,16l-7.686,49.875c0,0-6.099,0.875-10.234,0
		s-55.516-13.125-73.562-12.5c-18.046,0.625-54.138-7.625-56.268-13L28.786,79.084z"/>
</g>
<g>
	<g>
		<ellipse style="fill:#F29839;" cx="100.188" cy="146.396" rx="12.188" ry="2.063"/>
		<ellipse style="fill:#F29839;" cx="98.625" cy="131.459" rx="4.5" ry="3.375"/>
		<ellipse style="fill:#F29839;" cx="91.688" cy="109.209" rx="6.188" ry="1.125"/>
		<ellipse style="fill:#F29839;" cx="39.344" cy="104.803" rx="2.656" ry="1.156"/>
	</g>
	<g>
		<path style="fill:#F29839;" d="M145.938,110.084c-1.933,0-3.5,1.497-3.5,3.344c0,0.083,0.02,0.16,0.025,0.241
			c-0.047,0.026-0.094,0.053-0.142,0.082c-0.644-0.566-1.529-0.917-2.508-0.917c-1.968,0-3.563,1.413-3.563,3.156
			c0,1.354,0.968,2.5,2.32,2.948c-0.269,0.807-0.426,1.582-0.455,2.278c-0.708,0.579-1.177,1.575-1.177,2.711
			c0,1.79,1.161,3.242,2.594,3.242s2.594-1.452,2.594-3.242c0-0.242-0.025-0.477-0.065-0.704c0.917-0.708,1.828-1.803,2.54-3.159
			c0.6-1.142,0.961-2.29,1.101-3.315c0.08,0.005,0.156,0.022,0.237,0.022c1.933,0,3.5-1.497,3.5-3.344
			S147.871,110.084,145.938,110.084z"/>
		<g style="opacity:0.5;">
			<circle style="fill:#FFFFFF;" cx="148.458" cy="91.96" r="6.125"/>
			<path style="fill:#FFFFFF;" d="M153,112.293c0-3.59-2.91-6.5-6.5-6.5c-2.057,0-3.887,0.958-5.078,2.449
				c-0.879-0.443-1.87-0.699-2.922-0.699c-3.589,0-6.5,2.91-6.5,6.5c0,1.897,0.818,3.6,2.115,4.788
				c-1.102,1.165-1.782,2.732-1.782,4.462c0,3.59,2.91,6.5,6.5,6.5c3.511,0,6.365-2.786,6.488-6.268
				c2.26-0.866,3.914-2.951,4.147-5.454C151.564,116.992,153,114.813,153,112.293z"/>
		</g>
	</g>
</g>
<g>
	<path style="fill:#44302A;stroke:#44302A;stroke-miterlimit:10;" d="M56.125,1.585c0,0-9.375,2.334-8.833,20.75
		s6.292,15.5,11.875,14s12.917-9.5,14.417-12.25"/>
	<path style="fill:#C0A29E;stroke:#44302A;stroke-miterlimit:10;" d="M56.813,2.146c-2.278,2.398-14.375,19-3.722,33.763
		c0,0,4.641,0.773,10.957-5.801c6.317-6.574,10.571-6.188,14.825-6.059"/>
</g>
</svg>
