<?xml version="1.0" encoding="iso-8859-1"?>
<!-- Generator: Adobe Illustrator 16.0.3, SVG Export Plug-In . SVG Version: 6.00 Build 0)  -->
<!DOCTYPE svg PUBLIC "-//W3C//DTD SVG 1.1//EN" "http://www.w3.org/Graphics/SVG/1.1/DTD/svg11.dtd">
<svg version="1.1" id="Capa_1" xmlns="http://www.w3.org/2000/svg" xmlns:xlink="http://www.w3.org/1999/xlink" x="0px" y="0px"
	 width="475.294px" height="467.06px" viewBox="0 0 475.294 467.06" style="enable-background:new 0 0 475.294 467.06;"
	 xml:space="preserve">
<g>
	<path style="fill:#C2A49E;" d="M330.589,425.804c0,0,62.665-33.333,15.999-182.666S243.921,26.471,243.921,26.471
		s-11.165-19.333-17.499-1.833s-18.167,45.167-20.334,45.5c0,0-45-4.333-76.5,15.167l-31.667-34c0,0-12.5-4.167-15.667,20
		s-10,33.667-11.667,45.667S-31.836,284.568,45.923,431.805c0,0,85.665,26.166,186.665,2.166c0,0,0.834,11.433,26.667,10.133
		s27.167,4.366,40.5,3.2s91.833,0.417,124.333-6.833c0,0,34-1.125,34.875-11.25s-11.375-19.5-54.125-19
		c-35.298,0.413-51.081,8.496-57.833-1.928"/>
	<g>
		<path style="fill:#764933;" d="M346.921,410.138c0,0-13.5,32.25-16.75,34.417h22.25c0,0,14.833-24.833,14.5-32.083
			C366.921,412.472,353.921,416.137,346.921,410.138z"/>
		<path style="fill:#764933;" d="M383.588,411.138c0,0-3.416,25.5-7.833,33.417h19.166c0,0,8.167-30.334,8-34.417L383.588,411.138z"
			/>
		<path style="fill:#764933;" d="M446.671,415.389c0,0-3.832,20.5-7.166,23.25c0,0,18.999-2.084,18.999-9.417
			S454.171,418.389,446.671,415.389z"/>
		<path style="fill:#764933;" d="M419.171,410.138c0,0-3.834,28.584-6.5,32.167l18.584-3.25c0,0,5.416-13.667,5.166-27
			L419.171,410.138z"/>
	</g>
	<g>
		<path style="fill:#705347;" d="M129.755,83.387c0,0-1.333,17.833,8.583,17.083s4.167-7.25,10.5-14.917s1.083-9.833,1.083-9.833
			L129.755,83.387z"/>
		<path style="fill:#705347;" d="M175.255,70.221c0.833,3.25-1.75,8-1.167,10.25s4.076,7.833-0.087,11.25
			s-13.663,5.167-14.496-7.333s0-11.667,0-11.667L175.255,70.221z"/>
		<path style="fill:#705347;" d="M188.005,69.304c0,0,1,18.416,8.583,17.583s13.5-3.583,5.917-17.167L188.005,69.304z"/>
	</g>
	<g>
		<path style="fill:#432F2A;" d="M296.274,448.963c-4.034,0-7.036-0.664-10.397-1.407c-5.4-1.194-12.119-2.679-26.546-1.954
			c-21.268,1.061-26.528-6.374-27.821-9.836c-99.628,23.238-185.167-2.265-186.024-2.526l-0.597-0.183l-0.291-0.552
			c-66.978-126.82-2.534-259.156,18.644-302.643c3.16-6.489,5.656-11.615,5.862-13.098c0.702-5.05,2.276-9.624,4.099-14.919
			c2.546-7.396,5.714-16.599,7.566-30.735c1.333-10.171,4.461-16.865,9.298-19.893c4.236-2.653,8.166-1.391,8.33-1.335l0.363,0.121
			l31.095,33.386c29.546-17.634,70.44-15.2,75.796-14.791c2.641-3.072,12.826-26.409,19.363-44.469
			c1.889-5.219,4.484-8.01,7.715-8.295c6.117-0.541,11.564,8.307,12.431,9.781c2.484,3.053,57.469,71.816,102.862,217.077
			c24.231,77.541,18.528,123.441,9.479,148.294c-2.56,7.025-5.499,12.811-8.464,17.531c4.035,4.735,11.57,3.889,24.57,2.426
			c8.203-0.923,18.411-2.07,31.216-2.221c27.544-0.309,45.128,3.39,52.221,11.031c2.577,2.776,3.727,6.006,3.416,9.598
			c-0.95,10.998-31.956,12.467-36.18,12.615c-23.729,5.255-72.023,5.883-100.902,6.258c-11.098,0.145-19.864,0.258-23.489,0.575
			C298.583,448.912,297.389,448.963,296.274,448.963z M266.548,442.409c9.948,0,15.417,1.209,19.976,2.217
			c4.218,0.933,7.551,1.671,13.101,1.184c3.736-0.327,12.552-0.441,23.712-0.587c28.817-0.374,77.049-1.001,100.426-6.216
			l0.276-0.035c12.631-0.42,32.877-3.474,33.431-9.88c0.234-2.713-0.649-5.169-2.627-7.3c-4.464-4.81-16.751-10.458-49.986-10.071
			c-12.653,0.148-22.779,1.287-30.915,2.202c-13.105,1.475-21.538,2.424-26.61-2.81c-7.945,11.589-15.579,15.771-16.037,16.015
			l-1.411-2.647c0.153-0.082,15.426-8.533,24.908-34.831c8.801-24.407,14.273-69.56-9.634-146.064
			C299.134,96.312,243.327,28.102,242.768,27.43l-0.146-0.208c-1.322-2.284-5.928-8.729-9.633-8.402
			c-2.448,0.218-4.155,3.562-5.157,6.328c-3.178,8.78-7.687,20-11.767,29.281c-7.399,16.83-8.758,17.039-9.75,17.191l-0.185,0.029
			l-0.187-0.018c-0.444-0.042-44.874-4.051-75.567,14.949l-1.047,0.648l-32.207-34.58c-0.821-0.165-3.078-0.412-5.53,1.151
			c-2.754,1.757-6.352,6.254-7.852,17.7c-1.892,14.437-5.115,23.799-7.704,31.322c-1.772,5.148-3.303,9.594-3.964,14.356
			c-0.261,1.875-2.069,5.647-6.136,13.998c-20.981,43.085-84.773,174.06-18.984,299.368c7.78,2.226,90.225,24.558,185.288,1.969
			l1.715-0.408l0.128,1.758c0.008,0.078,1.318,9.939,25.096,8.744C261.885,442.47,264.329,442.409,266.548,442.409z"/>
		<g>
			<path style="fill:none;" d="M296.274,448.963c-4.034,0-7.036-0.664-10.397-1.407c-5.4-1.194-12.119-2.679-26.546-1.954
				c-21.268,1.061-26.528-6.374-27.821-9.836c-99.628,23.238-185.167-2.265-186.024-2.526l-0.597-0.183l-0.291-0.552
				c-66.978-126.82-2.534-259.156,18.644-302.643c3.16-6.489,5.656-11.615,5.862-13.098c0.702-5.05,2.276-9.624,4.099-14.919
				c2.546-7.396,5.714-16.599,7.566-30.735c1.333-10.171,4.461-16.865,9.298-19.893c4.236-2.653,8.166-1.391,8.33-1.335l0.363,0.121
				l31.095,33.386c29.546-17.634,70.44-15.2,75.796-14.791c2.641-3.072,12.826-26.409,19.363-44.469
				c1.889-5.219,4.484-8.01,7.715-8.295c6.117-0.541,11.564,8.307,12.431,9.781c2.484,3.053,57.469,71.816,102.862,217.077
				c24.231,77.541,18.528,123.441,9.479,148.294c-2.56,7.025-5.499,12.811-8.464,17.531c4.035,4.735,11.57,3.889,24.57,2.426
				c8.203-0.923,18.411-2.07,31.216-2.221c27.544-0.309,45.128,3.39,52.221,11.031c2.577,2.776,3.727,6.006,3.416,9.598
				c-0.95,10.998-31.956,12.467-36.18,12.615c-23.729,5.255-72.023,5.883-100.902,6.258c-11.098,0.145-19.864,0.258-23.489,0.575
				C298.583,448.912,297.389,448.963,296.274,448.963z M266.548,442.409c9.948,0,15.417,1.209,19.976,2.217
				c4.218,0.933,7.551,1.671,13.101,1.184c3.736-0.327,12.552-0.441,23.712-0.587c28.817-0.374,77.049-1.001,100.426-6.216
				l0.276-0.035c12.631-0.42,32.877-3.474,33.431-9.88c0.234-2.713-0.649-5.169-2.627-7.3c-4.464-4.81-16.751-10.458-49.986-10.071
				c-12.653,0.148-22.779,1.287-30.915,2.202c-13.105,1.475-21.538,2.424-26.61-2.81c-7.945,11.589-15.579,15.771-16.037,16.015
				l-1.411-2.647c0.153-0.082,15.426-8.533,24.908-34.831c8.801-24.407,14.273-69.56-9.634-146.064
				C299.134,96.312,243.327,28.102,242.768,27.43l-0.146-0.208c-1.322-2.284-5.928-8.729-9.633-8.402
				c-2.448,0.218-4.155,3.562-5.157,6.328c-3.178,8.78-7.687,20-11.767,29.281c-7.399,16.83-8.758,17.039-9.75,17.191l-0.185,0.029
				l-0.187-0.018c-0.444-0.042-44.874-4.051-75.567,14.949l-1.047,0.648l-32.207-34.58c-0.821-0.165-3.078-0.412-5.53,1.151
				c-2.754,1.757-6.352,6.254-7.852,17.7c-1.892,14.437-5.115,23.799-7.704,31.322c-1.772,5.148-3.303,9.594-3.964,14.356
				c-0.261,1.875-2.069,5.647-6.136,13.998c-20.981,43.085-84.773,174.06-18.984,299.368c7.78,2.226,90.225,24.558,185.288,1.969
				l1.715-0.408l0.128,1.758c0.008,0.078,1.318,9.939,25.096,8.744C261.885,442.47,264.329,442.409,266.548,442.409z"/>
			<g>
				<g>
					<g>
						<path style="fill:#432F2A;" d="M264.609,437.555c2.449,0.049,1.571-0.774,1.939-0.93
							C262.425,436.844,264.723,437.778,264.609,437.555z"/>
						<path style="fill:#432F2A;" d="M231.309,429.681l1.028-0.595c0,0-1.984,0.678-3.97,1.355
							c-0.472,0.162-0.944,0.323-1.387,0.475c-0.32,0.121-0.619,0.233-0.875,0.33c-0.506,0.192-0.843,0.32-0.843,0.32
							s0.3-0.098,0.749-0.245c0.225-0.073,0.487-0.158,0.768-0.25c0.366-0.112,0.757-0.232,1.146-0.353
							C229.618,430.199,231.309,429.681,231.309,429.681z"/>
						<path style="fill:#432F2A;" d="M194.492,436.368c3.591,1.005,12.947-2.046,19.349-2.746l1.104,0.124l2.637-1.673
							C209.964,433.783,200.02,436.083,194.492,436.368z"/>
						<path style="fill:#432F2A;" d="M175.079,435.275c1.218,0.45-4.087,0.825,4.459-0.2c-0.436-0.022-0.564-0.046-0.817-0.069
							C177.951,435.084,176.889,435.173,175.079,435.275z"/>
						<path style="fill:#432F2A;" d="M178.721,435.006C182.479,434.634,176.218,434.759,178.721,435.006L178.721,435.006z"/>
						<path style="fill:#432F2A;" d="M161.323,436.457l4.949-0.738c-1.056-0.265-5.479-0.132-3.847-0.448
							C157.345,435.755,158.397,436.031,161.323,436.457z"/>
						<path style="fill:#432F2A;" d="M156.634,437.672l2.58-0.299C158.756,437.253,158.071,437.231,156.634,437.672z"/>
						<path style="fill:#432F2A;" d="M164.673,436.689l-5.459,0.684c0.73,0.204,0.828,0.665,2.51-0.261
							C161.293,437.554,162.361,437.106,164.673,436.689z"/>
						<path style="fill:#432F2A;" d="M167.783,436.736c2.811,0.145,6.442,0.085,1.467,0.912c4.77-0.401,6.774-0.89,6.403-1.104
							C175.281,436.317,172.54,436.351,167.783,436.736z"/>
						<path style="fill:#432F2A;" d="M192.843,438.066l3.8-0.072l3.17-0.924C198.232,437.553,192.555,437.659,192.843,438.066z"/>
						<path style="fill:#432F2A;" d="M130.311,435.833c-0.322,0.295,1.646,0.864,2.008,1.265l3.692-0.257
							C134.122,436.6,130.544,436.295,130.311,435.833z"/>
						<path style="fill:#432F2A;" d="M132.318,437.098l-5.534,0.319C131.71,437.68,132.621,437.436,132.318,437.098z"/>
						<path style="fill:#432F2A;" d="M155.788,439.281c0,0,2.264-0.351,4.528-0.701c2.257-0.378,4.514-0.755,4.514-0.755
							s-2.694,0.397-5.389,0.795c-2.704,0.361-5.407,0.723-5.407,0.723L155.788,439.281z"/>
						<polygon style="fill:#432F2A;" points="109.35,434.53 112.512,434.085 106.892,434.672 						"/>
						<path style="fill:#432F2A;" d="M95.481,433.222c2.354-0.302-3.015-1.359-0.556-1.422c-3.756-0.355-7.013-0.302-9.954-0.282
							C88.063,431.72,91.308,432.235,95.481,433.222z"/>
						<path style="fill:#432F2A;" d="M80.048,431.42c1.546,0.107,3.166,0.106,4.924,0.098
							C83.33,431.411,81.706,431.355,80.048,431.42z"/>
						<path style="fill:#432F2A;" d="M117.401,436.754c-0.414-0.212-1.203-0.738-4.267-1.173l2.099,1.013
							C115.893,436.643,116.641,436.698,117.401,436.754z"/>
						<path style="fill:#432F2A;" d="M115.307,436.626l-0.074-0.032c-2.348-0.205-3.975-0.348-4.672-0.408
							C111.159,436.241,112.588,436.374,115.307,436.626z"/>
						<path style="fill:#432F2A;" d="M117.947,436.794c-0.201-0.015-0.349-0.025-0.546-0.04
							C117.604,436.852,117.728,436.889,117.947,436.794z"/>
						<path style="fill:#432F2A;" d="M141.263,438.659c-3.25,0.461-10.065,0.813-3.497,1.677
							C140.113,439.781,136.36,439.324,141.263,438.659z"/>
						<path style="fill:#432F2A;" d="M120.576,438.025l5.862,0.495c-0.105-0.23-1.149-0.606,0.469-0.772L120.576,438.025z"/>
						<polygon style="fill:#432F2A;" points="117.686,438.119 120.576,438.025 118.405,437.822 						"/>
						<path style="fill:#432F2A;" d="M89.842,433.676c-2.556,0.03-5.306-0.331-8.405-0.757c3.286,0.686,6.709,1.268,9.978,1.691
							C91.912,434.401,93.404,434.117,89.842,433.676z"/>
						<path style="fill:#432F2A;" d="M102.182,435.383c-0.176-0.003-0.401-0.007-0.565-0.01
							C101.954,435.481,102.228,435.533,102.182,435.383z"/>
						<path style="fill:#432F2A;" d="M51.447,426.839c0.013,0.052,0.2,0.161,0.342,0.249c0.049-0.039,0.086-0.079,0.146-0.115
							L51.447,426.839z"/>
						<path style="fill:#432F2A;" d="M91.954,434.841c2.482,0.485,4.008,0.454,5.464,0.357c-1.883-0.131-3.875-0.317-6.003-0.588
							C91.191,434.703,91.143,434.778,91.954,434.841z"/>
						<path style="fill:#432F2A;" d="M71.542,430.354c1.254,0.414,2.688,0.826,4.204,1.229
							C74.527,431.102,72.036,430.222,71.542,430.354z"/>
						<path style="fill:#432F2A;" d="M100.798,435.049c0.126,0.001,0.241,0.002,0.378,0.003
							C100.375,434.78,100.468,434.881,100.798,435.049z"/>
						<path style="fill:#432F2A;" d="M100.798,435.049c-1.303-0.016-2.34,0.081-3.38,0.149c1.533,0.109,2.959,0.172,4.199,0.175
							C101.313,435.281,101.012,435.156,100.798,435.049z"/>
						<path style="fill:#432F2A;" d="M43.513,425.409c0.54,0.011,2.127,2.195,3.638,4.861c0.982,0.277,2.033,0.545,3.096,0.887
							c1.097,0.344,2.222,0.735,3.292,1.168c5.693,0.728,2.593-2.632-1.75-5.237c-0.053,0.061-0.099,0.123-0.193,0.173
							c-0.047,0.024-0.106,0.046-0.185,0.063c-0.065,0.02-0.099,0.05-0.168,0.07c-0.258,0.081-0.736,0.134-1.768,0.012
							c-0.156-0.152-0.407-0.472-0.708-0.894c0.032,0.258,0.163,0.713,0.364,1.316c0.437,0.246,1.017,0.498,1.606,0.77
							c0.219,0.113,0.802,0.323,1.21,0.485c0.434,0.176,0.835,0.339,1.183,0.479c1.383,0.589,1.856,0.975-0.111,0.786
							c-0.77-0.147-1.446-0.288-2.041-0.421c-0.577-0.128-0.915-0.207-1.297-0.307c-0.716-0.193-1.229-0.351-1.575-0.528
							c-0.239-0.626-0.328-1.062-0.417-1.533c-0.045-0.225-0.094-0.464-0.152-0.754c-0.036-0.146-0.059-0.266-0.122-0.464
							c-0.076-0.216-0.16-0.453-0.252-0.717c0.279,1.641-1.158-0.374-2.692-2.574c-1.538-2.194-3.155-4.586-3.459-3.514
							c0,0,0.843,1.487,1.687,2.975c0.862,1.475,1.725,2.949,1.725,2.949C44.276,425.679,42.858,423.618,43.513,425.409z"/>
						<path style="fill:#432F2A;" d="M62.461,429.664l2.347,0.392c-2.626-0.686-4.463-1.398-7.781-2.807
							c-3.912-0.528-4.763-0.47-5.093-0.276c0,0,2.805,0.751,5.646,1.432c2.839,0.687,5.7,1.313,5.7,1.313L62.461,429.664z"/>
						<path style="fill:#432F2A;" d="M75.315,432.039c-1.979,0.544-7.696-0.158-4.408,1.404c6.933,1.188,4.977,0.154,9.172,0.472
							c-11.198-1.648,3.276,0.077-4.695-1.765c2.211,0.235,4.186,0.513,6.053,0.769c-1.992-0.418-3.903-0.865-5.692-1.336
							c0.097,0.038,0.166,0.065,0.246,0.097l0.053,0.006c-0.001,0.006-0.013,0.006-0.014,0.012c0.461,0.188,0.608,0.279,0.079,0.126
							c-0.039,0.004-0.175-0.016-0.235-0.023c-0.096,0.105-0.319,0.173-0.558,0.234c-3.188-0.741-0.467-0.307,0.558-0.234
							c0.044-0.034,0.137-0.06,0.156-0.103c-0.01-0.007-0.025-0.012-0.039-0.018c0,0-2.799-0.384-5.598-0.768
							c-2.792-0.428-5.584-0.856-5.584-0.856C67.126,430.648,70.065,431.222,75.315,432.039z"/>
						<path style="fill:#432F2A;" d="M131.636,442.045c-0.352-0.088-0.334-0.148-0.359-0.212
							C130.535,441.915,130.252,441.979,131.636,442.045z"/>
						<path style="fill:#432F2A;" d="M126.957,441.354c0.835-0.088,1.539-0.397,4.231-0.22c2.331,0.333-0.024,0.413,0.089,0.699
							c1.636-0.176,5.705-0.461,0.624-1.018l-0.81,0.092c-4.586-0.433-10.407-1.837-9.598-1.913
							C122.784,439.839,123.933,440.462,126.957,441.354z"/>
						<path style="fill:#432F2A;" d="M100.571,437.703c0,0-2.366-0.16-4.731-0.32c-2.365-0.188-4.73-0.376-4.73-0.376l4.705,1.337
							l-0.191-0.474C100.966,438.666,99.869,437.967,100.571,437.703z"/>
						<path style="fill:#432F2A;" d="M51.217,426.335c0,0,0.195-0.184,0.35-0.378c0.162-0.192,0.273-0.4,0.287-0.396
							c-0.322,0.196-0.742,0.375-1.097,0.265c-0.255,0.043-0.542,0.029-0.854-0.041c0.156,0.172,0.312,0.345,0.428,0.567
							C50.643,426.363,50.945,426.349,51.217,426.335z"/>
						<polygon style="fill:#432F2A;" points="46.994,419.282 47.901,419.347 46.11,416.654 						"/>
						<path style="fill:#432F2A;" d="M301.73,118.449l1.41,2.451C302.508,119.723,302.073,118.981,301.73,118.449z"/>
						<path style="fill:#432F2A;" d="M292.765,100.119l-0.575-0.268C292.813,100.595,293.127,100.871,292.765,100.119z"/>
						<path style="fill:#432F2A;" d="M71.431,131.271c1.227-1.68,2.598-3.437,3.536-4.807c0.938-1.365,1.443-2.353,0.928-2.291
							l-1.334,0.84C73.461,127.755,72.412,129.67,71.431,131.271z"/>
						<path style="fill:#432F2A;" d="M201.696,71.178c-0.387-0.1-0.789-0.205-1.187-0.308c-1.002,0.265-1.94,0.52-2.774,0.765
							C198.921,71.475,200.273,71.319,201.696,71.178z"/>
						<path style="fill:#432F2A;" d="M203.836,67.69c0.066,0.017,0.132,0.035,0.194,0.039c0.224,0.056,0.454,0.132,0.693,0.179
							c0.241,0.036,0.472-0.032,0.663-0.144c0.385-0.225,0.708-0.545,1.038-0.889c-0.248,0.212-0.521,0.469-0.875,0.723
							c-0.179,0.121-0.383,0.257-0.655,0.282c-0.271,0.021-0.563-0.096-0.862-0.145C203.986,67.724,203.912,67.707,203.836,67.69z"
							/>
						<path style="fill:#432F2A;" d="M343.95,221.435l1.876,2.838C344.197,219.393,344.488,221.684,343.95,221.435z"/>
						<path style="fill:#432F2A;" d="M22.952,298.413c0.481-3.448,0.793-6.185,1.003-8.597
							C23.165,293.938,22.274,297.28,22.952,298.413z"/>
						<path style="fill:#432F2A;" d="M289.97,115.261c0.89,1.462,1.365,2.041,1.517,1.912
							C290.587,115.659,290,114.841,289.97,115.261z"/>
						<path style="fill:#432F2A;" d="M24.814,279.857c-0.15,0.599-0.251,1.19-0.385,1.802c-0.098,2.535-0.2,5.079-0.474,8.157
							C24.54,286.77,25.065,283.291,24.814,279.857z"/>
						<path style="fill:#432F2A;" d="M417.858,445.154c-0.305,0.012-0.664,0.048-0.942,0.044
							C416.844,445.327,417.256,445.274,417.858,445.154z"/>
						<path style="fill:#432F2A;" d="M300.002,441.964c1.235-0.146,3.155-0.227,4.951-0.292
							C304.066,441.646,302.634,441.673,300.002,441.964z"/>
						<path style="fill:#432F2A;" d="M30.933,373.299C31.616,375.777,31.125,373.67,30.933,373.299L30.933,373.299z"/>
						<path style="fill:#432F2A;" d="M30.976,386.341c-0.256-0.501-0.494-0.869-0.705-0.874
							C30.532,385.612,30.763,385.922,30.976,386.341z"/>
						<path style="fill:#432F2A;" d="M23.145,253.399c0.015-0.076,0.027-0.137,0.044-0.224
							C22.88,253.915,22.937,253.788,23.145,253.399z"/>
						<path style="fill:#432F2A;" d="M31.516,377.145c-0.146-0.961-0.34-2.061-0.574-3.249
							C31.006,374.427,31.167,375.418,31.516,377.145z"/>
						<path style="fill:#432F2A;" d="M31.778,376.537c0.198,0.864,0.353,1.544,0.501,2.191
							C32.507,379.002,32.51,378.705,31.778,376.537z"/>
						<path style="fill:#432F2A;" d="M30.048,369.828c0.347,1.429,0.632,2.771,0.893,4.067c-0.067-0.505-0.07-0.722-0.009-0.597
							C30.739,372.57,30.464,371.543,30.048,369.828z"/>
						<path style="fill:#432F2A;" d="M350.243,405.74c-0.114,0.141-0.234,0.31-0.365,0.459
							C348.768,408.731,349.354,407.678,350.243,405.74z"/>
						<path style="fill:#432F2A;" d="M81.542,62.366c-0.031,0.134-0.032,0.21-0.057,0.332c0.049-0.128,0.11-0.289,0.154-0.405
							L81.542,62.366z"/>
						<path style="fill:#432F2A;" d="M86.836,51.641c-0.492,0.659-0.905,1.303-1.269,1.92c-0.366,0.622-0.688,1.234-0.882,1.664
							c-0.442,0.937-0.803,1.767-1.144,2.548c-0.675,1.562-1.288,2.935-1.902,4.521c0,0,0.854-0.65,1.732-1.234
							c0.877-0.591,1.778-1.102,1.778-1.102s-0.135-1.817,0.143-3.801c0.083-0.517,0.123-0.947,0.305-1.526
							c0.162-0.549,0.351-1.068,0.534-1.512C86.5,52.227,86.836,51.641,86.836,51.641z"/>
						<path style="fill:#432F2A;" d="M321.636,163.03l-1.816-6.461c4.273,6.944,6.014,12.542,4.688,6.31
							c-1.437,0.073-3.938-5.907-6.535-11.847c-2.588-5.943-5.27-11.847-6.701-11.719l-1.265-4.248c0.492,1.16,0.718,1.28,1.2,2.428
							c-2.317-8.336-4.363-5-8.646-15.127c-1.443-3.556-2.25-6.14-0.831-3.918l-4.32-7.406c-1.05-2.254-0.356-1.919,0.687,0.329
							c0,0-1.493-2.899-2.985-5.798c-1.519-2.886-3.036-5.772-3.036-5.772l0.115,0.05c-1.222-1.466-3.743-4.905-4.948-6.592
							c-1.197-3.11,1.027,1.336,0.932,0.429l-3.959-6.064c-0.777-2.921,2.677,2.016,4.891,6.491c-0.361-3.618-1.22-4.87-2.664-6.906
							c-1.452-2.037-3.464-4.864-6.339-11.61l3.619,5.808c-0.774-4.607-3.853-9.011-6.937-16.19
							c0.543,1.839,5.594,14.657,1.129,8.154c-0.915-2.023-2.281-4.606-4.901-7.978c0.812-0.522-1.486-3.975-4.243-8.364
							l1.276-0.366c-3.26-4.589-3.591-3.859-5.837-6.34c-3.257-5.331-3.173-6.944-3.289-8.643c-5.441-8.464,2.557,6.632-4.288-3.086
							c-2.155-3.583-4.223-6.487-6.608-9.431c-1.212-1.487-2.436-2.917-3.966-4.574l-0.028-0.032
							c-0.094-0.133,0.79,1.133,0.414,0.594l-0.005-0.007l-0.008-0.013l-0.035-0.052l-0.068-0.103l-0.137-0.199l-0.271-0.383
							c-0.183-0.243-0.366-0.488-0.552-0.735c-0.375-0.482-0.764-0.957-1.176-1.434c-0.253-0.292-0.51-0.586-0.77-0.885
							c-0.289-0.325-0.587-0.646-0.894-0.961c-0.611-0.631-1.259-1.241-1.942-1.81c-1.498-1.52-2.295-2.061-2.511-2.328
							c-0.227-0.251,0.093-0.182,0.561,0.012c0.93,0.364,2.433,1.405,1.251,0.213c0,0-1.688-1.002-3.388-1.397
							c-0.85-0.213-1.702-0.301-2.349-0.291c-0.646,0.006-1.077,0.087-1.077,0.087c-0.858,0.012-1.161,0.033-1.222-0.068
							c-0.061-0.089,0.127-0.254,0.259-0.35c-1.506,0.368-2.12,0.968-2.47,1.319c-0.341,0.384-0.404,0.634-0.547,0.941
							c-0.136,0.313-0.357,0.675-0.858,1.411c-0.488,0.744-1.271,1.871-2.184,3.979c0.008,0.392-0.122,0.917-0.337,1.579
							c-0.108,0.331-0.231,0.7-0.387,1.098c-0.152,0.396-0.3,0.757-0.482,1.18c-0.617,1.381-1.529,3.101-2.522,5.004
							c-1.985,3.81-4.302,8.346-5.156,12.499c-1.12,1.756-0.346-1.216-1.043-0.824c-1.697,5.469-2.509,7.784-3.165,9.884
							c-0.671,2.095-1.169,3.989-2.522,8.502c0,0-1.04,1.708-2.124,3.338c-0.272,0.401-0.545,0.802-0.801,1.178
							c-0.126,0.176-0.248,0.346-0.363,0.508c-0.084,0.101-0.163,0.196-0.236,0.285c-0.292,0.345-0.488,0.55-0.488,0.55
							c0.542-0.482,0.891-0.699,1.182-0.778c0.276-0.059,0.323,0.305,0.304,0.776c-0.041,0.499-0.222,1.264-0.627,2.191
							c-0.21,0.452-0.463,0.975-0.888,1.373c-0.444,0.423-1.038,0.344-1.626,0.431c-0.998,0.101-2.048,0.206-3.074,0.31
							c1.3,0.345,2.562,0.701,3.373,0.959c0.977,0.161,1.577,0.311,2.047,0.138c-0.615,0.337-1.283,0.213-1.96,0.232l-2.446,0.012
							l-2.171,0.063c-1.443,0.054-2.884,0.128-4.324,0.221c-1.262-0.212-0.212-0.658,1.521-1.168
							c-0.721,0.095-1.401,0.195-1.931,0.29c-3.761-0.457-1.835-1.219,0.898-1.92c1.294,0.263,2.571,0.558,3.806,0.866
							c0.568-0.153,1.128-0.305,1.651-0.447c0.557-0.148,0.961-0.302,1.273-0.459c0.643-0.313,0.945-0.639,0.894-0.976
							c0.078-0.105,0.035-0.217-0.039-0.328c-0.008,0.002-0.017,0.005-0.037,0.006c-0.197,0.058-0.503,0.105-0.886,0.141
							c-0.213,0.018-0.351,0.036-0.673,0.044c-0.339,0.005-0.693,0.011-1.056,0.016c0.702-0.183,1.157-0.349,0.839-0.492
							c-0.36-0.15-1.501,0.079-3.262,0.363l-2.425-1.465l-0.599,0.562c0,0-3.521-0.249-7.056-0.342
							c-3.534-0.109-7.081-0.063-7.081-0.063c-4.998,1.098-9.585,2.512-14.795,4.176c-5.204,1.694-11.051,3.576-18.418,6.311
							c3.398-2.195,0.286-1.89,0.094-3.132c2.294-0.051,5.213-1.064,8.65-2.171c3.429-1.109,7.382-2.311,11.515-2.812
							c-4.304,0.558-3.471-0.152-2.409-0.556c0,0-3.634,0.908-7.204,2.026c-3.578,1.095-7.071,2.42-7.072,2.42
							c0.047-1.063-3.27,0.112-7.121,1.05c1.737,0.462-0.814,1.641-4.361,3.286c-1.775,0.824-3.802,1.78-5.683,2.789
							c-0.467,0.257-0.928,0.511-1.378,0.759c-0.222,0.128-0.442,0.255-0.658,0.38c-0.139,0.087-0.276,0.173-0.41,0.258
							c-0.53,0.34-1.019,0.688-1.449,1.03c-0.146-0.299-0.002-0.781,0.538-1.361c0.136-0.144,0.296-0.295,0.487-0.45
							c0.095-0.074,0.198-0.153,0.309-0.238c0.034-0.027,0.153-0.1,0.276-0.175c0.12-0.071,0.244-0.145,0.372-0.221
							c1.028-0.598,2.362-1.292,4.08-2.04c-1.249,0.322-2.319,0.729-3.254,1.187c-0.469,0.228-0.902,0.473-1.31,0.724l-0.28,0.18
							l-0.132,0.108l-0.256,0.235c-0.667,0.647-1.35,1.574-2.302,2.564c-0.04,0.058-0.071,0.051-0.101,0.028l-0.093-0.043
							l-0.191-0.096c-0.13-0.069-0.263-0.147-0.401-0.237c-0.275-0.18-0.565-0.405-0.862-0.68c-0.297-0.275-0.601-0.6-0.895-0.97
							c-0.147-0.185-0.292-0.381-0.43-0.587c-0.195-0.281-0.396-0.571-0.605-0.871c0.281,0.302,0.53,0.57,0.751,0.809
							c0.158,0.173,0.298,0.324,0.429,0.451c0.261,0.253,0.486,0.407,0.727,0.414c-0.761-0.378-3.517-3.292-5.226-5.298
							c-1.773-2.075-2.887-3.66-1.867-2.995l1.205,1.273c-3.889-4.349-9.937-10.849-15.317-16.275
							c-1.345-1.357-2.648-2.646-3.866-3.818c-0.152-0.146-0.303-0.291-0.453-0.434l-0.223-0.212l-0.303-0.26
							c-0.401-0.342-0.793-0.675-1.173-0.999c-0.749-0.626-1.454-1.217-2.107-1.764c-0.32-0.262-0.628-0.513-0.922-0.752
							c-0.076-0.052-0.137-0.133-0.224-0.158l-0.282-0.025c-0.186-0.014-0.367-0.022-0.542-0.023
							c-0.705-0.006-1.328,0.081-1.849,0.208c-1.044,0.259-1.673,0.657-1.884,0.938c-0.082-0.086,0.258-0.742,0.852-1.386
							c0.582-0.649,1.438-1.249,1.968-1.406c0,0-0.482,0.067-1.285,0.303c-0.798,0.237-1.916,0.674-3.063,1.454
							c-1.148,0.771-2.3,1.903-3.187,3.259c-0.445,0.675-0.83,1.397-1.146,2.13c-0.322,0.741-0.511,1.384-0.704,2.085
							c-0.724,2.75-0.807,5.432-0.778,7.412c0.04,1.982,0.182,3.279,0.182,3.279c-0.548-1.017-2.003-0.008-3.197,0.131
							c-0.597,0.062-1.136-0.112-1.453-0.954c-0.304-0.842-0.431-2.355,0.118-4.988c-0.537,1.447-1.053,3.08-1.449,5.132
							c-0.196,1.015-0.363,2.179-0.474,3.389c-0.105,1.154-0.208,2.43-0.303,3.858c0.499-1.774,2.755-4.286,2.535-1.734
							c-1.318,3.355-1.768,4.491-2.206,5.848c-0.457,1.344-0.883,2.92-2.555,6.893c0.934-2.619,2.525,0.914,1.24,5.2
							c-0.144-0.758-2.271-0.269-2.074-1.87c0,0-0.171,2.764-0.468,5.554c-0.289,2.787-0.668,5.604-0.669,5.604
							c0.508-2.754-1.64-1.083-3.054,1.068c0.401-0.47-0.409,1.779-1.384,4.642c-0.99,2.845-1.985,6.441-2.148,8.081
							c0,0,0.367-1.251,0.801-2.448c0.427-1.203,0.898-2.357,0.898-2.357c-0.877,2.776-1.242,5.161-1.288,7.055
							c0.015,0.246,0.018,0.455,0,0.717c-0.024,0.278-0.063,0.583-0.109,0.889c-0.103,0.649-0.199,1.258-0.292,1.847
							c-0.201,1.224-0.385,2.411-0.646,3.68c-0.524,2.542-1.37,5.419-3.544,9.784c0.244-1.563-0.935-4.624-3.974,0.993
							c-0.238,3.147-0.656,14.046-4.271,24.463l-1.451,1.671c0,0-0.666,2.016-1.331,4.031c-0.648,2.019-1.297,4.039-1.297,4.039
							c0.209-2.76,0.929-7.905,1.936-13.361c0.999-5.456,2.286-11.219,3.396-15.202c-2.495,4.07-1.282,0.854-4.223,7.337
							c-1.615,2.029,0.771-3.922,1.642-5.831c0,0-1.835,3.724-3.671,7.449c-1.815,3.738-3.573,7.51-3.573,7.51
							c0.765-0.068-0.206,2.976-1.165,6.031c-0.965,3.054-1.917,6.121-1.278,6.04c0,0,1.385-4.296,2.853-8.568
							c1.46-4.275,2.999-8.526,2.999-8.526c1.521-0.097-0.836,11.006-5.385,21.754c-1.605,2.567-1.392-2.96-1.891-2.906
							c-0.174,1.581-3.284,10.692-3.944,11.596l1.113-4.915c-2.835,5.943-2.133,10.597-5.916,17.596
							c-0.972,2.529-4.221,7.154-3.601,7.854c2.833-3.76,7.609-3.034,7.788,0.083c-0.192,0.432-1.631,3.663-3.179,7.139
							c-1.546,3.483-3.179,7.234-3.959,8.61c-2.38,3.953-0.918-7.207-2.952-3.855c0.305,0.26,0.058,2.756-0.077,3.784
							c-1.061,2.659-0.797-1.45-2.263,4.574c1.02,1.341-3.241,12.167,0.368,3.123c-1.112,5.952-1.868,6.156-3.387,13.101
							c1.345-2.002,1.519,6.851,0.831,12.813c-0.276-0.412-0.968,0.833-1.287,1.441c-1.161,6.052-2.058,10.707-2.856,15.278
							c-0.79,4.572-1.481,9.063-2.005,14.801c-0.438,1.023-1.258,6.551-1.662,4.14c0.12,1.679,0.461,3.231,0.299,6.788
							c-0.763,3.413-0.714,1.43-0.67-0.768c0.047-2.194,0.107-4.601-0.771-2.014c0.735,0.502,0.567,9.289,1.03,14.369
							c0.624-0.772,0.729-3.69,0.704-7.058c-0.03-3.366-0.177-7.188-0.242-9.741c1.708,0.108,2.715,8.999,3.481,20.891
							c0.492,9.452-1.047,4.121-0.797,5.76c0.058,8.919,1.127,12.667,1.987,16.007c0.905,3.346,1.62,6.287,1.942,13.647
							c-0.28,5.933-2.087,0.551-2.682,1.937c-1.43-7.651-0.699-11.907-1.137-17.126c0,0-0.002,1.621-0.003,3.242
							c0.018,1.622,0.035,3.244,0.035,3.244c-0.604-2.418-1.278-7.577-1.113-10.418c-0.344,2.494,0.075,10.072,1.147,18.698
							c1.032,8.634,2.797,18.275,3.938,25.13c0.892,2.328,2.293,6.348,2.225,4.297l-1.165-4.217c-0.021-2.055,0.72-0.113,1.387,1.64
							c0.668,1.754,1.251,3.325,0.791,0.606c1.972,5.531,4.583,11.529,6.675,19.427l-0.674,1.849
							c0.269-0.281-0.997-5.31-2.005-7.408c0.755,1.554,1.295,4.672,2.06,7.782c0.755,3.109,1.733,6.207,3.147,7.675
							c0,0-0.3-1.42-0.601-2.84c-0.283-1.421-0.566-2.842-0.566-2.842c2.513,5.31,6.316,11.489,8.9,18.2
							c-0.207-3.479-0.823-1.462-1.497-6.709c0.041,2.376-1.74-1.856-3.248-5.841c-1.515-3.978-2.799-7.693-2.481-4.024
							c-0.212-5.485-2.339-8.815-2.915-15.771c-0.317,0.31-0.096,2.547-1.524-3.303c-0.185-0.231-0.5-0.811-0.689-1.182
							c-0.034-0.183-0.046-0.246-0.075-0.402c0.014,0.121,0.024,0.213,0.039,0.334c-0.125-0.236-0.143-0.255,0.016,0.125
							c0.201,1.431,0.31,2.609,0.22,3.126c-0.855-1.315-1.904-4.306-2.832-7.367c-0.935-3.06-1.741-6.188-2.314-7.735
							c-0.553-3.564,0.764,1.378,0.78-0.635c0,0-0.421-1.156-0.843-2.312c-0.411-1.161-0.821-2.322-0.821-2.322
							c0.766-0.653-0.218-9.641,1.783-1.436c0,0-0.324-1.867-0.647-3.734c-0.295-1.872-0.591-3.743-0.591-3.743
							c-0.206-4.486-0.755-10.577-1.489-14.307c-0.173-3.564-1.736-8.924-0.807-5.867c0,0-0.368-2.955-0.666-5.922
							c-0.302-2.966-0.535-5.942-0.535-5.942l0.221-0.117c-0.264-11.71-1.514-24.336,1.399-37.631
							c0.166-3.966,0.323-8.088,1.508-14.634l0.955-1.168c0.232-2.538,1.025-6.284,1.755-9.665c0.727-3.383,1.384-6.405,1.202-7.558
							c1.559-2.492,2.923-8.492,4.399-14.929c1.458-6.437,3.038-13.313,4.487-17.558l-0.878-0.61
							c1.81-5.912,3.317-11.65,5.444-19.055l-1.002,0.154c1.465-6.539,6.36-15.873,10.293-25.603
							c0.043,0.791-1.049,3.22-1.939,4.896c3.27-5.448,5.499-11.667,7.733-17.769c2.23-6.098,4.462-12.07,7.599-16.906
							c0.938-2.709,1.941-4.52,3.02-6.223c-0.114,0.24-0.204,0.461-0.267,0.657c0.13-0.262,0.324-0.65,0.522-1.05
							c0.69-1.067,1.423-2.159,2.171-3.369c-0.721,0.986-1.387,1.941-1.897,2.8c0.948-1.995,2.322-5.045,3.547-8.162l1.48-0.896
							c0.107-0.256,0.193-0.464,0.305-0.731c0.86-1.47,1.033-2.219,0.814-2.341c-0.218-0.124-0.822,0.343-1.518,1.022
							c0.544-1.679,1.039-3.218,1.159-5.067c0.049-0.073,0.106-0.189,0.156-0.296c0.843-1.172,1.04-3.009,1.482-5.069
							c0.426-2.035,1.058-4.208,2.371-5.568c-0.052-1.149,1.187-5.081,2.216-9.122c1.036-4.031,1.722-8.112,1.108-9.179
							c0.243-0.055,0.59-0.983,0.154,0.769c1.13-3.555,2.104-7.184,2.216-10.557l1.478-1.353c0,0-0.066-2.088-0.192-4.158
							c-0.068-1.01-0.136-2.02-0.187-2.777c-0.037-0.738-0.062-1.23-0.062-1.23c0.766-2.247,1.482-3.719,1.913-4.083
							c0.447-0.359,0.549,0.345,0.535,2.593c0.205-2.68,0.602-4.481,0.998-5.811c0.404-1.328,0.806-2.193,1.221-2.965
							c0.238-0.425,0.341-0.622,0.541-0.939c0.186-0.294,0.397-0.609,0.679-0.96c0.57-0.669,1.392-1.644,3.214-2.225
							c0,0-0.096,0.234-0.192,0.469c-0.083,0.236-0.167,0.471-0.167,0.471c0.273-0.041,0.572-0.079,0.891-0.096
							c0.159-0.008,0.324-0.011,0.492-0.005c0.163,0.017,0.252,0.174,0.388,0.256c0.532,0.426,1.086,0.869,1.619,1.295
							c0.14,0.118,0.278,0.234,0.415,0.349c0.183,0.169,0.362,0.336,0.538,0.499c0.362,0.343,0.701,0.678,1.005,1
							c0.609,0.643,1.082,1.232,1.326,1.734c1.476,2.345,5.077,6.483,9.687,11.549c2.319,2.519,4.87,5.29,7.534,8.184
							c1.347,1.458,2.723,2.948,4.113,4.452c1.976,2.108,3.96,4.356,5.978,6.42c2.279-1.378,4.586-2.813,6.932-4.06l0.702-0.364
							l0.588-0.292l1.18-0.565c0.788-0.369,1.577-0.721,2.367-1.053c3.157-1.333,6.302-2.378,9.259-3.144
							c-2.176-0.479,0.061-1.012,2.898-1.533c2.833-0.531,6.25-0.969,6.424-1.933c1.253,0.263,3.982-0.029,0.993,1.143
							c4.81-1.398,8.591-1.799,11.95-2.189c3.369-0.378,6.333-0.731,9.754-1.771c1.194,0.458-2.086,0.983-1.035,1.225
							c0.791-0.192,3.153-0.73,4.221-0.459c1.042,0.266-1.443,0.544-3.005,0.914c5.099-0.436,7.908-0.929,9.538-1.61
							c1.63-0.669,2.077-1.491,2.45-2.293c2.421,0.328,4.273,0.524,5.943,0.55c0.834,0.014,1.624-0.014,2.414-0.083
							c0.504-0.037,1.008-0.074,1.52-0.112c0.528-0.04,1.051-0.096,1.563-0.18c0.368-0.087,0.743-0.174,1.104-0.279
							c0.569,0.127,1.26-0.02,1.755-0.247c0.505-0.218,0.89-0.452,1.067-0.475c0.171-0.029,0.15,0.175-0.299,0.688
							c-0.229,0.248-0.568,0.587-1.13,0.874c-0.577,0.303-1.293,0.351-2.264,0.432c-0.186-0.002-0.517-0.006-0.868-0.01
							c0.235,0.013,0.513,0.028,0.877,0.048c0.801-0.062,1.891,0.08,2.999-0.661c1.06-0.685,2.025-1.808,2.929-3.165
							c0.228-0.337,0.448-0.69,0.669-1.05c0.198-0.335,0.399-0.675,0.603-1.019c0.321-0.558,0.636-1.125,0.943-1.698
							c0.614-1.145,1.2-2.311,1.749-3.45c2.182-4.556,3.773-8.689,3.295-9.099c0.77-0.938,2.149-4.743,2.388-5.704
							c3.276-7.677,3.658-8.315,6.518-16.002l-1.014,2.045c-0.133-1.788,0.396-3.403,1.221-5.362c0.4-0.919,0.841-1.93,1.336-3.068
							c0.391-0.907,0.8-1.885,1.404-2.985l0.035,0.271c0.779-1.046,1.652-1.713,2.53-1.783c0.873-0.051,1.5,0.326,1.95,0.573
							c0.899,0.557,1.301,0.887,1.735,1.2c0.419,0.326,0.85,0.685,1.497,1.541c0.077,0.108,0.16,0.223,0.248,0.345
							c0.099,0.146,0.204,0.3,0.315,0.464c0.25,0.374,0.52,0.8,0.799,1.287c0.14,0.243,0.282,0.501,0.42,0.77
							c0.064,0.131,0.131,0.266,0.198,0.404c0.173,0.251,0.351,0.509,0.533,0.774c0.411,0.607,0.863,1.299,1.354,2.072l0.274-1.216
							c1.235-0.093,2.997,2.703,5.043,6.373c2.057,3.669,4.395,8.205,7.079,11.574l-1.258-2.887
							c3.229,3.519,4.801,12.511,7.005,16.634c0.382,0.965-1.089-1.226-1.956-2.365c5.371,11.099,1.927,0.679,6.906,8.386
							c0.275,1.8-2.582-0.996,0.432,4.376c0.537,1.461,3.256,5.043,6.163,9.311c2.91,4.262,6.001,9.214,7.395,13.244
							c-0.408-1.882-0.813-3.764,1.533-0.173c3.25,5.704,6.337,16.613,10.381,21.208c0.237,0.81,0.249,1.153,0.147,1.241
							c2.59,4.303,7.604,14.391,9.648,16.78c-0.543,2.792,3.015,9.711,6.252,16.151c3.247,6.433,6.189,12.371,4.755,12.899
							c0,0,1.489,3.55,2.979,7.101c1.459,3.563,2.919,7.127,2.919,7.127l-0.438-0.261c3.397,9.239,5.278,12.246,7.184,15.235
							c0.601,2.207-0.247,0.747-0.463,0.627c4.392,13.725,4.962,15.019,10.34,25.944l-0.534,1.509
							c1.602,2.906,5.191,20.232,10.237,33.36c-0.146-0.102-0.412-0.326-0.861-1.356c2.808,7.416,4.594,16.749,6.062,24.8
							c1.49,8.056,2.687,14.841,4.975,17.367c0,0,0.662,2.529,1.323,5.059c0.621,2.543,1.242,5.085,1.242,5.085
							c-1.815-13.4,1.878,1.751,1.604-3.843c1.078,5.262,0.806,13.821-0.209,7.347l0.04-1.039c-1.101-1.059-0.663,3.119-0.266,7.544
							c0.411,4.426,0.75,9.105,0.095,8.972c1.055,13.169,0.777,26.265-1.052,38.836c-1.833,12.561-5.225,24.6-10.575,35.272
							c0,0,0.631-0.462,1.261-0.923c0.626-0.477,1.252-0.954,1.252-0.954s-0.894,1.924-1.89,3.789
							c-0.987,1.871-2.076,3.676-2.076,3.677c-0.708,0.868-1.344,1.341-1.395,0.977c-0.062-0.373,0.491-1.548,1.931-4.146
							c-1.1,1.184-2.173,3.406-3.063,5.35c-0.878,1.946-1.549,3.633-1.472,3.797c-1.857,2.267-2.779,3.014-3.026,3.032
							c-0.257,0.012,0.121-0.733,0.637-1.674c1.051-1.871,2.558-4.591,1.543-3.162c0,0-0.662,0.988-1.363,1.945
							c-0.697,0.96-1.432,1.888-1.432,1.888l0.807-0.723c-0.973,1.688-1.44,2.68-2.258,3.9c-0.832,1.195-2,2.697-4.706,4.888
							c-1.805,1.253-2.385,1.309-2.665,1.276c-0.271-0.06-0.329-0.207-0.919,0.121c-0.007-0.014-0.02-0.022-0.041-0.023
							c-0.009,0-0.021,0-0.035,0c-0.006,0-0.015,0.003-0.016,0l-0.001-0.001c0.113,0.205,0.23,0.415,0.35,0.629
							c0.228,0.406,0.461,0.82,0.698,1.244c0.302,0.558,0.611,1.128,0.926,1.709l-3.695,2.194c0.096,0.276,0.461,0.967,1.284,2.344
							l0.151,0.291l1.966,3.791l3.8-2.03c0.62-0.331,1.008-0.572,1.466-0.858c0.438-0.276,0.858-0.557,1.27-0.842
							c0.822-0.571,1.608-1.162,2.373-1.771c1.527-1.218,2.964-2.506,4.334-3.851c0,0-1.041,0.639-2.105,1.228
							c-1.062,0.593-2.146,1.132-2.146,1.132c1.809-1.896,3.721-3.818,4.622-4.908c0.894-1.099,0.842-1.25-1.441,0.209
							c0.505-0.307,1.098-0.742,1.753-1.296c0.329-0.276,0.672-0.583,1.028-0.918c0.33-0.322,0.681-0.663,1.048-1.021
							c0.529-0.508,1-0.989,1.491-1.548c0.242-0.274,0.481-0.56,0.719-0.854c0.116-0.147,0.234-0.297,0.354-0.448l0.044-0.057
							c0.016-0.011,0.036,0.03,0.054,0.043l0.11,0.116c0.074,0.077,0.146,0.155,0.227,0.227c0.363,0.349,0.764,0.659,1.196,0.919
							c0.217,0.127,0.438,0.247,0.667,0.354l0.348,0.15l0.043,0.019l0.022,0.009l0.011,0.005c-0.012-0.004,0.044,0.016-0.066-0.021
							l0.012,0.004l0.184,0.064l0.367,0.129c1.968,0.659,3.971,0.959,5.885,1.078c3.841,0.227,7.432-0.116,10.67-0.431
							c6.453-0.694,11.552-1.327,13.177-1.252c6.663-1.528,13.35-2.053,21.624-2.139c-2.058-0.171-3.346-1.5,3.843-1.431
							c-1.301,1.355,1.981,1.59,6.279,1.868c4.299,0.262,9.626,0.672,12.355,1.902c-2.477-0.838,2.531-0.582,7.104-0.034
							c4.563,0.523,8.692,1.372,5.044-0.394c2.835,0.724,2.835,1.033,2.683,1.293c-0.165,0.279-0.472,0.535,1.5,1.411
							c3.251,0.67,6.622,1.848,9.204,3.737c0.317,0.235,0.62,0.479,0.901,0.733c0.269,0.239,0.577,0.549,0.732,0.736
							c0.358,0.407,0.658,0.868,0.876,1.364c0.215,0.498,0.345,1.032,0.37,1.571c0.01,0.531,0.012,1.095-0.272,1.566
							c-0.281,0.467-0.726,0.813-1.185,1.089c-0.486,0.284-0.903,0.469-1.497,0.689c-1.606,0.63-3.564,1.181-5.517,1.625
							c-3.95,0.899-8.159,1.525-12.401,2.086c-0.237,0.377,2.708,0.598-0.925,1.519c0,0-2.325-0.202-4.616-0.5
							c-1.147-0.146-2.284-0.313-3.13-0.448l-0.155-0.024l-0.038-0.006l-0.019-0.003l-0.01-0.002l-0.795,0.101l-0.074,0.001
							c-0.097,0.002-0.189,0.004-0.275,0.005c-0.174,0.003-0.324,0.006-0.448,0.009c-0.248,0.004-0.39,0.006-0.39,0.006
							c-3.242,0.804-2.674,2.65-9.063,2.355c0.916,0.172,2.297,0.424,0.023,0.859c-8.533,0.737-17.218,1.315-25.975,1.873
							c-8.759,0.548-17.596,1.044-26.464,1.399c-8.867,0.355-17.765,0.565-26.649,0.512c-8.894-0.046-17.738-0.394-26.639-0.997
							c4.824,0.579,1.629,0.701-2.057,0.832c2.401,0.094-0.029,0.869,0.457,1.332c0,0-0.936-0.051-2.338-0.127
							c-0.713-0.027-1.544-0.06-2.435-0.094c-0.456-0.005-0.927-0.011-1.405-0.016c-0.422-0.012-0.851-0.023-1.279-0.035
							c-1.703-0.073-3.328-0.301-4.532-0.555c-1.203-0.249-2.015-0.483-2.015-0.483c-0.656,0.229-1.899,0.165-3.498-0.099
							c-1.595-0.259-3.547-0.69-5.502-1.035c-3.914-0.715-7.744-0.986-8.569-0.405c0,0,1.203,0.026,2.411,0.089
							c1.208,0.062,2.417,0.164,2.417,0.164c-3.289,0.372-1.096,1.409,1.571,2.711c2.679,1.306,5.828,3.005,5.192,3.837
							c1.78-0.049,3.787,0.381,6.109,0.829c2.317,0.452,4.964,0.838,7.719,0.892c4.993,0.139,10.691,0.571,16.369-0.754
							c2.521,0.354-2.138,0.649-0.784,1.073c2.875-0.865,6.364-1.08,12.848-0.797l-0.729,0.213c9.1-0.222,15.609-0.18,22.407-0.088
							c6.798,0.084,13.884,0.244,24.155,0.075l-1.56-0.881c4.41-0.063,5.353,0.183,7.431,0.318c2.492-0.851-0.604-0.702-3.755-0.597
							c-3.152,0.106-6.357,0.175-4.088-0.71c2.957,0.844,10.727,0.512,18.266,0.04c7.54-0.45,14.848-1.102,16.958-0.246
							c6.825-0.779-2.12-0.834,4.688-1.646l1.886,0.349l1.616-0.999c4.476-0.529,6.885-0.278,7.155,0.187
							c-1.111,0.16-3.097,0.715-4.263,0.94c1.49-0.063,3.272-0.298,5.146-0.662c0.469-0.098,0.943-0.197,1.42-0.297l0.357-0.08
							l0.18-0.041l0.045-0.01l0.022-0.006c0.86-0.109-1.166,0.148-0.955,0.121h0.006h0.011l0.092-0.005l0.729-0.038
							c0.971-0.057,1.933-0.135,2.861-0.225c3.712-0.356,6.888-0.923,7.921-0.939c0,0-1.687,0.124-3.37,0.197
							c-1.684,0.079-3.367,0.111-3.367,0.111c4.754-0.503,9.724-1.153,14.858-2.229c2.569-0.548,5.174-1.193,7.849-2.139
							c0.67-0.239,1.344-0.498,2.025-0.789l0.593-0.263l0.665-0.315c0.442-0.222,0.88-0.452,1.306-0.7
							c1.702-0.987,3.231-2.236,4.27-3.825c0.521-0.79,0.912-1.679,1.1-2.608c0.177-0.929,0.221-1.886,0.172-2.84
							c-0.097-1.91-0.622-3.813-1.54-5.52c-0.458-0.854-1.005-1.663-1.627-2.408c-0.311-0.37-0.641-0.738-0.965-1.064
							c-0.292-0.291-0.589-0.569-0.89-0.833c-1.206-1.051-2.462-1.889-3.719-2.597c-2.518-1.41-5.038-2.332-7.49-3.042
							c-2.454-0.703-4.848-1.171-7.159-1.499l1.286,0.736c-3.507-0.57-5.933-0.843-7.857-1.117
							c-1.923-0.264-3.341-0.493-4.802-0.729c-2.918-0.442-6.031-0.994-13.616-0.996l0.554-0.094
							c-3.048,0.37-7.071,0.569-11.205,0.602c1.902-0.296,0.104-0.524-1.554-0.742c-1.657-0.215-3.175-0.428-0.668-0.8
							c-7.489,0.701-9.308,1.091-10.503,1.426c-1.187,0.365-1.752,0.746-6.559,2.023l-2.322-0.518
							c-3.251,1.008-3.501,1.398-10.88,2.414c5.989-1.301-4.833-0.604,1.855-2.189c-6.063,0.054-10.721,0.604-14.339,0.633
							c-1.805,0.017-3.339-0.104-4.605-0.433l-0.119-0.03l-0.059-0.015l-0.03-0.008l-0.015-0.004
							c-0.021-0.007,0.037,0.018-0.094-0.036l-0.418-0.2c-0.278-0.123-0.551-0.259-0.811-0.471c-0.521-0.369-1.046-0.772-1.558-1.18
							c-1.025-0.817-2.017-1.7-2.901-2.587c-0.808-0.159-1.491,1.207-2.281,1.976c-0.777,0.861-1.594,1.679-2.503,2.476
							c-0.769,1.539-1.023,2.206-0.94,2.401c0.085,0.189,0.505-0.114,1.096-0.723c0.593-0.608,1.351-1.548,2.172-2.627
							c0.403-0.544,0.828-1.118,1.261-1.703l0.318-0.444l0.159-0.223c0.054-0.059,0.104-0.191,0.161-0.163
							c0.231-0.029,0.426-0.009,0.685-0.079c0.909,0.865,1.887,1.711,2.752,2.393c0.431,0.339,0.839,0.656,1.2,0.917
							c0.181,0.131,0.353,0.256,0.514,0.373c0.162,0.109,0.319,0.171,0.461,0.25c0.143,0.074,0.272,0.142,0.39,0.202l0.053,0.026
							l0.079,0.031l0.049,0.019c0.031,0.012,0.061,0.023,0.088,0.034c0.108,0.043,0.18,0.075,0.207,0.096
							c0.027,0.021,0.012,0.029-0.056,0.024c-0.034-0.005-0.08-0.011-0.141-0.019c-0.03-0.006-0.064-0.011-0.102-0.018l-0.059-0.011
							l-0.031-0.006l-0.016-0.003l-0.009-0.002l-0.07-0.027c0.011,0.005-0.015-0.004,0.026,0.012l0.045,0.02l0.009,0.006
							l0.017,0.011l0.033,0.021l0.063,0.042c0.039,0.028,0.075,0.055,0.108,0.079c0.064,0.051,0.115,0.097,0.152,0.138
							c0.074,0.084,0.097,0.147,0.067,0.196c-0.03,0.051-0.108,0.08-0.231,0.097c-0.062,0.008-0.135,0.012-0.218,0.012
							c-0.041,0-0.085-0.001-0.132-0.002l-0.072-0.003l-0.142-0.04c-0.57-0.122-1.303-0.452-2.134-0.932
							c-0.83-0.471-1.748-1.077-2.592-1.763c-0.23-0.013-0.417-0.094-0.63-0.147c-0.191,0.176-0.366,0.55-0.553,0.812
							c-0.369,0.574-0.744,1.138-1.116,1.677c-0.746,1.08-1.485,2.063-2.173,2.864c-0.866,1.064-1.57,1.676-2.435,2.343
							c-0.855,0.65-1.8,1.264-2.873,1.933c-1.061,0.647-2.251,1.375-3.667,2.24c-0.688,0.411-1.429,0.854-2.237,1.338
							c-0.395,0.227-0.806,0.462-1.234,0.708c-0.207,0.113-0.419,0.229-0.636,0.347l-0.312,0.161l-0.146,0.072l-0.064,0.03
							l-0.027,0.012l-0.01,0.005h-0.003l-0.001,0.001c-0.031-0.058,0.051,0.098,0.135,0.256c1.654,0.436,3.309,0.87,5.023,1.32
							c-0.4-0.838-0.849-1.732-1.348-2.681c-0.522,1.721-1.045,3.441-1.598,5.259l0.513-0.296l0.395-0.247
							c-0.372,0.232-0.656,0.41-0.897,0.561c0.585-1.928,1.096-3.607,1.605-5.286c0.32,0.519,0.528,0.728,0.962,1.555
							c-0.227-0.57-0.479-1.124-0.749-1.668c-0.567,1.868-1.135,3.737-1.704,5.612l0.533-0.302l0.4-0.246
							c0.258-0.164,0.503-0.33,0.743-0.5c0.478-0.34,0.932-0.693,1.374-1.059c0.886-0.731,1.725-1.511,2.567-2.317
							c1.687-1.617,3.381-3.334,5.438-5.093c0.68-1.701,1.935-3.209,2.919-4.561c0.986-1.344,1.705-2.51,1.324-3.354
							c0,0-1.598,2.53-3.439,4.915c-1.814,2.403-3.892,4.628-3.892,4.628c2.27-2.607,3.961-5.51,5.84-8.823
							c1.872-3.33,3.933-7.071,6.74-11.803c-0.071,0.911-1.19,4.031-2.147,6.114c2.042-2.601,2.716-5.638,4.516-8.501
							c0.528,0.753-0.847,4.146-3.006,8.051c-2.132,3.927-5.131,8.256-7.057,11.507c1.424-1.174,3.322-4.187,4.592-6.442
							c1.28-2.25,2.091-3.719,1.867-1.676c0.478-2.856,2.101-5.625,3.802-8.911c1.698-3.269,3.452-7.07,4.053-11.521l0.715,0.854
							c0.316-1.383,0.763-4.279,1.448-6.745c0,0-0.02,1.204-0.039,2.408c-0.047,1.212-0.094,2.423-0.094,2.423
							c0.582-3.599,1.675-6.864,2.703-10.146c1.024-3.273,1.979-6.558,2.199-9.996c-0.524,3.554-0.984,5.51-1.299,6.541
							c-0.322,1.03-0.516,1.137-0.676,0.987c-0.328-0.305-0.521-1.619-1.478,1.257c0.604-4.359,1.02-7.131,1.493-9.153
							c0.465-2.022,0.959-3.293,1.481-4.635c0.519-1.342,1.062-2.756,1.53-5.073c0.461-2.316,0.858-5.542,0.889-10.467
							c0.103,2.679-1.08,9.966-1.261,5.779c0.43-3.717,0.896-8.638,1.388-10.935c-0.33-12.997-0.933,1.997-1.579-3.521
							c1.074-4.428-0.608-6.342-1.32-11.927l0.96-0.103c-0.211-7.354-0.895-8.269-1.435-9.004c-0.581-0.734-1.046-1.288-1.492-7.848
							c0,0,0.504,1.337,1.008,2.675c0.491,1.346,0.982,2.692,0.982,2.692s-0.284-1.699-0.568-3.397
							c-0.304-1.693-0.608-3.387-0.608-3.387l1.273,1.265c-1.809-7.322-1.971-9.632-2.957-16.903
							c-0.376,1.798-1.853-0.637-3.169-6.942c-0.352-4.422,1.439,2.219-0.643-6.698c1.037,1.882,2.273,3.949,2.194,8.042
							c0.391,0.339,0.992,1.888,1.377,2.243c-0.244-4.813-2.295-11.759-3.082-14.984c0.26,1.254,0.551,2.758,0.59,3.554
							c0,0-1.058-3.174-2.173-6.319c-1.109-3.148-2.271-6.27-2.271-6.27c-0.179-2.111,0.525-0.585,1.211,0.936
							c-0.776-2.579-1.674-4.266-2.808-8.049c1.023,0.778,1.762,0.315,3.561,5.649c0,0-1.037-3.005-2.074-6.01
							c-1.076-2.985-2.153-5.971-2.153-5.971c0.101-0.907-0.959-6.496-0.21-5.005c-1.609-6.884-6.571-15.897-8.938-24.866
							c-0.298-0.406-0.741-1.274-1.478-3.102c-2.624-8.282-4.269-15.887-8.835-25.194l-0.721-5.976
							c-3.151-7.442,1.142,8.025-4.109-4.352c-3.831-8.713-0.158-3.744-0.996-7.001c-2.383-4.163-6.745-11.257-9.06-19.756
							C319.845,158.388,320.521,160.565,321.636,163.03z M277.992,73.544c1.134,1.577,3.562,4.639,3.745,6.153
							C279.704,78.309,279.34,76.568,277.992,73.544z M187.018,69.39c1.426-0.387,3.674-0.313,6.193,0.022
							C191.386,69.514,189.323,69.529,187.018,69.39z M24.911,345.728c-0.026-0.077-0.045-0.132-0.073-0.193
							C24.683,341.317,24.718,342.814,24.911,345.728z M25.789,354.429c0.277,0.845,0.4,0.762,0.471,0.374
							c-0.341-0.561-0.683-2.493-0.945-4.714C25.157,350.74,25.148,351.888,25.789,354.429z M326.844,426.998l-0.271-0.754
							l3.215-1.938l-1.003-1.847l-0.713-1.271l0.008,0.001l0.029-0.006l0.072-0.021l0.169-0.059l0.363-0.142
							c-0.12,0.092-0.233,0.178-0.336,0.255c-0.047,0.035-0.092,0.067-0.134,0.099l-0.051,0.038l-0.016,0.013l-0.003,0.003
							l-0.001,0.001c0.004,0.006-0.008-0.014,0.008,0.014l0.098,0.177c0.243,0.434,0.485,0.865,0.726,1.295
							c0.263,0.486,0.523,0.97,0.783,1.451l-3.037,1.844C328.197,428.51,327.529,427.744,326.844,426.998z"/>
						<path style="fill:#432F2A;" d="M203.698,68.097c0.304,0.17,0.446,0.345,0.542,0.519c0.029,0.016,0.039,0.03,0.048,0.044
							c0.346-0.103,0.354-0.246-0.138-0.422C204.048,68.193,203.89,68.146,203.698,68.097z"/>
						<path style="fill:#432F2A;" d="M343.601,220.909l0.086,0.29c0.107,0.14,0.191,0.205,0.263,0.235L343.601,220.909z"/>
						<path style="fill:#432F2A;" d="M27.502,217.85c0.634-1.741,1.092-2.682,1.458-3.287
							C28.763,214.4,28.329,215.147,27.502,217.85z"/>
						<path style="fill:#432F2A;" d="M39.155,398.558c0,0-0.532-1.285-1.064-2.571c-0.518-1.293-1.036-2.585-1.036-2.585
							c0.922,2.529,1.056,3.5,1.376,4.832C38.601,398.039,38.542,396.932,39.155,398.558z"/>
						<path style="fill:#432F2A;" d="M63.086,434.497c0.839,0.054,1.731,0.344,2.56,0.387l-0.135-0.484
							C62.038,433.729,59.542,433.55,63.086,434.497z"/>
						<path style="fill:#432F2A;" d="M38,404.539c-0.591,0.71,0.958,3.913,2.66,7.48c-0.096-0.217-0.19-0.421-0.274-0.643
							C41.888,411.995,39.871,408.301,38,404.539z"/>
						<path style="fill:#432F2A;" d="M41.049,412.849c0.519,1.103,1.044,2.229,1.498,3.331
							C43.153,416.412,42.02,414.796,41.049,412.849z"/>
						<path style="fill:#432F2A;" d="M28.383,365.207c0.185,1.859,1.259,0.916,1.161,2.011c0.728,0.895-0.252-2.04-1.028-4.003
							C27.744,361.251,27.087,360.286,28.383,365.207z"/>
						<polygon style="fill:#432F2A;" points="36.71,408.514 37.104,406.815 35.534,405.04 						"/>
						<path style="fill:#432F2A;" d="M27.41,378.494c0,0,0.352,1.551,0.704,3.102c0.372,1.547,0.745,3.094,0.745,3.094
							c0.133-0.139,0.458,0.606,0.813,1.534C28.565,382.468,27.656,378.273,27.41,378.494z"/>
						<path style="fill:#432F2A;" d="M29.672,386.224c0.568,1.958,1.179,3.8,1.685,4.826
							C31.004,390.006,30.258,387.755,29.672,386.224z"/>
						<path style="fill:#432F2A;" d="M33.282,400.495l-0.447-1.844c0,0-0.358-1.066-0.717-2.134c-0.348-1.069-0.696-2.14-0.696-2.14
							s0.455,1.532,0.91,3.063C32.808,398.969,33.282,400.495,33.282,400.495z"/>
						<path style="fill:#432F2A;" d="M18.887,310.938c0,0-0.065-1.733-0.13-3.468c-0.044-1.734-0.088-3.47-0.088-3.47
							c-0.326-0.716-0.59,1.174-0.475,3.763C18.415,309.429,18.558,312.003,18.887,310.938z"/>
						<path style="fill:#432F2A;" d="M16.976,332.089c0.064-1.902,0.281-2.046,0.539-3.129l-1.253-0.132L16.976,332.089z"/>
						<path style="fill:#432F2A;" d="M15.855,311.7c-0.371-0.689-0.933-10.193-0.915-1.288
							C15.271,311.129,15.634,318.144,15.855,311.7z"/>
						<polygon style="fill:#432F2A;" points="33.832,208.447 33.327,210.145 35.35,210.496 						"/>
						<path style="fill:#432F2A;" d="M64.785,121.109c-1.932,3.528-1.896,4.126-1.787,4.599c0.099,0.48,0.233,0.86-1.67,4.073
							c-0.41,1.945,3.105-5.247,2.612-3.284C65.655,121.81,66.915,119.675,64.785,121.109z"/>
						<path style="fill:#432F2A;" d="M63.94,126.498c-0.274,0.75-0.555,1.549-0.829,2.413
							C63.627,127.561,63.834,126.911,63.94,126.498z"/>
						<path style="fill:#432F2A;" d="M281.918,438.699c0,0-1.376-0.346-2.771-0.637c-1.393-0.295-2.793-0.535-2.793-0.535
							s0.89,0.27,1.779,0.538c0.882,0.289,1.764,0.578,1.764,0.578L281.918,438.699z"/>
						<path style="fill:#432F2A;" d="M271.115,439.111l-1.252-1.342c0,0-0.834,0.276-1.668,0.553
							c-0.823,0.288-1.646,0.576-1.646,0.576C267.778,438.835,270.185,438.771,271.115,439.111z"/>
						<path style="fill:#432F2A;" d="M272.743,59.391l-0.479-0.189c0.139,0.887,0.769,1.973,2.005,4.161L272.743,59.391z"/>
						<polygon style="fill:#432F2A;" points="305.743,123.989 305.24,122.849 305.159,125.454 						"/>
						<path style="fill:#432F2A;" d="M330.811,179.371c-0.842-2.335-2.148-4.956-3.013-7.294
							C329.977,177.035,329.683,180.524,330.811,179.371z"/>
					</g>
				</g>
			</g>
			<g>
				<g>
					<g>
						<path style="fill:#432F2A;" d="M298.337,453.782c-2.6,0.013-1.67,0.799-2.063,0.965c2.24-0.113,2.691-0.471,2.639-0.689
							C298.856,453.83,298.278,453.676,298.337,453.782z"/>
						<polygon style="fill:#432F2A;" points="336.4,451.008 335.727,451.359 341.36,450.428 						"/>
						<path style="fill:#432F2A;" d="M372.242,450.063c-3.444-1.272-12.982,0.717-19.385,0.355l-1.062-0.3l-2.854,1.215
							C356.703,450.99,366.759,449.905,372.242,450.063z"/>
						<path style="fill:#432F2A;" d="M391.587,452.1c-1.225-0.479,4.128-0.75-4.497,0.121c0.438,0.033,0.566,0.061,0.82,0.09
							C388.689,452.252,389.76,452.186,391.587,452.1z"/>
						<path style="fill:#432F2A;" d="M387.911,452.311C384.115,452.588,390.427,452.62,387.911,452.311L387.911,452.311z"/>
						<path style="fill:#432F2A;" d="M405.463,450.563l-4.977,0.979c1.075,0.242,5.567-0.129,3.926,0.271
							C409.561,451,408.452,450.782,405.463,450.563z"/>
						<path style="fill:#432F2A;" d="M410.11,448.994l-2.576,0.51C408.003,449.589,408.7,449.563,410.11,448.994z"/>
						<path style="fill:#432F2A;" d="M402.066,450.508c0,0,1.367-0.245,2.734-0.49c1.366-0.257,2.733-0.514,2.733-0.514
							c-0.753-0.151-0.876-0.598-2.515,0.43C405.426,449.465,404.38,449.988,402.066,450.508z"/>
						<path style="fill:#432F2A;" d="M398.93,450.57c-2.837-0.07-6.468,0.01-1.494-0.878c-4.768,0.484-6.782,0.903-6.413,1.134
							C391.391,451.049,394.149,451.076,398.93,450.57z"/>
						<path style="fill:#432F2A;" d="M374.008,448.51l-3.741-0.262l-3.203,0.602C368.664,448.56,374.258,448.95,374.008,448.51z"/>
						<path style="fill:#432F2A;" d="M436.323,447.456c0.283-0.338-1.836-0.593-2.258-0.943c0,0-0.939,0.183-1.879,0.366
							c-0.941,0.17-1.883,0.34-1.883,0.34C432.271,447.285,436.001,447.055,436.323,447.456z"/>
						<path style="fill:#432F2A;" d="M434.065,446.513c0,0,1.401-0.299,2.804-0.598c1.398-0.331,2.796-0.663,2.796-0.663
							C434.603,445.937,433.711,446.189,434.065,446.513z"/>
						<path style="fill:#432F2A;" d="M410.81,447.312c0,0-2.234,0.534-4.469,1.068c-2.24,0.5-4.481,0.999-4.481,0.999
							s2.678-0.551,5.354-1.102c2.675-0.57,5.339-1.204,5.339-1.204L410.81,447.312z"/>
						<path style="fill:#432F2A;" d="M458.919,441.183c0,0-0.812,0.685-1.627,1.278c-0.816,0.604-1.633,1.138-1.633,1.138
							s1.474-0.892,2.951-2.039c0.738-0.569,1.475-1.204,2.021-1.728c0.547-0.521,0.904-0.913,0.904-0.913s-0.646,0.655-1.304,1.213
							C459.578,440.695,458.919,441.183,458.919,441.183z"/>
						<path style="fill:#432F2A;" d="M465.558,421.385c0.896,1.569,0.739,0.345,0.442-0.889c-0.311-1.205-0.748-2.385,0.324-0.707
							c-1.398-2.791-3.294-4.771-5.117-6.216c-1.843-1.448-3.648-2.395-5.323-3.125c1.722,0.876,3.485,2.036,5.216,3.751
							C462.801,415.915,464.531,418.231,465.558,421.385z"/>
						<path style="fill:#432F2A;" d="M450.369,408.483c1.692,0.534,3.508,1.093,5.516,1.965
							C454.049,409.521,452.22,408.879,450.369,408.483z"/>
						<path style="fill:#432F2A;" d="M449.41,443.332c0.502,0.018,1.467,0.355,4.883-0.73c0,0-0.667,0.037-1.317,0.045
							c-0.644-0.002-1.287-0.004-1.287-0.004C450.991,442.871,450.205,443.111,449.41,443.332z"/>
						<path style="fill:#432F2A;" d="M451.599,442.644l0.089-0.001c2.479-0.804,4.237-1.622,4.994-1.998
							C456.035,440.955,454.479,441.729,451.599,442.644z"/>
						<path style="fill:#432F2A;" d="M448.837,443.488c0.211-0.057,0.366-0.1,0.572-0.156
							C449.168,443.314,449.031,443.322,448.837,443.488z"/>
						<path style="fill:#432F2A;" d="M424.931,445.808l0.159-0.052c0.11-0.02,0.224-0.039,0.339-0.06
							c0.23-0.041,0.471-0.083,0.717-0.127c0.488-0.089,0.999-0.183,1.499-0.273c0.997-0.19,1.945-0.395,2.58-0.587
							c1.271-0.396,1.289-0.683-2.03-0.804c-1.152,0.37-0.781,0.594-0.727,0.858c0.026,0.133-0.028,0.273-0.397,0.445
							c-0.185,0.086-0.447,0.179-0.82,0.28c-0.188,0.046-0.401,0.098-0.646,0.157C425.374,445.7,425.015,445.76,424.931,445.808z"/>
						<path style="fill:#432F2A;" d="M445.8,443.149c0,0-1.508,0.297-3.008,0.528c-1.502,0.238-2.998,0.423-2.998,0.423
							c0.149,0.204,1.286,0.357-0.32,0.852c0,0,1.589-0.392,3.17-0.843C444.227,443.665,445.8,443.149,445.8,443.149z"/>
						<path style="fill:#432F2A;" d="M448.662,442.147c0,0-0.714,0.259-1.429,0.519c-0.716,0.241-1.433,0.483-1.433,0.483
							s0.56-0.114,1.118-0.229c0.561-0.125,1.121-0.249,1.121-0.249L448.662,442.147z"/>
						<path style="fill:#432F2A;" d="M460.222,415.555c-2.609-2.053-5.432-3.779-8.67-5.191c3.348,1.714,6.884,3.957,9.61,7.297
							c0.298,0.142,0.829,0.537,0.925,0.422C462.174,417.983,461.885,417.232,460.222,415.555z"/>
						<path style="fill:#432F2A;" d="M464.977,432.004c0.065-0.277,0.148-0.634,0.182-0.898
							C464.972,431.638,464.809,432.053,464.977,432.004z"/>
						<path style="fill:#432F2A;" d="M419.922,404.247c0.171,0.063,0.32,0.117,0.495,0.182c0.042-0.048,0.071-0.094,0.125-0.142
							L419.922,404.247z"/>
						<path style="fill:#432F2A;" d="M461.49,418.333c1.812,2.746,2.645,4.69,3.322,6.576c-0.589-2.561-1.875-5.111-3.649-7.249
							C460.895,417.529,460.813,417.531,461.49,418.333z"/>
						<path style="fill:#432F2A;" d="M441.219,406.091c1.328,0.487,2.841,1.031,4.427,1.657
							C444.396,407.064,441.754,405.971,441.219,406.091z"/>
						<path style="fill:#432F2A;" d="M465.596,429.774c-0.005,0.209-0.01,0.398-0.033,0.625c0.085-0.296,0.13-0.522,0.161-0.676
							c0.09-0.55,0.015-0.401-0.105-0.013C465.612,429.729,465.604,429.751,465.596,429.774z"/>
						<path style="fill:#432F2A;" d="M465.596,429.774c0-0.025,0.001-0.051,0.001-0.065c0.01-0.513-0.008-1.075-0.047-1.536
							c-0.035-0.402-0.105-0.791-0.167-1.161c-0.151-0.744-0.335-1.432-0.571-2.103c0.197,0.818,0.32,1.626,0.396,2.387
							c0.036,0.396,0.068,0.719,0.077,1.138c0.016,0.449,0.013,0.854,0.007,1.238c-0.021,0.577-0.071,1.014-0.133,1.434
							C465.319,430.619,465.479,430.129,465.596,429.774z"/>
						<path style="fill:#432F2A;" d="M410.397,409.45c0.432-0.793,7.079-1.465,12.705-0.186c2.807-0.089,3.374-0.817,2.622-1.803
							c-0.751-0.979-2.845-2.169-5.307-3.033c-0.192,0.354-0.228,0.604-6.09,0.892c1.018,0.236,4.25,0.597,6.599,1.031
							c2.352,0.431,3.81,0.874,1.336,1.056c-3.855-0.041-5.421-0.141-6.497-0.356c-1.075-0.205-1.655-0.503-3.524-0.746
							c1.582,0.525-0.876,0.825-3.499,1.236c-2.626,0.406-5.419,0.93-4.577,1.644c0,0,1.669-0.142,3.338-0.282
							c1.672-0.12,3.345-0.239,3.345-0.239C410.967,408.889,408.545,409.228,410.397,409.45z"/>
						<path style="fill:#432F2A;" d="M431.672,405.52l2.454,0.246c-2.767-0.548-4.716-1.111-8.342-2.056
							c-4.104,0.053-4.946,0.341-5.242,0.577c0,0,2.985,0.186,5.98,0.492c2.994,0.292,5.999,0.735,5.999,0.735L431.672,405.52z"/>
						<path style="fill:#432F2A;" d="M445.137,408.141c-2.181,0.185-8.016-0.681-4.687,1.009c3.505,0.794,4.769,1.063,5.711,1.125
							c0.939,0.093,1.549-0.015,3.714,0.663c-2.85-1.098-4.075-1.407-4.418-1.576c-0.345-0.148,0.188-0.077,0.83,0.023
							c0.642,0.097,1.395,0.229,1.479,0.121c0.083-0.101-0.503-0.488-2.566-1.244c2.325,0.542,4.403,1.259,6.353,2.102
							c-2.044-1.041-4.034-1.88-5.906-2.615c0.101,0.054,0.171,0.091,0.253,0.134l0.057,0.015c-0.002,0.006-0.015,0.004-0.016,0.01
							c0.474,0.259,0.619,0.376,0.069,0.137c-0.042-0.002-0.186-0.042-0.249-0.059c-0.114,0.092-0.361,0.122-0.621,0.152
							c-3.324-1.118-0.473-0.387,0.621-0.152c0.051-0.028,0.154-0.038,0.18-0.078c-0.011-0.009-0.025-0.017-0.041-0.024
							c0,0.001-2.973-0.795-5.913-1.288c-2.944-0.524-5.859-0.828-5.859-0.828C436.565,406.294,439.633,406.672,445.137,408.141z"/>
						<path style="fill:#432F2A;" d="M434.053,441.517c0.354,0.036,0.347,0.1,0.381,0.158
							C435.146,441.484,435.412,441.383,434.053,441.517z"/>
						<path style="fill:#432F2A;" d="M438.725,441.426c-0.795,0.236-1.427,0.698-4.102,0.928c-2.338,0.002-0.034-0.41-0.189-0.679
							c-1.563,0.413-5.557,1.188-0.467,1.097l0.785-0.207c2.288-0.115,4.931-0.16,6.925-0.199c1.992-0.035,3.333-0.038,2.943,0.109
							C443.122,441.995,441.843,441.709,438.725,441.426z"/>
						<path style="fill:#432F2A;" d="M462.944,429.518l0.007-0.127c0.04-1.075-0.012-1.974-0.157-2.888
							c-0.145-0.917-0.38-1.821-0.701-2.688c-0.641-1.737-1.626-3.308-2.797-4.622c-0.001,0,0.729,1.173,1.219,2.452
							c0.505,1.279,0.716,2.611,0.716,2.611l0.342-0.4c0.413,1.373,0.544,2.392,0.636,3.121c0.089,0.741,0.138,1.16,0.201,1.498
							c0.127,0.66,0.316,0.599,0.474,0.908C462.906,429.406,462.925,429.456,462.944,429.518z"/>
						<path style="fill:#432F2A;" d="M418.846,403.765l1.322-0.846c0,0-1.405,0.257-2.811,0.514
							c-1.394,0.275-2.787,0.551-2.787,0.551s1.067-0.06,2.135-0.12C417.776,403.813,418.846,403.765,418.846,403.765z"/>
						<polygon style="fill:#432F2A;" points="406.418,403.638 406.875,402.844 403.596,403.353 						"/>
						<path style="fill:#432F2A;" d="M89.794,58.04c0,0-0.247,0.449-0.464,0.938c-0.222,0.482-0.418,0.996-0.418,0.996
							C89.322,59.026,89.603,58.462,89.794,58.04z"/>
						<path style="fill:#432F2A;" d="M98.57,56.966l0.618,0.09C98.4,56.529,98.026,56.361,98.57,56.966z"/>
						<path style="fill:#432F2A;" d="M329.679,175.159c-0.769-4.021-1.38-8.631-2.026-7.848l-0.348,1.47
							C328.491,171.339,329.187,173.383,329.679,175.159z"/>
						<path style="fill:#432F2A;" d="M223.677,28.321c0.215-0.328,0.438-0.669,0.658-1.007c0.056-1.015,0.107-1.971,0.154-2.825
							C224.246,25.641,223.968,26.949,223.677,28.321z"/>
						<path style="fill:#432F2A;" d="M226.029,32.249l-2.45,4.754C224.2,35.962,225,34.439,226.029,32.249z"/>
						<path style="fill:#432F2A;" d="M55.546,159.71l-0.456,3.261C57.063,158.421,55.79,160.245,55.546,159.71z"/>
						<path style="fill:#432F2A;" d="M369.98,345.412c0.415-3.533,0.538-6.355,0.534-8.831
							C370.1,340.859,369.283,344.271,369.98,345.412z"/>
						<path style="fill:#432F2A;" d="M90.09,46.217c-2.145,1.086-2.745,1.901-2.599,1.988C89.328,46.798,90.665,46.25,90.09,46.217z
							"/>
						<path style="fill:#432F2A;" d="M370.093,326.38c-0.032,0.626-0.063,1.238-0.095,1.875c0.283,2.568,0.51,5.164,0.516,8.326
							C370.829,333.427,370.911,329.797,370.093,326.38z"/>
						<path style="fill:#432F2A;" d="M152.396,440.462c0.285,0.033,0.625,0.044,0.884,0.085
							C153.364,440.428,152.971,440.429,152.396,440.462z"/>
						<path style="fill:#432F2A;" d="M263.254,449.258c-1.117,0.061-2.939,0.158-4.658,0.251
							C259.527,449.533,260.863,449.442,263.254,449.258z"/>
						<path style="fill:#432F2A;" d="M359.432,406.623C360.194,406.596,359.577,406.536,359.432,406.623L359.432,406.623z"/>
						<path style="fill:#432F2A;" d="M369.953,409.318c-0.532,0.155-0.931,0.322-0.974,0.528
							C369.167,409.616,369.508,409.446,369.953,409.318z"/>
						<path style="fill:#432F2A;" d="M361.877,301.199c-0.01-0.075-0.019-0.135-0.031-0.221
							C361.795,301.763,361.807,301.627,361.877,301.199z"/>
						<path style="fill:#432F2A;" d="M361.343,407c-0.22-0.018-0.448-0.035-0.685-0.055c-0.117-0.009-0.235-0.018-0.355-0.026
							c-0.109-0.009-0.115-0.021-0.179-0.031c-0.176-0.038-0.362-0.078-0.556-0.12c0.074,0.037,0.188,0.078,0.358,0.123
							c0.095,0.021,0.193,0.043,0.345,0.065C360.588,406.969,360.945,406.983,361.343,407z"/>
						<path style="fill:#432F2A;" d="M360.856,406.607c0.8,0.013,1.446,0,2.068-0.018
							C363.227,406.418,362.921,406.377,360.856,406.607z"/>
						<path style="fill:#432F2A;" d="M358.351,406.516c0.431,0.089,0.831,0.172,1.218,0.252c-0.144-0.063-0.187-0.119-0.137-0.145
							C359.207,406.619,358.88,406.626,358.351,406.516z"/>
						<path style="fill:#432F2A;" d="M18.656,335.047c-0.012,0.17-0.012,0.365-0.033,0.552
							C19.225,338.131,19.056,337.011,18.656,335.047z"/>
						<path style="fill:#432F2A;" d="M294.701,117.144c0.06,0.104,0.107,0.153,0.165,0.246c-0.044-0.112-0.099-0.253-0.138-0.355
							L294.701,117.144z"/>
						<path style="fill:#432F2A;" d="M290.066,109.157c2.712,3.032,3.573,5.102,4.662,7.877l0.917-3.839L290.066,109.157z"/>
						<path style="fill:#432F2A;" d="M78.177,102.75c0,0,0.715-1.499,1.43-2.998c0.703-1.531,1.406-3.063,1.406-3.063
							c-0.62,4.08-1.574,7.374-1.907,8.95c-0.335,1.572-0.162,1.549,1.34-1.136c-1.171-0.85,0.98-6.923,2.661-13.36
							c1.713-6.403,2.74-12.953,1.473-13.625c0,0,0.318-1.071,0.637-2.143c0.304-1.076,0.607-2.153,0.607-2.153
							c-0.206,1.255-0.078,1.48-0.298,2.721c0.329-1.042,0.551-1.932,0.697-2.708c0.141-0.772,0.214-1.465,0.225-1.959
							c0.032-1.049-0.115-1.857-0.255-2.742c-0.138-0.883-0.281-1.85-0.18-3.176c0.111-1.311,0.444-3.035,1.486-5.102
							c0.762-1.42,1.588-2.404,2.082-2.792c0.498-0.388,0.628-0.282,0.214,0.574c0,0,0.727-1.406,1.695-2.41
							c0.48-0.513,1.007-0.947,1.405-1.206c0.404-0.27,0.698-0.408,0.698-0.408c0.177-0.056,0.338-0.09,0.46-0.104
							c0.089-0.008,0.175,0,0.234,0.01c0.121,0.027,0.163,0.083,0.141,0.147c-0.021,0.063-0.109,0.139-0.238,0.21
							c-0.144,0.073-0.437,0.185-0.753,0.301c0,0,0.103-0.05,0.29-0.12c0.094-0.034,0.208-0.075,0.339-0.122
							c0.143-0.043,0.204-0.063,0.34-0.098c0.478-0.126,1.157-0.192,1.83-0.08c0.084,0.014,0.167,0.031,0.25,0.052
							c0.073,0.037,0.122,0.111,0.184,0.164c0.118,0.117,0.234,0.232,0.347,0.343c0.114,0.113,0.224,0.222,0.329,0.325
							c0.207,0.212,0.401,0.413,0.582,0.598c0.83,0.858,1.383,1.43,1.383,1.43l-0.123-0.015c1.552,1.035,4.844,3.591,6.42,4.867
							c1.925,2.628-1.319-0.988-1-0.152l5.294,4.698c1.447,2.578-3.041-1.222-6.293-4.847c2.515,6.66,4.494,3.805,13.039,15.262
							l-4.797-4.625c0.902,2.093,2.342,3.993,4.111,6.138c0.889,1.069,1.842,2.215,2.875,3.457c0.511,0.625,1.037,1.28,1.573,1.97
							c1.072,1.286,2.186,2.621,3.345,4.011c-0.269-0.379-0.765-1.034-1.391-1.853c-0.31-0.404-0.654-0.854-1.023-1.336
							c-0.182-0.237-0.37-0.482-0.563-0.734c-0.117-0.148-0.147-0.203-0.193-0.276l-0.139-0.22c-0.75-1.184-1.609-2.554-2.264-3.713
							c-1.309-2.317-1.796-3.789,1.063-1.226c0.662,0.857,1.459,1.822,2.495,2.901c0.282,0.287,0.576,0.586,0.883,0.897
							c0.454,0.451,0.927,0.92,1.419,1.409c0.987,0.96,2.056,1.963,3.188,2.973c-0.123,0.413,0.52,1.462,1.774,2.826
							c1.135-0.594,2.684-1.492,4.468-2.54c0.893-0.518,1.843-1.066,2.851-1.598c0.393-0.207,0.795-0.418,1.205-0.634
							c0.307-0.156,0.62-0.314,0.938-0.475l0.266,1.292c2.204-1.267,3.199-1.947,3.934-2.568c0.741-0.613,1.233-1.149,2.56-1.968
							c5.502-1.9,6.998-1.184,8.514-0.794c4.457-1.145,2.839-1.085,1.374-1.168c-1.447-0.042-2.767-0.271,2.568-1.794
							c3.842-0.704,7.093-1.36,10.546-2.107c3.454-0.737,7.11-1.563,11.79-2.368c5.547-0.013-0.898,0.854,1.108,1.057
							c0,0,1.198-0.346,2.396-0.692c1.208-0.33,2.415-0.659,2.415-0.659c1.202-0.039,0.829,0.295,0.642,0.463
							c4.11-0.559,0.271-1.346,6.802-1.837c0.547-0.447,2.08-0.428,4.161-0.191c1.049,0.119,2.196,0.292,3.492,0.491
							c1.767,0.208,3.79,0.507,5.914,0.788c0.508-0.132,0.874-0.642,1.252-1.086c0.375-0.451,0.75-0.909,1.112-1.396
							c0.713-0.989,1.338-2.105,1.915-3.224l0.395-0.79l0.274-0.592c0.178-0.395,0.343-0.789,0.496-1.182
							c0.306-0.786,0.561-1.567,0.758-2.337c1.204-1.711,0.287,1.235,1.001,0.877c1.964-5.437,2.724-7.744,3.39-9.845
							c0.648-2.099,1.159-3.982,2.287-8.556c0,0,0.944-1.758,1.889-3.516c0.932-1.766,1.863-3.533,1.863-3.533
							c-3.062,5.063-1.304-2.272,0.099-8.681c-1.157,1.765-2.168,3.258-2.774,4.286c0,0,0.762-2.477,1.522-4.953
							c0.367-1.241,0.734-2.482,1.01-3.413c0.141-0.476,0.258-0.873,0.34-1.151c0.092-0.285,0.144-0.448,0.144-0.448
							c0.713-1.148,0.637,0.071,0.571,1.846c0.138-0.695,0.282-1.38,0.402-1.908c0.974-1.66,1.511-1.867,1.624-1.414
							c0.129,0.462-0.042,1.614-0.156,2.928c-0.685,1.089-1.363,2.168-2.024,3.219c-0.164,2.674-0.229,5.228,0.663,4.997
							c0.104-0.686,0.452-1.95,0.889-3.318c-0.038,0.705-0.016,1.174,0.215,0.927c0.252-0.284,0.371-1.404,0.655-3.118
							c0,0,0.539-0.435,1.078-0.871c0.268-0.213,0.542-0.448,0.737-0.591c0.192-0.134,0.32-0.223,0.32-0.223l-0.348-0.668
							c0.357-0.722,0.742-1.404,1.151-2.016c0.206-0.303,0.417-0.589,0.632-0.851c0.165-0.187,0.327-0.354,0.505-0.512
							c0.689-0.63,1.57-1.017,2.419-1.19c0.428,0.112,0.814,0.313,1.138,0.56c0.263-0.01,0.533,0.01,0.812,0.055
							c0.302,0.064,0.499,0.071,0.941,0.272c0.794,0.341,1.627,0.825,2.452,1.403c0.826,0.58,1.649,1.253,2.457,2.002
							c0.404,0.375,0.804,0.769,1.198,1.181l0.585,0.631l0.287,0.325l0.359,0.462l0.462,0.452l0.372,0.346
							c0.248,0.236,0.498,0.475,0.751,0.716c0.497,0.495,1.004,0.999,1.522,1.514c1.025,1.046,2.071,2.165,3.143,3.371
							c2.143,2.412,4.391,5.173,6.77,8.426c-3.007-2.571-1.871,0.282-3.016,0.802c-0.592-1.977-2.227-4.2-4.269-6.651
							c-1.021-1.226-2.146-2.508-3.294-3.844c-0.568-0.669-1.147-1.352-1.733-2.042c-0.614-0.754-1.236-1.517-1.863-2.285
							l-0.728-1.23c0.114,0.2,0.22,0.386,0.317,0.556c0.136,0.254,0.26,0.487,0.374,0.7c0.137,0.194,0.262,0.372,0.377,0.535
							c0.104,0.152,0.142,0.227,0.203,0.331c0.108,0.191,0.187,0.35,0.239,0.479c0.104,0.258,0.105,0.397,0.042,0.451
							c-0.129,0.108-0.519-0.125-0.863-0.417c0,0,0.586,0.634,1.466,1.586c0.88,0.965,2.045,2.276,3.196,3.607
							c2.308,2.658,4.557,5.394,4.557,5.394c-1.015,0.316,1.084,2.886,2.773,6.184c0.059-1.713,1.807,0.28,3.959,3.301
							c2.156,3.017,4.686,7.069,6.454,9.365c-0.396,0.663-1.667-0.177-5.288-6.181c2.854,7.326,7.323,7.239,10.133,14.455
							c-0.89-1.469-1.277-2.317-1.918-2.723c2.6,3.119,7.08,11.871,5.414,10.161l-0.864-1.478c2.75,4.99,6.964,12.565,10.668,19.051
							c3.717,6.478,6.957,11.853,8.104,12.231c-0.145,0.199-2.507-0.411-3.124-0.867c0,0,3.583,3.877,7.114,7.829
							c3.538,3.945,7.026,7.96,7.026,7.96c-2.095-0.988-2.269,6.71-7.093-1.463c0.99,2.536,2.22,5.663,5.1,10.633
							c-0.591-1.765-0.041-5.082,1.154-2.841c1.448,7,1.261,4.748,3.517,13.128c-0.851-2.661,2.512-0.789,4.222,3.271
							c-0.591-0.49-1.921,1.245-2.788-0.125c0,0,1.611,2.276,3.224,4.552c1.599,2.29,3.197,4.58,3.197,4.58
							c-1.45-2.353-1.938,0.307-1.57,2.803c-0.022-1.221,3.628,8.715,4.914,11.333l-1.278-4.48
							c4.356,11.539,7.554,10.102,11.887,21.602c-0.969-1.223-3.977-2.393-2.019,3.522c2.09,2.244,9.672,9.887,14.139,19.891
							l0.073,2.19l3.445,7.655c-3.303-4.392-11.599-16.907-15.725-23.812c1.115,4.509-0.271,1.471,2.16,7.938
							c0.253,2.502-2.166-3.217-2.91-5.105c0,0,1.286,3.807,2.571,7.614c1.254,3.816,2.509,7.633,2.509,7.633
							c1.051-1.131,5.307,11.173,6.148,10.242c0,0-1.75-4.021-3.5-8.043c-1.785-4.002-3.569-8.005-3.569-8.005
							c1.021-1.129,7.03,8.24,10.431,19.177c0.415,2.926-2.961-1.302-3.311-0.931c0.926,1.249,4.254,10,4.254,11.103l-2.187-4.377
							c1.494,6.181,4.914,9.316,5.956,16.98c0.702,2.537,0.597,7.989,1.479,8.201c0.277-4.521,4.558-6.72,6.493-4.273
							c0.081,0.461,0.722,3.912,1.289,7.643c0.577,3.73,1.072,7.738,1.077,9.296c-0.08,4.498-4.41-5.593-4.482-1.751
							c0.396,0.058,1.437,2.257,1.82,3.188c0.365,2.753-1.366-0.83,0.224,4.94c1.587,0.646,2.631,11.896,1.776,2.489
							c1.69,5.634,1.129,6.139,2.557,12.868c0.438-2.335,4.174,5.499,5.473,11.317c-0.397-0.289-0.632,1.096-0.738,1.762
							c0.864,5.985,1.248,10.621,1.546,15.15c0.289,4.531,0.497,8.959,0.75,14.571c-0.265,1.055-0.516,6.468-1.168,4.181
							c0.278,1.6,0.784,3.071,0.81,6.529c-0.619,3.335-0.64,1.406-0.709-0.708c-0.074-2.12-0.219-4.427-0.896-1.886
							c0.396,0.212,0.695,2.433,0.883,5.221c0.193,2.788,0.253,6.141,0.341,8.608c0.658-0.714,0.893-3.563,0.817-6.843
							c-0.064-3.281-0.447-6.981-0.747-9.437c1.641-0.079,3.819,8.551,3.597,20.569c-0.218,4.757-0.67,5.75-0.954,5.762
							c-0.299,0.012-0.503-0.949-0.481-0.119c-0.608,4.404-1.008,7.551-1.229,10.048c-0.229,2.495-0.288,4.339-0.382,6.09
							c-0.098,1.751-0.226,3.411-0.688,5.516c-0.47,2.1-1.255,4.659-2.845,8.101c-3.136,5.181-2.085-0.517-3.284,0.445
							c1.188-3.648,2.225-6.394,3.169-8.867c0.937-2.474,1.765-4.678,2.313-7.23c0,0-0.472,1.541-0.985,3.065
							c-0.509,1.526-1.062,3.033-1.062,3.033c0.339-2.444,1.237-7.458,2.04-10.135c-0.795,1.944-1.967,7.466-4.085,13.971
							c-1.055,3.251-2.359,6.739-3.879,10.137c-0.382,0.849-0.774,1.692-1.181,2.524l-0.618,1.24
							c-0.224,0.429-0.446,0.856-0.668,1.282c-0.906,1.702-1.88,3.363-2.894,4.963c-0.282,0.561-0.567,1.104-0.854,1.627
							c-0.15,0.137,0.088,0.247,0.151,0.369c0.101,0.12,0.201,0.238,0.309,0.348c0.207,0.229,0.428,0.438,0.647,0.644
							c0.889,0.809,1.876,1.408,2.864,1.852c1.34,0.352,3.18,0.493,4.377,0.396c1.208-0.091,1.749-0.289,0.875-0.549
							c0,0-1.034-0.014-2.079-0.144c-1.047-0.113-2.079-0.395-2.079-0.395c-0.714-0.502-0.48-0.659,0.075-0.646
							c0.561,0.019,1.484,0.127,2.326,0.137c0.843,0.021,1.599-0.033,1.876-0.115c0.281-0.091,0.082-0.176-0.896-0.398
							c1.195-0.005,2.273-0.151,3.433-0.339c1.466-0.198,2.999-0.454,4.621-0.721c3.239-0.531,6.83-1.081,10.903-1.284l1.654,1.053
							c-0.214-0.344-5.366-0.135-7.577,0.484c3.285-0.917,12.544,0.251,16.112-1.627c0,0-1.445-0.083-2.891-0.166
							c-1.446-0.07-2.893-0.142-2.893-0.142c5.717-1.214,12.895-3.1,20.243-2.915c-3.378-1.093-1.672,0.168-6.954-0.981
							c2.306,0.761-2.384,0.967-6.703,1.323c-4.324,0.349-8.267,0.78-4.597,1.338c-5.422-1.135-9.246,0.326-16.035-0.394
							c0.121,0.191,0.727,0.326,0.57,0.46c-0.147,0.125-1.104,0.293-3.944,0.393c-0.248,0.138-0.833,0.318-1.206,0.426
							c-0.17-0.008-0.229-0.01-0.375-0.016c0.111,0.013,0.195,0.022,0.307,0.035c-0.236,0.07-0.257,0.084,0.114,0.013
							c1.332,0.114,2.469,0.23,2.939,0.419c-1.27,0.586-4.903,1.036-6.124,1.061c-0.895,0.019-1.836-0.069-2.666-0.288
							c-0.833-0.216-1.534-0.566-2.062-0.822c-0.331-0.404-0.414-0.606-0.22-0.669c0.052-0.029,0.082-0.023,0.103,0.003
							c0.027,0.025,0.167,0.059,0.262,0.1c0.436,0.165,0.953,0.306,0.89-0.169c-0.127-0.057-0.245-0.125-0.371-0.19
							c-0.027-0.075,0.015-0.159,0.021-0.243c0.034-0.18,0.068-0.358,0.277-0.58c-0.004-0.28,0.011-0.598,0.041-0.955
							c0.618-0.191,1.609-1.245,2.146-1.599c0.591-0.47,0.736-0.081,0.385,1.138c0,0,0.076-0.137,0.189-0.342
							c0.056-0.103,0.12-0.223,0.189-0.351c0.104-0.203,0.215-0.42,0.325-0.637c0.896-1.797,1.706-3.627,1.706-3.626
							c1.18-2.057,2.39-4.591,3.359-7.125c0.974-2.535,1.703-5.054,2.065-7.017c1.253-3.57,1.301-9.394,1.269-6.067
							c0,0,0.576-3.052,0.996-6.11c0.437-3.059,0.728-6.118,0.729-6.118l0.238-0.08c0.918-6.003,1.086-12.247,1.132-18.648
							c0.049-6.41-0.022-12.984,0.415-19.876c-0.459-4.022-1.013-8.151-1.497-14.871l0.624-1.394
							c-0.429-2.558-0.738-6.434-1.138-9.93c-0.395-3.496-0.867-6.609-1.458-7.632c0.558-2.925-0.466-9.141-2.01-15.67
							c-1.526-6.538-3.571-13.378-4.561-17.802l-1.068-0.069c-1.554-6.028-3.465-11.692-6.137-18.93l-0.716,0.718
							c-2.662-6.093-4.512-16.388-7.972-26.264c0.556,0.562,1.318,3.104,1.718,4.949c-2.038-12.519-9.99-24.421-12.6-35.517
							c-1.299-2.527-1.924-4.475-2.424-6.405c0.097,0.244,0.196,0.458,0.295,0.636c-0.102-0.271-0.251-0.673-0.405-1.086
							c-0.304-1.219-0.601-2.482-0.972-3.831c0.227,1.181,0.467,2.303,0.745,3.25c-0.803-2.025-2.102-5.064-3.504-7.991l0.385-1.638
							c-0.106-0.24-0.192-0.435-0.303-0.686c-0.851-3.085-1.374-2.201-1.414-0.36c-0.755-1.454-1.486-2.768-2.139-3.753
							c0.476-2.981-3.696-7.653-3.537-11.537c-1.558-1.711-6.979-14.724-9.267-15.588c0.157-0.19-0.134-1.104,0.589,0.485
							c-1.286-3.372-2.597-6.736-4.383-9.473l0.471-1.902l-4.827-6.434c-1.377-4.635-1.858-6.614,1.051-2.732
							c-6.293-9.711-4.54-8.161-10.201-16.23l0.921,0.064c-1.6-3.102-5.111-7.554-5.517-9.715
							c-1.153-3.799-5.641-12.359-11.212-22.072c-5.554-9.727-12.234-20.559-17.294-29.297c0.117,2.271-0.956,0.18-2.342-2.419
							c-1.38-2.602-3.111-5.708-4.081-5.505c-0.234-1.274-1.649-3.747,0.669-1.369c-1.155-1.437-2.18-2.769-3.12-4.017
							c-0.875-1.175-1.68-2.255-2.435-3.27l-0.08-0.16l-0.258-0.441c-0.174-0.285-0.347-0.567-0.517-0.845
							c-0.346-0.55-0.697-1.078-1.061-1.589c-0.726-1.022-1.493-1.979-2.358-2.879c-0.864-0.898-1.826-1.742-2.959-2.495
							c-1.04-0.688-2.685-1.579-4.347-1.951c-0.75-0.565,0.084-0.508,0.973-0.296c0.877,0.21,1.775,0.583,1.103,0.011
							c-0.623-0.274-1.876-0.749-3.203-1.022c-1.327-0.295-2.711-0.361-3.578-0.465c-0.854-0.093-0.275-0.301,0.899-0.399
							c1.174-0.102,2.922,0.136,4.256,0.534c-1.998-0.746-3.919-0.913-5.541-0.717c-3.114,0.385-5.194,1.908-6.459,3.262
							c-1.275,1.383-1.86,2.678-2.137,3.598c-0.377,1.662,0.109,2.389,0.547,3.048c-0.836,1.211-1.436,2.388-1.87,3.368
							c-0.43,0.949-0.775,1.817-1.057,2.662c-0.562,1.689-0.858,3.285-1.053,5.242c-1.15,1.517-2.75,4.15-0.613-1.904
							c-0.699,1.665-2.837,6.751-4.816,11.463c-1.957,4.721-3.696,9.088-3.185,9.512c-0.742,0.912-2.119,4.579-2.383,5.5
							c-1.358,2.91-2.272,4.735-3.125,6.387c-0.175,0.332-0.346,0.656-0.519,0.984c-0.146,0.267-0.294,0.538-0.449,0.821
							c-0.162,0.278-0.331,0.569-0.511,0.88c-0.096,0.153-0.194,0.312-0.306,0.47c-0.056,0.079-0.115,0.158-0.179,0.236
							c-0.089,0.017-0.199-0.007-0.3-0.008c-0.296-0.014-1.154-0.055-2.229-0.073l1.521,0.283c-0.409,0.361-1.001,0.546-1.672,0.628
							c-0.298,0.042-0.818,0.052-1.282,0.046c-0.478-0.005-0.976-0.028-1.5-0.059c-2.094-0.124-4.613-0.393-7.875-0.219l0.184-0.163
							c-7.509-0.324-9.132,0.055-10.708,0.269c-1.583,0.283-3.124,0.386-10.567,0.791l0.936,0.833
							c-0.539,1.122-3.791,1.267-7.974,1.625c-4.173,0.343-9.315,0.97-13.335,2.646c0,0,0.786-0.095,1.571-0.19
							c0.785-0.084,1.569-0.168,1.569-0.168c-2.163,0.972-5.482,1.267-8.894,1.655c-3.403,0.374-6.903,0.864-9.173,1.816
							c-1.044,0.299,1.396-0.998,2.718-1.708c-1.521,0.502-2.674,0.945-3.546,1.315c-0.437,0.185-0.802,0.353-1.109,0.503
							c-0.05,0.025-0.098,0.049-0.144,0.072l-0.051,0.029c-0.032,0.02-0.059,0.041-0.083,0.062
							c-0.191,0.169-0.176,0.388-0.114,0.634c0.097,0.523,0.561,0.999-1.456,2.348c-0.023,0.022-0.056,0.043-0.081,0
							c-0.215-0.727,0.088-1.033,0.156-1.49c0.078-0.447,0.009-0.95-0.534-1.623c-0.036-0.139-0.126-0.261-0.273-0.388l-0.058-0.048
							l-0.193-0.188c-0.141-0.135-0.288-0.276-0.441-0.422c-0.312-0.287-0.648-0.597-1.004-0.925
							c-1.452-1.288-3.239-2.875-5.15-4.57c-3.809-3.405-8-7.356-10.37-10.843c0.872,1.697,1.736,3.385-1.429,0.575
							c-2.273-2.294-4.894-5.819-7.594-9.163c-0.125-0.175-0.435-0.492-0.705-0.777l-0.825-0.862
							c-0.559-0.573-1.114-1.142-1.663-1.705c-1.382-0.667-2.964-0.865-4.442-0.892c-1.491-0.012-2.921,0.246-4.171,0.696
							c-1.128,0.415-2.095,0.989-2.841,1.629c-1.02,0.399-1.412,0.539-1.528,0.45c-1.292,0.992-2.789,2.477-4.007,4.263
							c-1.228,1.782-2.204,3.82-2.898,5.8c-1.391,3.971-1.777,7.686-1.623,9.281c-0.516,0.509-0.957,1.401-1.31,2.569
							c-0.351,1.167-0.609,2.452-0.872,3.954c-0.509,2.972-0.96,6.542-1.539,9.959c-1.126,6.833-2.819,13.069-4.235,12.535
							c0,0-1.184,3.601-2.367,7.203c-0.598,1.835-1.171,3.719-1.56,5.167c-0.392,1.445-0.615,2.435-0.615,2.435l-0.202-0.485
							c-0.255,0.946-0.469,1.85-0.638,2.705c-0.087,0.426-0.161,0.84-0.227,1.241c-0.031,0.201-0.062,0.397-0.092,0.589
							c-0.022,0.163-0.043,0.323-0.064,0.479c-0.028,0.534-0.582,1.907-0.938,2.92c-0.384,1.056-0.715,2.002-0.99,2.86
							c-0.553,1.717-0.889,3.091-1.223,4.462c-1.166,1.923-0.708,0.328-0.771,0.091c-6.748,12.486-7.296,13.865-10.858,25.35
							l-1.413,0.728c-0.398,1.597-2.86,6.141-5.666,12.022c-2.81,5.875-5.94,13.109-7.816,19.891
							c-0.058-0.167-0.139-0.506,0.119-1.6c-2.218,7.591-5.928,16.292-8.709,24.039c-2.795,7.733-4.675,14.476-3.659,17.728
							c0,0-0.426,2.576-0.853,5.152c-0.392,2.579-0.783,5.158-0.783,5.158c3.423-12.99,1.041,2.304,2.923-2.92
							c-1.053,5.142-4.063,13.033-2.864,6.666l0.399-0.949c-0.651-1.371-1.756,2.659-2.735,6.984
							c-0.989,4.322-1.831,8.934-2.429,8.644c-4.616,26.085-7.284,52.082-5.62,77.08l1.276-2.961c0,0,0.124,2.166,0.247,4.333
							c0.157,2.164,0.315,4.329,0.315,4.329c-0.116,2.298-0.882,3.165-1.345-3.039c-0.601,3.343,1.686,10.315,2.043,10.436
							c0.45,6.056-0.093,4.944-0.749,2.763c-0.646-2.18-1.29-5.438-1.099-3.576c0,0,0.177,1.26,0.354,2.519
							c0.189,1.257,0.377,2.515,0.377,2.515l0.021-1.159c1.15,4.003,1.771,4.274,2.936,11.638c0.543,4.698-0.455,2.548-0.172,4.39
							c-0.102,0.007-0.039,0.639,0.511,2.814c0,0,0.513,2.703,1.089,5.394c0.569,2.692,1.203,5.371,1.203,5.371
							s0.021-1.137,0.042-2.272c0.032-1.134,0.064-2.269,0.064-2.269c1.635,4.606,2.426,10.003,2.435,4.801
							c-0.107,3.829,2.377,13.773,5.688,23.068c3.244,9.321,7.247,17.949,7.91,20.147c1.782,2.93,3.411,5.888,5.083,9.032
							c0.421,0.8,0.848,1.609,1.282,2.433c0.257,0.49,0.517,0.985,0.778,1.484c0.299,0.524,0.601,1.054,0.906,1.588
							c0.149,0.275,0.308,0.539,0.495,0.765c0.098,0.108,0.161,0.261,0.287,0.335l0.402,0.196c0.548,0.256,1.154,0.465,1.785,0.639
							c1.116,0.31,2.257,0.625,3.426,0.949c-0.946-0.367-1.729-0.974-1.286-1.202c0.439-0.234,1.908-0.124,5.356,0.788
							c-1.583,0.992,1.527,2.066,5.714,3.175c4.185,1.118,9.436,2.229,12.117,3.684c-2.431-1.094,2.587-0.237,7.264,0.358
							c4.679,0.604,9.003,0.98,5.134-0.49c5.856,1.061,0.21,1.052,4.604,2.302c14.173,0.891,31.054,4.1,48.669,4.076
							c0.279-0.347-2.641-0.941,1.124-1.394c0,0,2.309,0.466,4.617,0.933c2.319,0.439,4.637,0.879,4.637,0.879
							c3.477-0.208,3.164-2.034,9.518-0.97c-0.902-0.273-2.245-0.684,0.071-0.857c12.622,0.267,25.453-0.711,38.242-2.449
							c6.397-0.868,12.787-1.925,19.156-3.108c3.185-0.592,6.364-1.214,9.539-1.86l4.292-0.883l1.386-0.281l0.684-0.138l0.17-0.034
							c0.054-0.008,0.126-0.048,0.131,0.038l0.133,0.335c0.288,0.652,0.621,1.179,1.116,1.753c0.978,1.088,2.072,2.013,3.214,2.804
							c2.293,1.582,4.754,2.646,7.208,3.449c4.929,1.582,9.87,2.196,14.739,2.569c-2.492-0.321-2.899-0.549-2.218-0.634
							c0.683-0.093,2.45-0.109,4.318-0.198c-2.436-0.081,0.027-0.87-0.47-1.33c0,0,0.918,0.043,2.295,0.106
							c1.341,0.064,3.122,0.17,4.889,0.319c3.544,0.278,6.981,0.817,6.981,0.817c1.303-0.595,5.026-0.341,8.542,0.308
							c1.764,0.312,3.505,0.7,4.968,0.938c1.461,0.238,2.618,0.307,3.065,0.065c0,0-1.19-0.168-2.341-0.363
							c-1.134-0.19-2.268-0.382-2.268-0.382c3.127-0.068,1.233-1.358-1.301-2.788c-2.525-1.444-5.902-2.795-5.342-3.685
							c-3.597,0.405-8.116-0.472-13.299-0.913c-2.573-0.248-5.37-0.292-7.916-0.274c-2.614,0.009-5.247,0.107-7.943,0.383
							c-2.247-0.682,2.035-0.369,0.854-0.969c-1.348,0.261-2.843,0.309-4.657-0.012c-1.79-0.33-3.989-1.008-6.181-2.523l0.617,0.123
							c-1.139-0.609-2.092-1.312-2.823-2.049c-0.106-0.109-0.146-0.146-0.299-0.316c-0.157-0.194-0.307-0.372-0.421-0.598
							c-0.241-0.433-0.468-0.883-0.689-1.331c-0.441-0.897-0.846-1.803-1.19-2.648c-0.22-0.066-0.413-0.141-0.592-0.217
							c-0.069-0.065-0.209-0.027-0.347,0.008l-0.401,0.089c-0.534,0.118-1.063,0.235-1.587,0.351
							c-1.052,0.227-2.084,0.448-3.1,0.667c-0.512,0.107-1.02,0.214-1.523,0.319c-0.396,0.077-0.788,0.154-1.179,0.23
							c-0.695,0.128-1.382,0.256-2.063,0.382c-2.73,0.49-5.391,0.913-8.176,1.314c-5.571,0.794-11.636,1.543-19.784,2.38
							l1.583,0.748c-4.254,0.43-5.184,0.228-7.195,0.224c-2.354,0.985,0.629,0.684,3.668,0.347c3.037-0.334,6.128-0.713,4.018,0.377
							c-2.943-0.566-10.414,0.359-17.699,0.942c-7.281,0.604-14.362,0.883-16.318-0.13c-6.557,0.261,1.972,1.027-4.592,1.268
							l-1.76-0.537l-1.639,0.809c-4.318-0.017-6.499-0.76-6.663-1.254c1.044,0.05,2.963-0.176,4.079-0.241
							c-5.574-0.55-15.709,0.271-17.625-0.034l6.294,0.468c-8.957,0.205-18.907-0.253-28.751-1.003
							c-9.849-0.738-19.588-1.765-28.249-2.44l1.238,0.634c-6.618-0.553-9.218-1.149-11.96-1.803
							c-2.739-0.678-5.63-1.398-12.771-2.717l0.539,0.007c-2.933-0.17-6.779-0.804-10.608-1.834
							c1.844,0.194,0.212-0.473-1.209-1.116c-0.991-0.532-1.271-0.892-0.165-0.891c-0.417-0.057-0.795-0.107-1.138-0.153
							c-0.088-0.015-0.179-0.024-0.261-0.043l-0.136-0.185c-0.09-0.123-0.176-0.24-0.257-0.351c-0.085-0.116-0.165-0.227-0.241-0.33
							c-0.098-0.146-0.19-0.285-0.278-0.416c-0.181-0.271-0.315-0.452-0.537-0.818c-0.79-1.257-1.211-1.864-1.593-2.322
							c-0.749-0.928-1.352-1.237-4.118-5.181l-0.238-2.295c-1.918-2.675-2.416-2.756-5.36-9.416
							c2.838,5.274-0.699-4.705,2.595,1.138c-2.135-7.308-4.363-12.444-6.121-16.715c-1.741-4.265-2.983-7.654-2.778-11.315
							c-1.907-3.079-1.345,0.161-0.384,3.711c0.953,3.548,2.334,7.367,1.522,5.573c0.362,3.341-3.261-5.036-4.284-9.748
							c-0.621-2.363-0.518-4.54-0.595-7.594c-0.073-3.058-0.344-6.979-1.503-12.946c0.219,1.191,0.384,1.243,0.611,2.428
							c-0.369-4.551-2.343-8.651-2.291-14.313c-1.679-2.934-0.851-7.197-2.518-7.918c0,0,0.395,2.778,0.853,5.544
							c0.453,2.767,0.97,5.521,0.97,5.521c-1.335-6.193-3.996-11.952-3.838-22.535c0.372,0.798,1.013,3.882,1.443,5.994
							c0.195-3.088-0.785-5.861-0.484-9.064c0.818,0.41,1.084,3.796,1.476,7.908c0.38,4.112,0.915,8.957,1.965,12.232
							c0.113-1.661-0.556-4.799-0.954-7.141c-0.399-2.342-0.558-3.868,0.455-2.257c-2.645-4.688-0.729-11.928-2.572-20.101
							l0.962,0.523c-0.184-1.298-0.677-3.995-0.655-6.4l1.27,4.33c-1.157-6.659,0.926-12.814,0.667-19.188
							c-0.288,6.67-0.528,7.414-0.915,7.19c-0.369-0.223-0.811-1.421-1.221,1.409c-0.434-8.304,0.405-10.671,1.271-13.239
							c0.917-2.574,1.849-5.363,2.611-14.554c-0.166,2.489-1.492,9.282-1.567,5.347c0.518-3.491,1.417-8.069,2.189-10.144
							c1.445-12.154-1.234,1.734-1.108-3.511c1.728-3.978,0.382-6.034,0.918-11.432l0.957,0.126c1.518-6.84,1.257-7.834,0.913-8.673
							c-0.32-0.832-0.71-1.509,0.993-7.619l0.202,5.501c0,0,0.251-1.627,0.503-3.254c0.267-1.626,0.533-3.252,0.533-3.252
							l0.779,1.562c0.765-7.148,1.504-9.283,3.564-15.982c-1.062,1.407-1.493-1.341,0.17-7.354c1.733-3.922,0.195,2.528,2.558-5.971
							c0.005,2.084,0.112,4.372-1.778,7.819c0.196,0.463,0.058,2.05,0.253,2.521c1.818-4.217,3.292-10.954,4.246-13.995
							c-0.4,1.158-0.878,2.544-1.228,3.223c0,0,0.629-3.145,1.259-6.289c0.679-3.141,1.357-6.281,1.357-6.281
							c0.988-1.792,0.75-0.185,0.52,1.403c0.722-2.485,0.875-4.325,2.063-7.945c0.417,1.191,1.235,1.234-0.15,6.432
							c0,0,0.787-2.938,1.574-5.876c0.828-2.931,1.656-5.861,1.656-5.861c0.592-0.649,3.067-5.508,2.781-3.93
							c2.801-6.109,4.64-15.934,8.819-23.893c0.048-0.486,0.289-1.399,0.962-3.184c3.604-7.622,7.652-13.924,11.087-23.421
							l3.771-4.549c3.161-7.398-4.964,6.381,0.267-5.994c0.411-1.065,0.748-1.938,1.022-2.647c0.134-0.358,0.321-0.894,0.43-1.266
							c0.122-0.399,0.197-0.753,0.26-1.06c0.016-0.073,0.03-0.144,0.045-0.212l0.03-0.11c0.021-0.071,0.042-0.136,0.06-0.198
							c0.04-0.122,0.079-0.226,0.123-0.313c0.085-0.175,0.168-0.285,0.25-0.352c0.164-0.133,0.325-0.091,0.486-0.039
							c0.325,0.105,0.633,0.251,0.996-0.806c0.042-2.049,0.292-4.99,1.145-8.475c0.839-3.479,2.201-7.457,4.036-11.495
							C79.872,98.115,78.94,100.206,78.177,102.75z M119.133,78.332c-1.434-1.238-4.457-3.555-4.981-4.949
							C116.424,74.194,117.172,75.769,119.133,78.332z M231.533,18.346c-0.408,0.367-0.91,0.742-1.458,1.221
							c-0.552,0.487-1.115,1.01-1.849,1.917c0.175-0.353,0.386-0.712,0.606-1.036c0.201-0.295,0.435-0.592,0.7-0.865
							C230.062,19.036,230.739,18.564,231.533,18.346z M361.582,393.386c0.015-0.083,0.024-0.144,0.029-0.213
							C363.444,389.16,362.793,390.585,361.582,393.386z M357.646,401.618c-0.275,0.885-0.129,0.889,0.161,0.596
							c0.062-0.682,0.929-2.538,1.896-4.66C359.21,398.051,358.618,399.065,357.646,401.618z M16.096,363.288l-0.076-1.74
							C17.026,365.313,16.584,364.291,16.096,363.288z"/>
						<path style="fill:#432F2A;" d="M225.778,31.74c-0.344,0.444-0.564,0.518-0.779,0.57
							C224.881,33.064,225.052,33.147,225.778,31.74z"/>
						<path style="fill:#432F2A;" d="M55.634,159.107l-0.127,0.263c-0.012,0.171,0.007,0.273,0.04,0.341L55.634,159.107z"/>
						<path style="fill:#432F2A;" d="M351.143,268.085c-0.306-1.76-0.388-2.766-0.377-3.451
							C350.51,264.6,350.531,265.433,351.143,268.085z"/>
						<path style="fill:#432F2A;" d="M383.706,403.964l-5.621,0.814c2.716-0.336,3.716-0.219,5.11-0.198
							C383.048,404.368,381.936,404.145,383.706,403.964z"/>
						<path style="fill:#432F2A;" d="M432.651,410.298c0.826-0.001,1.714,0.246,2.528,0.261l-0.146-0.479
							C431.57,409.548,429.112,409.641,432.651,410.298z"/>
						<path style="fill:#432F2A;" d="M389.205,406.721c0.507,0.777,4.006,0.235,7.95-0.082c-0.236,0.014-0.461,0.029-0.698,0.031
							C397.574,405.484,393.36,406.029,389.205,406.721z"/>
						<path style="fill:#432F2A;" d="M398.069,406.573c1.216-0.087,2.461-0.146,3.653-0.137
							C402.173,405.971,400.235,406.372,398.069,406.573z"/>
						<path style="fill:#432F2A;" d="M356.23,406.251c0.307,0.605,1.603-0.501,1.472-0.087c0.497-0.188,0.292-0.27-0.132-0.379
							c-0.115-0.032-0.238-0.067-0.364-0.104l-0.204-0.064c-0.031-0.012-0.08-0.022-0.099-0.035l-0.019-0.043
							c-0.05-0.115-0.11-0.241-0.182-0.329c-0.104-0.137-0.24-0.177-0.462,0.112c-0.07,0.085-0.15,0.213-0.24,0.379
							c-0.044,0.082-0.099,0.176-0.137,0.276C355.967,406.066,356.087,406.159,356.23,406.251z"/>
						<polygon style="fill:#432F2A;" points="392.566,409.172 391.097,408.263 388.961,409.227 						"/>
						<path style="fill:#432F2A;" d="M361.754,411.301c0,0,1.547,0.001,3.104-0.06c1.559-0.075,3.117-0.151,3.117-0.151
							c-0.111-0.158,0.667-0.334,1.627-0.515C365.768,410.99,361.593,411.035,361.754,411.301z"/>
						<path style="fill:#432F2A;" d="M369.603,410.575c1.995-0.195,3.891-0.435,4.982-0.721
							C373.506,409.986,371.188,410.283,369.603,410.575z"/>
						<polygon style="fill:#432F2A;" points="384.066,410.137 382.207,410.105 377.804,410.488 						"/>
						<path style="fill:#432F2A;" d="M365.465,357.863c0,0,0.067-1.716,0.134-3.432c0.033-1.715,0.066-3.43,0.066-3.43
							c-0.31-0.714-0.6,1.137-0.646,3.684C365.144,356.334,365.04,358.881,365.465,357.863z"/>
						<path style="fill:#432F2A;" d="M359.537,377.742c0.615-1.726,0.852-1.801,1.393-2.74l-1.174-0.457c0,0-0.05,0.799-0.1,1.598
							C359.596,376.942,359.537,377.742,359.537,377.742z"/>
						<path style="fill:#432F2A;" d="M362.376,358.314c-0.244-0.711-0.225-9.804-0.795-1.314
							C361.885,357.702,361.456,364.443,362.376,358.314z"/>
						<polygon style="fill:#432F2A;" points="351.724,257.058 352.204,258.725 354.1,257.941 						"/>
						<path style="fill:#432F2A;" d="M317.743,173.181c2.496,7.663,1.881,1.314,3.952,8.316c1.135,1.588-1.689-5.726-0.602-4.069
							C318.848,173.084,318.16,170.614,317.743,173.181z"/>
						<path style="fill:#432F2A;" d="M321.093,177.428c0.358,0.697,0.75,1.43,1.189,2.202
							C321.657,178.361,321.321,177.78,321.093,177.428z"/>
						<path style="fill:#432F2A;" d="M281.211,451.578c0,0,1.193,0.354,2.387,0.709c1.252,0.384,2.504,0.768,2.504,0.768
							l-3.12-1.383L281.211,451.578z"/>
						<path style="fill:#432F2A;" d="M291.515,452.055c0,0,0.299,0.36,0.597,0.722c0.312,0.356,0.623,0.714,0.623,0.714
							s0.912-0.21,1.797-0.468c0.888-0.255,1.742-0.549,1.742-0.549C294.99,452.554,292.444,452.493,291.515,452.055z"/>
						<path style="fill:#432F2A;" d="M134.168,88.971l0.592-0.7c-1.233,0.357-2.908,1.287-6.038,3.076
							c-0.242-0.214-0.56-0.6-0.899-0.96c0.29,0.363,0.579,0.771,0.886,1.049L134.168,88.971z"/>
						<path style="fill:#432F2A;" d="M88.676,63.211l0.37-0.914c0,0-0.439,0.315-0.877,0.665c-0.434,0.351-0.863,0.733-0.863,0.733
							c0,0,0.343-0.126,0.686-0.253C88.333,63.327,88.676,63.211,88.676,63.211z"/>
						<path style="fill:#432F2A;" d="M75.534,121.29c0.264-0.636,0.842-2.145,0.999-3.502c0.054-0.441,0.108-0.889,0.163-1.337
							c0.049-0.394,0.108-0.792,0.173-1.189c0.127-0.793,0.303-1.588,0.515-2.333c-0.219,1.017-0.459,1.898-0.688,2.666
							c-0.117,0.381-0.227,0.736-0.327,1.064c-0.052,0.163-0.101,0.319-0.148,0.468c-0.023,0.074-0.046,0.147-0.068,0.218
							l-0.033,0.106l-0.056,0.259c-0.335,1.524-0.925,2.676-0.986,3.018C74.958,121.172,75.076,121.346,75.534,121.29z"/>
					</g>
				</g>
			</g>
		</g>
	</g>
</g>
<g>
	<path style="fill:#44302A;stroke:#44302A;stroke-width:2;stroke-miterlimit:10;" d="M235.401,438.721c0,0-10-1.875-3.438-10.875
		s16.313-21.813,30.25-9.125"/>
	<path style="fill:#C0A29E;stroke:#44302A;stroke-width:2;stroke-miterlimit:10;" d="M261.995,418.971c0,0-9.656-9.001-17.822-0.084
		s-19.916,20.084-1.083,23.167s18.332,0.479,18.332,0.479"/>
</g>
</svg>
