<?xml version="1.0" encoding="iso-8859-1"?>
<!-- Generator: Adobe Illustrator 16.0.3, SVG Export Plug-In . SVG Version: 6.00 Build 0)  -->
<!DOCTYPE svg PUBLIC "-//W3C//DTD SVG 1.1//EN" "http://www.w3.org/Graphics/SVG/1.1/DTD/svg11.dtd">
<svg version="1.1" id="Capa_1" xmlns="http://www.w3.org/2000/svg" xmlns:xlink="http://www.w3.org/1999/xlink" x="0px" y="0px"
	 width="61.5px" height="53px" viewBox="0 0 61.5 53" style="enable-background:new 0 0 61.5 53;" xml:space="preserve">
<g>
	<g>
		<path style="fill:#412A23;stroke:#412A23;stroke-width:2;stroke-miterlimit:10;" d="M44.337,17.725c0,0-7.24-4.313-15.393,6.125
			c-8.154,10.438-8.154,12.938-6.449,17.063c1.703,4.125,8.578,10.563,13.689,8s3.832-8.563,10.465-5.563s9.674,3.563,11.682,2.25"
			/>
		<g>
			<path style="fill:#BFA29E;" d="M59.041,45.619c-3.75-0.082-14.332-7.416-19.25-3.166c-4.916,4.25-4.75,7.834-10.334,4
				c-5.582-3.834-6.666-12.75,0-19.75c6.668-7,8.502-9.75,15.918-9.334"/>
			<path style="fill:#EF9738;" d="M38.041,44.953c0,0,3.666-20.668-7-15.834c-10.668,4.834-4.084,19.668,0.916,19.168
				S38.041,44.953,38.041,44.953z"/>
			<path style="fill:#412A23;" d="M33.224,49.078c-1.123,0-2.484-0.529-4.334-1.801c-2.783-1.912-4.594-5.045-4.963-8.594
				c-0.463-4.43,1.244-8.93,4.805-12.67c0.59-0.617,1.139-1.201,1.66-1.754c5.363-5.695,7.83-8.289,15.037-7.889l-0.111,1.996
				c-6.305-0.346-8.104,1.566-13.471,7.264c-0.521,0.555-1.076,1.143-1.666,1.762c-3.15,3.309-4.666,7.246-4.266,11.084
				c0.311,2.965,1.807,5.572,4.107,7.152c3.342,2.297,3.842,1.729,5.936-0.676c0.803-0.92,1.801-2.064,3.178-3.256
				c3.785-3.271,9.945-0.754,14.895,1.266c2.057,0.84,4,1.635,5.033,1.656l-0.045,2c-1.402-0.031-3.416-0.854-5.744-1.805
				C48.832,43,43.3,40.74,40.445,43.211c-1.271,1.098-2.178,2.139-2.979,3.057C36.033,47.914,34.89,49.078,33.224,49.078z"/>
		</g>
	</g>
	<g>
		<path style="fill:#402A23;stroke:#412A23;stroke-width:3;stroke-miterlimit:10;" d="M18.791,29.412c0,0-4-8.002-11.709-9.293
			s-4.207-7.666-1-11.416c3.209-3.75,6.209-8.334,15.041-2.209c8.834,6.125,9.211,11.834,7.502,14.418"/>
		<path style="fill:#EF9738;stroke:#412A23;stroke-width:3;stroke-miterlimit:10;" d="M27.957,22.229c0,0-0.072-8.186-9.184-13.275
			S8.578,15.592,8.578,15.592s-1.447,4.424,3.326,4.793c4.771,0.369,8.533,5.385,8.967,7.818"/>
	</g>
</g>
</svg>
