<?xml version="1.0" encoding="iso-8859-1"?>
<!-- Generator: Adobe Illustrator 16.0.3, SVG Export Plug-In . SVG Version: 6.00 Build 0)  -->
<!DOCTYPE svg PUBLIC "-//W3C//DTD SVG 1.1//EN" "http://www.w3.org/Graphics/SVG/1.1/DTD/svg11.dtd">
<svg version="1.1" id="Capa_1" xmlns="http://www.w3.org/2000/svg" xmlns:xlink="http://www.w3.org/1999/xlink" x="0px" y="0px"
	 width="169.324px" height="52.324px" viewBox="0 0 169.324 52.324" style="enable-background:new 0 0 169.324 52.324;"
	 xml:space="preserve">
<g>
	<circle style="fill:#422828;" cx="29.51" cy="27.417" r="9.167"/>
	<circle style="fill:#422828;" cx="142.135" cy="14.875" r="9.875"/>
</g>
<g>
	<path style="fill:#412828;" d="M69.926,40.938c1.892,0.135,3.702,0.066,5.387-0.243c0.84-0.151,1.641-0.375,2.388-0.659
		c0.372-0.146,0.734-0.301,1.075-0.481c0.348-0.167,0.669-0.377,0.983-0.581c0.315-0.204,0.608-0.435,0.89-0.672
		c0.268-0.258,0.55-0.488,0.792-0.77c0.261-0.256,0.476-0.566,0.709-0.849c0.208-0.314,0.445-0.594,0.626-0.934
		c0.202-0.318,0.377-0.658,0.553-1.002c0.192-0.329,0.326-0.708,0.491-1.06l0.429-1.113l0.371-1.159
		c0.424-1.326,1.843-2.057,3.168-1.633c0.445,0.142,0.823,0.396,1.113,0.722l0.05,0.057l0.793,0.896
		c0.282,0.311,0.577,0.614,0.875,0.913c0.595,0.597,1.199,1.187,1.833,1.725c0.617,0.562,1.271,1.062,1.923,1.534
		c0.328,0.232,0.659,0.464,0.998,0.658c0.336,0.211,0.674,0.399,1.018,0.573c0.345,0.17,0.69,0.313,1.04,0.456
		c0.349,0.121,0.703,0.226,1.06,0.304c0.355,0.074,0.721,0.136,1.085,0.135c0.186,0.018,0.372,0.021,0.556,0
		c0.185-0.016,0.38-0.01,0.564-0.059c0.385-0.044,0.762-0.156,1.154-0.278c0.379-0.149,0.779-0.296,1.16-0.511
		c0.399-0.188,0.769-0.438,1.147-0.698c0.4-0.241,0.736-0.558,1.144-0.832c-0.165,0.446-0.336,0.905-0.561,1.34
		c-0.237,0.426-0.486,0.858-0.8,1.257c-0.282,0.429-0.671,0.771-1.046,1.145c-0.408,0.336-0.841,0.661-1.329,0.923
		c-0.236,0.147-0.496,0.241-0.753,0.352c-0.257,0.117-0.522,0.206-0.795,0.276c-0.542,0.163-1.105,0.238-1.667,0.285
		c-0.566,0.047-1.122,0.009-1.679-0.038c-0.548-0.065-1.092-0.163-1.614-0.307c-1.05-0.273-2.033-0.68-2.96-1.151
		c-0.932-0.467-1.789-1.028-2.614-1.613c-0.809-0.606-1.586-1.24-2.314-1.924c-0.36-0.345-0.715-0.695-1.061-1.059
		c-0.355-0.372-0.669-0.708-1.039-1.171l4.331-0.854c-0.318,0.967-0.65,1.94-1.118,2.877c-0.249,0.466-0.462,0.939-0.755,1.39
		c-0.265,0.46-0.57,0.9-0.904,1.328c-0.308,0.438-0.696,0.835-1.051,1.243c-0.401,0.379-0.789,0.763-1.232,1.096
		c-0.422,0.352-0.891,0.653-1.361,0.936c-0.481,0.271-0.971,0.517-1.478,0.721c-0.507,0.199-1.025,0.368-1.547,0.488
		c-0.518,0.139-1.046,0.217-1.568,0.265c-1.044,0.108-2.078,0.063-3.07-0.087c-0.993-0.158-1.95-0.413-2.854-0.78
		C71.558,41.951,70.692,41.515,69.926,40.938z"/>
</g>
</svg>
