<?xml version="1.0" encoding="iso-8859-1"?>
<!-- Generator: Adobe Illustrator 16.0.3, SVG Export Plug-In . SVG Version: 6.00 Build 0)  -->
<!DOCTYPE svg PUBLIC "-//W3C//DTD SVG 1.1//EN" "http://www.w3.org/Graphics/SVG/1.1/DTD/svg11.dtd">
<svg version="1.1" id="Capa_1" xmlns="http://www.w3.org/2000/svg" xmlns:xlink="http://www.w3.org/1999/xlink" x="0px" y="0px"
	 width="98.25px" height="50.25px" viewBox="0 0 98.25 50.25" style="enable-background:new 0 0 98.25 50.25;" xml:space="preserve"
	>
<g>
	<path style="fill:#44302A;" d="M19.375,42.458c0,0,0.727-0.58,2.113-1.431c1.383-0.854,3.43-1.973,6.013-3.054
		c1.293-0.533,2.707-1.096,4.245-1.563c1.529-0.495,3.166-0.956,4.887-1.32c1.722-0.354,3.511-0.713,5.354-0.894
		c1.84-0.208,3.721-0.318,5.604-0.357c1.884,0.014,3.769,0.085,5.612,0.277c0.462,0.046,0.921,0.092,1.378,0.138
		c0.453,0.072,0.905,0.145,1.354,0.216c0.898,0.135,1.78,0.298,2.641,0.494c0.863,0.177,1.711,0.354,2.523,0.604
		c0.816,0.227,1.615,0.446,2.376,0.715c1.541,0.471,2.946,1.064,4.239,1.601c1.274,0.583,2.439,1.118,3.428,1.678
		c0.991,0.556,1.859,1.019,2.534,1.476c1.361,0.891,2.116,1.42,2.116,1.42s-0.88-0.309-2.38-0.885
		c-0.74-0.307-1.688-0.571-2.727-0.958c-1.047-0.373-2.263-0.695-3.555-1.11c-1.318-0.344-2.733-0.733-4.248-1.062
		c-0.751-0.189-1.535-0.324-2.335-0.466c-0.398-0.075-0.801-0.151-1.207-0.228c-0.409-0.062-0.822-0.125-1.238-0.188
		c-0.829-0.14-1.678-0.247-2.539-0.325c-0.859-0.1-1.731-0.168-2.609-0.237c-1.757-0.151-3.55-0.178-5.339-0.165
		c-1.79,0.004-3.582,0.074-5.341,0.239c-1.758,0.16-3.489,0.341-5.156,0.604c-1.663,0.28-3.277,0.545-4.793,0.884
		c-1.518,0.33-2.946,0.685-4.265,1.03C22.801,41.024,19.375,42.458,19.375,42.458z"/>
</g>
<g>
	<path style="fill:#44302A;" d="M7.083,31.583c0,0,1.103-0.831,3.113-2.17c2.015-1.332,4.934-3.18,8.555-5.194
		c3.614-2.026,7.922-4.239,12.66-6.354c2.379-1.033,4.831-2.125,7.388-3.076c2.543-0.984,5.161-1.897,7.792-2.775
		c1.321-0.422,2.656-0.804,3.979-1.204c1.335-0.36,2.658-0.742,3.982-1.078c2.646-0.687,5.287-1.224,7.851-1.688
		c2.561-0.477,5.063-0.804,7.44-1.033c2.375-0.26,4.636-0.353,6.718-0.397c1.041-0.001,2.039-0.003,2.988-0.004
		c0.947,0.05,1.847,0.097,2.691,0.141c1.688,0.068,3.149,0.31,4.351,0.425c1.198,0.169,2.131,0.37,2.768,0.476
		c0.636,0.115,0.975,0.177,0.975,0.177S88.957,7.806,86.55,7.77c-1.202,0.048-2.655,0.021-4.318,0.127
		c-0.83,0.05-1.714,0.104-2.646,0.16c-0.928,0.087-1.903,0.178-2.921,0.274c-2.031,0.232-4.224,0.517-6.53,0.898
		c-2.308,0.372-4.724,0.866-7.215,1.404c-2.494,0.528-5.038,1.226-7.629,1.898c-1.294,0.346-2.587,0.738-3.891,1.107
		c-1.294,0.408-2.592,0.818-3.891,1.228c-2.595,0.829-5.18,1.694-7.696,2.631c-2.521,0.924-4.999,1.847-7.379,2.794
		c-2.369,0.969-4.674,1.882-6.834,2.811c-2.157,0.939-4.197,1.828-6.08,2.648C12.021,29.118,7.083,31.583,7.083,31.583z"/>
</g>
</svg>
