<?xml version="1.0" encoding="iso-8859-1"?>
<!-- Generator: Adobe Illustrator 16.0.3, SVG Export Plug-In . SVG Version: 6.00 Build 0)  -->
<!DOCTYPE svg PUBLIC "-//W3C//DTD SVG 1.1//EN" "http://www.w3.org/Graphics/SVG/1.1/DTD/svg11.dtd">
<svg version="1.1" id="Capa_1" xmlns="http://www.w3.org/2000/svg" xmlns:xlink="http://www.w3.org/1999/xlink" x="0px" y="0px"
	 width="68.125px" height="50.875px" viewBox="0 0 68.125 50.875" style="enable-background:new 0 0 68.125 50.875;"
	 xml:space="preserve">
<g>
	<path style="fill:#44302A;" d="M2.583,47.248c0,0,0.799-0.142,2.199-0.33c0.699-0.09,1.547-0.2,2.521-0.325
		c0.958-0.176,2.032-0.375,3.197-0.553c0.583-0.079,1.187-0.211,1.812-0.36c0.625-0.13,1.271-0.266,1.935-0.405
		c0.666-0.121,1.342-0.288,2.027-0.484c0.686-0.192,1.392-0.352,2.106-0.531c1.427-0.371,2.874-0.861,4.36-1.287
		c1.472-0.491,2.974-0.954,4.449-1.529c1.493-0.508,2.97-1.095,4.439-1.629c1.463-0.572,2.919-1.082,4.336-1.611
		c1.402-0.541,2.813-0.982,4.134-1.415c1.35-0.396,2.617-0.772,3.842-0.99c1.192-0.296,2.346-0.372,3.339-0.473
		c1.004-0.067,1.892,0.019,2.6,0.027c1.431,0.245,2.205,0.425,2.205,0.425s-0.826,0.081-2.194,0.171
		c-0.685,0.154-1.509,0.28-2.432,0.51c-0.92,0.287-1.948,0.556-3.048,0.997c-1.106,0.381-2.276,0.933-3.53,1.432
		c-1.248,0.561-2.563,1.153-3.924,1.765c-1.368,0.599-2.786,1.263-4.25,1.866c-1.473,0.607-2.972,1.21-4.508,1.749
		c-1.525,0.556-3.097,1.005-4.629,1.478c-0.765,0.24-1.551,0.398-2.317,0.582c-0.771,0.166-1.517,0.382-2.277,0.499
		c-1.512,0.255-2.961,0.552-4.365,0.649c-1.401,0.12-2.706,0.288-3.943,0.27c-1.23,0.02-2.353,0.003-3.34-0.012
		c-0.981-0.045-1.832-0.159-2.535-0.223C3.386,47.366,2.583,47.248,2.583,47.248z"/>
</g>
<g>
	<path style="fill:#44302A;" d="M65.813,17.625c0,0-0.688-0.484-1.85-1.375c-0.281-0.238-0.622-0.453-0.997-0.664
		c-0.363-0.223-0.755-0.464-1.174-0.721c-0.394-0.283-0.909-0.452-1.396-0.695c-0.503-0.219-0.994-0.514-1.578-0.671
		c-0.573-0.177-1.142-0.414-1.768-0.562c-0.625-0.145-1.272-0.294-1.937-0.448c-0.682-0.1-1.383-0.202-2.099-0.307
		c-0.728-0.075-1.472-0.152-2.229-0.231c-1.541-0.116-3.134-0.236-4.752-0.358c-1.625-0.133-3.301-0.277-4.968-0.444
		c-1.668-0.204-3.337-0.403-4.97-0.707c-1.641-0.238-3.229-0.639-4.77-0.975c-1.55-0.302-3.001-0.795-4.392-1.181
		c-1.397-0.367-2.676-0.859-3.86-1.286C21.89,6.569,20.799,6.2,19.869,5.767c-0.941-0.4-1.75-0.778-2.417-1.083
		c-1.333-0.614-2.078-0.996-2.078-0.996s0.834,0.136,2.266,0.43c0.715,0.149,1.584,0.322,2.568,0.553
		c0.98,0.245,2.118,0.403,3.328,0.672c1.218,0.238,2.526,0.534,3.923,0.768c1.398,0.232,2.855,0.544,4.38,0.767
		c1.521,0.248,3.091,0.485,4.694,0.689c1.597,0.229,3.23,0.418,4.863,0.604c1.638,0.199,3.271,0.375,4.905,0.543
		c1.625,0.154,3.24,0.396,4.808,0.624c0.788,0.142,1.563,0.249,2.316,0.419c0.754,0.193,1.492,0.381,2.21,0.565
		c0.71,0.241,1.4,0.479,2.056,0.725c0.653,0.26,1.251,0.611,1.836,0.894c0.594,0.268,1.1,0.648,1.587,0.983
		c0.476,0.357,0.961,0.626,1.337,1.012c0.768,0.726,1.483,1.306,1.921,1.888C65.305,16.954,65.813,17.625,65.813,17.625z"/>
</g>
</svg>
