<?xml version="1.0" encoding="iso-8859-1"?>
<!-- Generator: Adobe Illustrator 16.0.3, SVG Export Plug-In . SVG Version: 6.00 Build 0)  -->
<!DOCTYPE svg PUBLIC "-//W3C//DTD SVG 1.1//EN" "http://www.w3.org/Graphics/SVG/1.1/DTD/svg11.dtd">
<svg version="1.1" id="Capa_1" xmlns="http://www.w3.org/2000/svg" xmlns:xlink="http://www.w3.org/1999/xlink" x="0px" y="0px"
	 width="139.667px" height="61.423px" viewBox="0 0 139.667 61.423" style="enable-background:new 0 0 139.667 61.423;"
	 xml:space="preserve">
<path style="fill:#F29839;" d="M9.25,39.583c-1.625,2-5.75,16,3.375,8.25s6.625-12.125,2.875-11.5S9.25,39.583,9.25,39.583z"/>
<g>
	<path style="fill:#F29839;" d="M43.813,26.771c1.169-2.314,4.25-3.688,0-3.313s-6.125-4.5,0-5.938s20.375-1.563,24.313,1.688
		s0,7-4.375,5.938s-8.938,1.688-11,3.438S40.875,32.583,43.813,26.771z"/>
	<path style="fill:#F29839;" d="M87.083,23.958c-0.505,2.365,2,9.667,4.625,2.875S98.917,12,93,10s-12.958,7.75-9.833,8.5
		S88.792,15.958,87.083,23.958z"/>
</g>
<circle style="fill:#F29839;" cx="127.563" cy="34.583" r="6"/>
</svg>
