<?xml version="1.0" encoding="iso-8859-1"?>
<!-- Generator: Adobe Illustrator 16.0.3, SVG Export Plug-In . SVG Version: 6.00 Build 0)  -->
<!DOCTYPE svg PUBLIC "-//W3C//DTD SVG 1.1//EN" "http://www.w3.org/Graphics/SVG/1.1/DTD/svg11.dtd">
<svg version="1.1" xmlns="http://www.w3.org/2000/svg" xmlns:xlink="http://www.w3.org/1999/xlink" x="0px" y="0px" width="100px"
	 height="100px" viewBox="0 0 100 100" style="enable-background:new 0 0 100 100;" xml:space="preserve">
<g id="Capa_1">
</g>
<g id="Capa_4">
	<path style="fill:#D7C0BE;stroke:#7A2941;stroke-miterlimit:10;" d="M23.333,26c0,0-1.396-7,6.104-12.813s12.938,0,12.938,0
		s2.75-7.625,11.5-7.313S66.75,15.933,66.75,15.933s12-4.683,18.063,18.942s3.548,47.767-33.188,52.75C12,93,2.125,26.5,23.333,26z"
		/>
	<path style="fill:#FFCCD7;stroke:#7A2941;stroke-miterlimit:10;" d="M68.25,50.125c-0.6,0-1.186,0.062-1.753,0.173
		c-2.829-4.616-7.905-7.705-13.716-7.705c-8.021,0-14.651,5.871-15.874,13.549c-4.811,0.181-8.658,4.126-8.658,8.982
		c0,4.972,4.029,9,9,9c2.363,0,2.88-0.663,4.486-2.151c2.65,1.918,7.523,2.808,11.045,2.808c5.489,0,12.33-3.752,15.235-7.947
		c0.715,0.184,1.461,0.291,2.233,0.291c4.971,0,7-3.028,7-8S73.221,50.125,68.25,50.125z"/>
	
		<ellipse transform="matrix(0.5999 0.8001 -0.8001 0.5999 60.6264 -17.4102)" style="opacity:0.7;fill:#FFFFFF;" cx="47.721" cy="51.913" rx="4.838" ry="6.979"/>
	<ellipse style="fill:#FFCCD7;stroke:#7A2941;stroke-miterlimit:10;" cx="24.292" cy="44.813" rx="5.458" ry="8.063"/>
	<ellipse style="fill:#FFCCD7;stroke:#7A2941;stroke-miterlimit:10;" cx="37.729" cy="29.375" rx="5.896" ry="8.5"/>
	<path style="fill:#FFCCD7;stroke:#7A2941;stroke-miterlimit:10;" d="M60.974,24.258c1.039,4.578,0.776,7.93-3.869,9.594
		c-3.065,1.098-6.591-2.407-7.63-6.985c-1.039-4.578,0.693-8.873,3.869-9.594C56.519,16.553,59.935,19.68,60.974,24.258z"/>
	
		<ellipse transform="matrix(0.9762 -0.217 0.217 0.9762 -5.9024 16.6375)" style="fill:#FFCCD7;stroke:#7A2941;stroke-miterlimit:10;" cx="72.81" cy="35.196" rx="5.428" ry="8.041"/>
	<ellipse style="opacity:0.7;fill:#FFFFFF;" cx="23.75" cy="42.833" rx="2" ry="3.083"/>
	<ellipse style="opacity:0.7;fill:#FFFFFF;" cx="36.75" cy="25.833" rx="2" ry="3.083"/>
	<ellipse style="opacity:0.7;fill:#FFFFFF;" cx="53.75" cy="23.833" rx="2" ry="3.083"/>
	<ellipse style="opacity:0.7;fill:#FFFFFF;" cx="71.75" cy="32.833" rx="2" ry="3.083"/>
</g>
</svg>
