<?xml version="1.0" encoding="iso-8859-1"?>
<!-- Generator: Adobe Illustrator 16.0.3, SVG Export Plug-In . SVG Version: 6.00 Build 0)  -->
<!DOCTYPE svg PUBLIC "-//W3C//DTD SVG 1.1//EN" "http://www.w3.org/Graphics/SVG/1.1/DTD/svg11.dtd">
<svg version="1.1" id="Capa_1" xmlns="http://www.w3.org/2000/svg" xmlns:xlink="http://www.w3.org/1999/xlink" x="0px" y="0px" width="50px" height="50px" viewBox="0 0 50 50" style="enable-background:new 0 0 50 50;" xml:space="preserve">
<g>
	<path style="fill-rule:evenodd;clip-rule:evenodd;fill:#128DEE;" d="M21.211,47.839C7.025,47.575-3.354,29.739,2.544,15.762
		C7.481,4.059,21.621-1.943,33.633,2.565c12.097,4.54,18.701,18.326,13.972,30.424c-3.287,8.416-9.423,14.154-18.766,15.693
		c0-3.395-0.062-6.791,0.018-10.182c0.073-3.154-1.258-7.07,4.369-7.111c2.11-0.018,1.363-2.51,1.729-3.93
		c0.367-1.424-0.26-2.266-1.803-2.305c-2.158-0.06-4.527,0.399-4.288-3.183c0.207-3.135,1.584-4.922,4.695-5.008
		c2.924-0.081,2.269-2.099,2.354-3.794c0.114-2.279-1.438-2.356-3.13-2.594c-7.188-1.007-11.288,2.344-11.463,9.779
		c-0.065,2.831,0.043,5.282-3.934,4.824c-2.045-0.235-2.122,1.361-2.076,2.813c0.049,1.518-0.418,3.643,1.979,3.559
		c4.294-0.148,4.151,2.561,4.056,5.514C21.229,40.653,21.25,44.247,21.211,47.839z"/>
	<path style="fill-rule:evenodd;clip-rule:evenodd;fill:#FBFCFE;"
		d="M21.211,47.839c0.039-3.592,0.018-7.186,0.135-10.775
		c0.096-2.953,0.238-5.662-4.056-5.514c-2.397,0.084-1.931-2.041-1.979-3.559c-0.046-1.451,0.031-3.048,2.076-2.813
		c3.977,0.458,3.868-1.993,3.934-4.824c0.175-7.436,4.275-10.787,11.463-9.779c1.691,0.238,3.244,0.314,3.13,2.594
		c-0.086,1.695,0.569,3.714-2.354,3.794c-3.111,0.086-4.488,1.874-4.695,5.008c-0.239,3.583,2.13,3.124,4.288,3.183
		c1.543,0.039,2.17,0.881,1.803,2.305c-0.365,1.42,0.382,3.912-1.729,3.93c-5.627,0.041-4.296,3.957-4.369,7.111
		c-0.079,3.391-0.018,6.787-0.018,10.182C26.221,49.085,23.734,49.146,21.211,47.839z"/>
</g>
</svg>
