<?xml version="1.0" encoding="iso-8859-1"?>
<!-- Generator: Adobe Illustrator 16.0.3, SVG Export Plug-In . SVG Version: 6.00 Build 0)  -->
<!DOCTYPE svg PUBLIC "-//W3C//DTD SVG 1.1//EN" "http://www.w3.org/Graphics/SVG/1.1/DTD/svg11.dtd">
<svg version="1.1" id="Capa_1" xmlns="http://www.w3.org/2000/svg" xmlns:xlink="http://www.w3.org/1999/xlink" x="0px" y="0px"
	 width="50px" height="50px" viewBox="0 0 50 50" style="enable-background:new 0 0 50 50;" xml:space="preserve">
<path style="fill:#128DEE;" d="M15.01,36.174c0,0-4.921,4.57-13.778,4.711c0,0,37.608,17.222,42.564-25.274l5.201-5.167
	l-4.779,0.527l3.233-4.146l-6.187,2.003c0,0-1.123-3.198-7.942-3.163s-9.316,6.327-9.315,12.513c0,0-10.684-0.282-19.752-10.896
	c0,0-2.741,8.013,2.25,13.707c0,0-2.54-0.605-3.33-1.74c-0.782-1.12,0.368,6.312,6.71,10.405c0.073,0.048,0.148,0.094,0.223,0.142
	c0,0-1.371,0.58-2.953,0.053C7.154,29.848,9.685,35.119,15.01,36.174z"/>
</svg>
