<?xml version="1.0" encoding="iso-8859-1"?>
<!-- Generator: Adobe Illustrator 16.0.3, SVG Export Plug-In . SVG Version: 6.00 Build 0)  -->
<!DOCTYPE svg PUBLIC "-//W3C//DTD SVG 1.1//EN" "http://www.w3.org/Graphics/SVG/1.1/DTD/svg11.dtd">
<svg version="1.1" id="Capa_1" xmlns="http://www.w3.org/2000/svg" xmlns:xlink="http://www.w3.org/1999/xlink" x="0px" y="0px"
	 width="50px" height="50px" viewBox="0 0 50 50" style="enable-background:new 0 0 50 50;" xml:space="preserve">
<g>
	<path style="fill-rule:evenodd;clip-rule:evenodd;fill:#30A2E5;" d="M25.099,0.563c13.857,0.008,24.364,10.641,24.338,24.63
		c-0.025,13.793-10.746,24.291-24.762,24.244C11.121,49.392,0.565,38.692,0.563,24.995C0.56,11.097,11.148,0.554,25.099,0.563z"/>
	<path style="fill-rule:evenodd;clip-rule:evenodd;fill:#FCFDFD;" d="M25.893,23.182c-2.143,1.383-4.267,2.795-6.438,4.131
		c-1.015,0.626-2.086,1.483-3.19,1.58c-2.563,0.225-5.889-0.179-6.742-2.323c-0.798-2.005,2.58-2.224,4.196-2.934
		c6.321-2.776,12.753-5.3,19.099-8.024c3.528-1.515,4.417-0.039,3.861,3.176c-0.973,5.62-2.034,11.223-3.032,16.838
		c-0.605,3.403-2.107,3.801-4.958,1.923c-8.791-5.787-8.833-5.722-1.782-13.304C27.233,23.255,27.128,22.679,25.893,23.182z"/>
	<path style="fill-rule:evenodd;clip-rule:evenodd;fill:#51B2E9;" d="M25.893,23.182c0.653-0.781,1.645-2.007,2.408-1.141
		c0.958,1.086-0.566,1.655-1.394,2.204C26.569,23.89,26.231,23.537,25.893,23.182z"/>
</g>
</svg>
