<?xml version="1.0" encoding="iso-8859-1"?>
<!-- Generator: Adobe Illustrator 16.0.3, SVG Export Plug-In . SVG Version: 6.00 Build 0)  -->
<!DOCTYPE svg PUBLIC "-//W3C//DTD SVG 1.1//EN" "http://www.w3.org/Graphics/SVG/1.1/DTD/svg11.dtd">
<svg version="1.1" id="Capa_1" xmlns="http://www.w3.org/2000/svg" xmlns:xlink="http://www.w3.org/1999/xlink" x="0px" y="0px"
	 width="50px" height="50px" viewBox="0 0 50 50" style="enable-background:new 0 0 50 50;" xml:space="preserve">
<g>
	
		<radialGradient id="SVGID_1_" cx="13.8608" cy="52.3477" r="76.3182" gradientTransform="matrix(0.8599 -0.5105 0.2891 0.487 -13.1936 33.928)" gradientUnits="userSpaceOnUse">
		<stop  offset="0" style="stop-color:#FEDA7F"/>
		<stop  offset="0.0418" style="stop-color:#FED47A"/>
		<stop  offset="0.0966" style="stop-color:#FDC46C"/>
		<stop  offset="0.1585" style="stop-color:#FBA954"/>
		<stop  offset="0.2254" style="stop-color:#F98333"/>
		<stop  offset="0.2398" style="stop-color:#F87A2B"/>
		<stop  offset="0.2795" style="stop-color:#F16E3D"/>
		<stop  offset="0.3975" style="stop-color:#DD4C6C"/>
		<stop  offset="0.4878" style="stop-color:#D1388A"/>
		<stop  offset="0.5391" style="stop-color:#CD3095"/>
		<stop  offset="0.6057" style="stop-color:#C7319A"/>
		<stop  offset="0.6985" style="stop-color:#B434A9"/>
		<stop  offset="0.7762" style="stop-color:#A037B9"/>
		<stop  offset="0.8132" style="stop-color:#9A3CBB"/>
		<stop  offset="0.8629" style="stop-color:#894AC1"/>
		<stop  offset="0.9198" style="stop-color:#6D62CB"/>
		<stop  offset="0.9816" style="stop-color:#4682D8"/>
		<stop  offset="1" style="stop-color:#398DDD"/>
	</radialGradient>
	<path style="fill:url(#SVGID_1_);" d="M49,33.146C49,42.559,49.444,49,39.642,49H14.06C4.257,49,1,46.456,1,36.07V12.563
		C1,2.177,7.18,1,16.521,1h17.785C44.571,1,49,2.177,49,13.538V33.146z"/>
	<circle style="fill:none;stroke:#FFFFFF;stroke-width:2;stroke-miterlimit:10;" cx="25.361" cy="24.725" r="7.796"/>
	<circle style="fill:#FFFFFF;" cx="34.653" cy="15.092" r="2.208"/>
	<path style="fill:none;stroke:#FFFFFF;stroke-width:3;stroke-miterlimit:10;" d="M41.5,29.882c0,5.651-4.205,9.618-9.317,9.618
		H18.54c-5.113,0-9.04-3.967-9.04-9.618V19.163c0-5.651,3.927-9.663,9.04-9.663h13.643c5.112,0,9.317,4.012,9.317,9.663V29.882z"/>
</g>
</svg>
