<svg xmlns="http://www.w3.org/2000/svg" viewBox="0 0 67.55 79.41"><defs><style>.cls-1{fill:#829e2b;}</style></defs><g id="Capa_2" data-name="Capa 2"><g id="Capa_1-2" data-name="Capa 1"><path class="cls-1" d="M59.84,11.43c-1.37,0-3.33.63-3.57-1.57-.16-1.46-.92-3.37,1.33-4.26S59,2.75,58.79,1.32C58.48-.48,56.69.1,55.45.09,48.31,0,41.17.07,34,.07c-7.31,0-14.62,0-21.93,0C10.87.1,9-.51,8.8,1.33,8.62,2.74,7.7,4.68,9.93,5.62c2.4,1,1.58,3.08,1.22,4.7-.41,1.8-2.18,1-3.39,1.1C0,11.68,0,11.66,0,19.54A26.9,26.9,0,0,0,.08,23C1,30.28,2.35,38.09,9.69,41a32.21,32.21,0,0,1,13,8.66,14,14,0,0,0,3.74,2.44,3.24,3.24,0,0,1,1.88,2.12c.47,2-4.65,15.77-6.43,16.76a3.6,3.6,0,0,1-1.94.25c-4.54-.32-2.66,3.14-3,5.18-.52,3.09,1.62,3,3.73,3,8.48,0,17,0,25.42,0,1.9,0,4.73,1.08,4.52-2.67-.14-2.56,1.21-6.12-3.72-5.45-1.45.2-2-.73-2.16-2.08-.38-2.76-2.15-4.69-3.89-6.76C38.36,59.37,38,54.12,40.42,53c6.14-3,8.5-11.13,16.62-11.41,3-.11,5.16-3.36,6.76-6.19a30.71,30.71,0,0,0,3.75-15.77C67.47,11.69,67.53,11.71,59.84,11.43ZM5.66,18.21C6.38,16.35,7.8,17.12,9,17s2.27.3,2.38,1.8a6.55,6.55,0,0,1,0,1c-.36,5.54.62,11,2,16.86C7.54,33.37,3.7,23.28,5.66,18.21Zm48.56,18.3a63.79,63.79,0,0,0,2-17.49A1.76,1.76,0,0,1,58.38,17c1.2.13,2.63-.61,3.46,1.08C64.08,22.65,60,33.47,54.22,36.51Z"/></g></g></svg>