<?xml version="1.0" encoding="iso-8859-1"?>
<!-- Generator: Adobe Illustrator 16.0.3, SVG Export Plug-In . SVG Version: 6.00 Build 0)  -->
<!DOCTYPE svg PUBLIC "-//W3C//DTD SVG 1.1//EN" "http://www.w3.org/Graphics/SVG/1.1/DTD/svg11.dtd">
<svg version="1.1" id="Capa_1" xmlns="http://www.w3.org/2000/svg" xmlns:xlink="http://www.w3.org/1999/xlink" x="0px" y="0px"
	 width="69px" height="89.5px" viewBox="0 0 69 89.5" style="enable-background:new 0 0 69 89.5;" xml:space="preserve">
<g>
	<g>
		<g>
			<path style="fill:#FCB32F;stroke:#000000;stroke-width:0.75;stroke-miterlimit:10;" d="M5.561,27.024
				c-2.226,0.105-3.01,2.747-1.196,3.381c1.814,0.634,4.618,2.854,4.865,0c0.248-2.854-3.006-8.764-3.381-5.284
				C5.711,26.405,5.561,27.024,5.561,27.024z"/>
			<path style="fill:#FCB32F;stroke:#000000;stroke-width:0.25;stroke-miterlimit:10;" d="M7.125,29.269
				c0.687-0.171,0.338-0.123,0.158-0.82"/>
		</g>
		<g>
			<path style="fill:#FCB32F;stroke:#000000;stroke-width:0.75;stroke-miterlimit:10;" d="M9.519,23.219
				c-2.226,0.105-3.01,2.747-1.196,3.381s4.618,2.854,4.865,0c0.247-2.854-3.006-8.764-3.381-5.284
				C9.669,22.6,9.519,23.219,9.519,23.219z"/>
			<path style="fill:#FCB32F;stroke:#000000;stroke-width:0.25;stroke-miterlimit:10;" d="M11.083,25.464
				c0.687-0.171,0.338-0.123,0.158-0.82"/>
		</g>
		<g>
			<path style="fill:#FCB32F;stroke:#000000;stroke-width:0.75;stroke-miterlimit:10;" d="M9.519,28.292
				c-2.226,0.105-3.01,2.747-1.196,3.381s4.618,2.854,4.865,0c0.247-2.854-3.006-8.764-3.381-5.284
				C9.669,27.673,9.519,28.292,9.519,28.292z"/>
			<path style="fill:#FCB32F;stroke:#000000;stroke-width:0.25;stroke-miterlimit:10;" d="M11.083,30.537
				c0.687-0.171,0.338-0.123,0.158-0.82"/>
		</g>
		<g>
			<path style="fill:#FCB32F;stroke:#000000;stroke-width:0.75;stroke-miterlimit:10;" d="M13.476,25.756
				c-2.226,0.105-3.01,2.747-1.196,3.381c1.814,0.634,4.618,2.854,4.865,0c0.247-2.854-3.006-8.764-3.381-5.284
				C13.626,25.137,13.476,25.756,13.476,25.756z"/>
			<path style="fill:#FCB32F;stroke:#000000;stroke-width:0.25;stroke-miterlimit:10;" d="M15.041,28
				c0.687-0.171,0.338-0.123,0.158-0.82"/>
		</g>
		<g>
			<path style="fill:#FCB32F;stroke:#000000;stroke-width:0.75;stroke-miterlimit:10;" d="M14.466,21.951
				c-2.227,0.105-3.01,2.747-1.196,3.381c1.814,0.634,4.618,2.854,4.865,0c0.248-2.853-3.006-8.764-3.381-5.284
				C14.616,21.332,14.466,21.951,14.466,21.951z"/>
			<path style="fill:#FCB32F;stroke:#000000;stroke-width:0.25;stroke-miterlimit:10;" d="M16.03,24.195
				c0.687-0.171,0.338-0.123,0.158-0.82"/>
		</g>
		<g>
			<path style="fill:#FCB32F;stroke:#000000;stroke-width:0.75;stroke-miterlimit:10;" d="M11.498,19.415
				c-2.227,0.105-3.01,2.748-1.196,3.382c1.814,0.633,4.618,2.853,4.865,0c0.248-2.854-3.006-8.765-3.381-5.284
				C11.647,18.795,11.498,19.415,11.498,19.415z"/>
			<path style="fill:#FCB32F;stroke:#000000;stroke-width:0.25;stroke-miterlimit:10;" d="M13.062,21.658
				c0.687-0.171,0.338-0.122,0.158-0.819"/>
		</g>
		<g>
			<path style="fill:#FCB32F;stroke:#000000;stroke-width:0.75;stroke-miterlimit:10;" d="M14.466,14.341
				c-2.227,0.105-3.01,2.748-1.196,3.382s4.618,2.854,4.865,0c0.248-2.854-3.006-8.765-3.381-5.284
				C14.616,13.722,14.466,14.341,14.466,14.341z"/>
			<path style="fill:#FCB32F;stroke:#000000;stroke-width:0.25;stroke-miterlimit:10;" d="M16.03,16.585
				c0.687-0.171,0.338-0.122,0.158-0.819"/>
		</g>
		<g>
			<path style="fill:#FCB32F;stroke:#000000;stroke-width:0.75;stroke-miterlimit:10;" d="M18.423,10.537
				c-2.226,0.105-3.01,2.748-1.196,3.382c1.814,0.634,4.618,2.854,4.865,0c0.248-2.854-3.006-8.765-3.38-5.285
				C18.574,9.917,18.423,10.537,18.423,10.537z"/>
			<path style="fill:#FCB32F;stroke:#000000;stroke-width:0.25;stroke-miterlimit:10;" d="M19.988,12.78
				c0.687-0.171,0.338-0.122,0.158-0.819"/>
		</g>
		<g>
			<path style="fill:#FCB32F;stroke:#000000;stroke-width:0.75;stroke-miterlimit:10;" d="M17.434,14.341
				c-2.227,0.105-3.01,2.748-1.196,3.382c1.814,0.634,4.618,2.854,4.865,0c0.248-2.854-3.006-8.765-3.381-5.284
				C17.584,13.722,17.434,14.341,17.434,14.341z"/>
			<path style="fill:#FCB32F;stroke:#000000;stroke-width:0.25;stroke-miterlimit:10;" d="M18.999,16.585
				c0.687-0.171,0.338-0.122,0.158-0.819"/>
		</g>
		<g>
			<path style="fill:#FCB32F;stroke:#000000;stroke-width:0.75;stroke-miterlimit:10;" d="M21.392,11.805
				c-2.226,0.105-3.01,2.748-1.196,3.382s4.618,2.854,4.865,0c0.248-2.854-3.006-8.765-3.381-5.284
				C21.542,11.186,21.392,11.805,21.392,11.805z"/>
			<path style="fill:#FCB32F;stroke:#000000;stroke-width:0.25;stroke-miterlimit:10;" d="M22.956,14.048
				c0.687-0.171,0.338-0.122,0.158-0.819"/>
		</g>
		<g>
			<path style="fill:#FCB32F;stroke:#000000;stroke-width:0.75;stroke-miterlimit:10;" d="M24.36,6.731
				c-2.226,0.105-3.01,2.748-1.196,3.382c1.814,0.634,4.618,2.854,4.865,0c0.248-2.854-3.006-8.765-3.381-5.284
				C24.51,6.112,24.36,6.731,24.36,6.731z"/>
			<path style="fill:#FCB32F;stroke:#000000;stroke-width:0.25;stroke-miterlimit:10;" d="M25.924,8.975
				c0.687-0.171,0.338-0.122,0.158-0.819"/>
		</g>
		<g>
			<path style="fill:#FCB32F;stroke:#000000;stroke-width:0.75;stroke-miterlimit:10;" d="M25.349,9.268
				c-2.226,0.105-3.01,2.748-1.196,3.382c1.814,0.634,4.618,2.854,4.865,0c0.247-2.854-3.006-8.765-3.381-5.284
				C25.5,8.649,25.349,9.268,25.349,9.268z"/>
			<path style="fill:#FCB32F;stroke:#000000;stroke-width:0.25;stroke-miterlimit:10;" d="M26.914,11.512
				c0.687-0.171,0.338-0.122,0.158-0.819"/>
		</g>
		<g>
			<path style="fill:#FCB32F;stroke:#000000;stroke-width:0.75;stroke-miterlimit:10;" d="M24.36,11.805
				c-2.226,0.105-3.01,2.748-1.196,3.382s4.618,2.854,4.865,0c0.248-2.854-3.006-8.765-3.381-5.284
				C24.51,11.186,24.36,11.805,24.36,11.805z"/>
			<path style="fill:#FCB32F;stroke:#000000;stroke-width:0.25;stroke-miterlimit:10;" d="M25.924,14.048
				c0.687-0.171,0.338-0.122,0.158-0.819"/>
		</g>
		<g>
			<path style="fill:#FCB32F;stroke:#000000;stroke-width:0.75;stroke-miterlimit:10;" d="M21.392,15.609
				c-2.226,0.105-3.01,2.748-1.196,3.382c1.814,0.634,4.618,2.854,4.865,0c0.248-2.854-3.006-8.765-3.381-5.285
				C21.542,14.99,21.392,15.609,21.392,15.609z"/>
			<path style="fill:#FCB32F;stroke:#000000;stroke-width:0.25;stroke-miterlimit:10;" d="M22.956,17.853
				c0.687-0.171,0.338-0.122,0.158-0.819"/>
		</g>
		<g>
			<path style="fill:#FCB32F;stroke:#000000;stroke-width:0.75;stroke-miterlimit:10;" d="M17.434,18.146
				c-2.227,0.105-3.01,2.748-1.196,3.382c1.814,0.634,4.618,2.853,4.865,0c0.248-2.854-3.006-8.765-3.381-5.285
				C17.584,17.527,17.434,18.146,17.434,18.146z"/>
			<path style="fill:#FCB32F;stroke:#000000;stroke-width:0.25;stroke-miterlimit:10;" d="M18.999,20.39
				c0.687-0.171,0.338-0.122,0.158-0.819"/>
		</g>
		<g>
			<path style="fill:#FCB32F;stroke:#000000;stroke-width:0.75;stroke-miterlimit:10;" d="M17.434,21.951
				c-2.227,0.105-3.01,2.747-1.196,3.381c1.814,0.634,4.618,2.854,4.865,0c0.248-2.853-3.006-8.764-3.381-5.284
				C17.584,21.332,17.434,21.951,17.434,21.951z"/>
			<path style="fill:#FCB32F;stroke:#000000;stroke-width:0.25;stroke-miterlimit:10;" d="M18.999,24.195
				c0.687-0.171,0.338-0.123,0.158-0.82"/>
		</g>
		<g>
			<path style="fill:#FCB32F;stroke:#000000;stroke-width:0.75;stroke-miterlimit:10;" d="M16.444,28.292
				c-2.226,0.105-3.01,2.747-1.196,3.381c1.814,0.634,4.618,2.854,4.865,0c0.247-2.854-3.006-8.764-3.381-5.284
				C16.595,27.673,16.444,28.292,16.444,28.292z"/>
			<path style="fill:#FCB32F;stroke:#000000;stroke-width:0.25;stroke-miterlimit:10;" d="M18.009,30.537
				c0.687-0.171,0.338-0.123,0.158-0.82"/>
		</g>
		<g>
			<path style="fill:#FCB32F;stroke:#000000;stroke-width:0.75;stroke-miterlimit:10;" d="M19.413,28.292
				c-2.226,0.105-3.01,2.747-1.196,3.381c1.814,0.634,4.618,2.854,4.865,0c0.247-2.854-3.006-8.764-3.381-5.284
				C19.563,27.673,19.413,28.292,19.413,28.292z"/>
			<path style="fill:#FCB32F;stroke:#000000;stroke-width:0.25;stroke-miterlimit:10;" d="M20.978,30.537
				c0.687-0.171,0.338-0.123,0.158-0.82"/>
		</g>
		<g>
			<path style="fill:#FCB32F;stroke:#000000;stroke-width:0.75;stroke-miterlimit:10;" d="M22.381,28.292
				c-2.226,0.105-3.01,2.747-1.196,3.381c1.814,0.634,4.618,2.854,4.865,0c0.247-2.854-3.006-8.764-3.381-5.284
				C22.531,27.673,22.381,28.292,22.381,28.292z"/>
			<path style="fill:#FCB32F;stroke:#000000;stroke-width:0.25;stroke-miterlimit:10;" d="M23.946,30.537
				c0.687-0.171,0.338-0.123,0.158-0.82"/>
		</g>
		<g>
			<path style="fill:#FCB32F;stroke:#000000;stroke-width:0.75;stroke-miterlimit:10;" d="M27.328,27.024
				c-2.227,0.105-3.01,2.747-1.196,3.381c1.814,0.634,4.618,2.854,4.865,0c0.248-2.854-3.006-8.764-3.381-5.284
				C27.478,26.405,27.328,27.024,27.328,27.024z"/>
			<path style="fill:#FCB32F;stroke:#000000;stroke-width:0.25;stroke-miterlimit:10;" d="M28.893,29.269
				c0.687-0.171,0.338-0.123,0.158-0.82"/>
		</g>
		<g>
			<path style="fill:#FCB32F;stroke:#000000;stroke-width:0.75;stroke-miterlimit:10;" d="M30.296,25.756
				c-2.227,0.105-3.01,2.747-1.196,3.381s4.618,2.854,4.865,0c0.248-2.854-3.006-8.764-3.381-5.284
				C30.446,25.137,30.296,25.756,30.296,25.756z"/>
			<path style="fill:#FCB32F;stroke:#000000;stroke-width:0.25;stroke-miterlimit:10;" d="M31.861,28
				c0.687-0.171,0.338-0.123,0.158-0.82"/>
		</g>
		<g>
			<path style="fill:#FCB32F;stroke:#000000;stroke-width:0.75;stroke-miterlimit:10;" d="M35.243,25.756
				c-2.226,0.105-3.01,2.747-1.196,3.381c1.815,0.634,4.619,2.854,4.866,0s-3.006-8.764-3.381-5.284
				C35.394,25.137,35.243,25.756,35.243,25.756z"/>
			<path style="fill:#FCB32F;stroke:#000000;stroke-width:0.25;stroke-miterlimit:10;" d="M36.809,28
				c0.687-0.171,0.338-0.123,0.157-0.82"/>
		</g>
		<g>
			<path style="fill:#FCB32F;stroke:#000000;stroke-width:0.75;stroke-miterlimit:10;" d="M42.169,24.488
				c-2.226,0.105-3.01,2.747-1.196,3.381c1.814,0.634,4.619,2.854,4.866,0c0.247-2.854-3.007-8.764-3.382-5.284
				C42.32,23.868,42.169,24.488,42.169,24.488z"/>
			<path style="fill:#FCB32F;stroke:#000000;stroke-width:0.25;stroke-miterlimit:10;" d="M43.734,26.732
				c0.687-0.171,0.338-0.123,0.157-0.82"/>
		</g>
		<g>
			<path style="fill:#FCB32F;stroke:#000000;stroke-width:0.75;stroke-miterlimit:10;" d="M47.116,25.756
				c-2.227,0.105-3.01,2.747-1.196,3.381c1.814,0.634,4.618,2.854,4.866,0c0.247-2.854-3.007-8.764-3.382-5.284
				C47.267,25.137,47.116,25.756,47.116,25.756z"/>
			<path style="fill:#FCB32F;stroke:#000000;stroke-width:0.25;stroke-miterlimit:10;" d="M48.682,28
				c0.686-0.171,0.338-0.123,0.157-0.82"/>
		</g>
		<g>
			<path style="fill:#FCB32F;stroke:#000000;stroke-width:0.75;stroke-miterlimit:10;" d="M56.021,28.292
				c-2.226,0.105-3.01,2.747-1.195,3.381s4.618,2.854,4.865,0s-3.007-8.764-3.382-5.284C56.172,27.673,56.021,28.292,56.021,28.292z
				"/>
			<path style="fill:#FCB32F;stroke:#000000;stroke-width:0.25;stroke-miterlimit:10;" d="M57.586,30.537
				c0.687-0.171,0.339-0.123,0.158-0.82"/>
		</g>
		<g>
			<path style="fill:#FCB32F;stroke:#000000;stroke-width:0.75;stroke-miterlimit:10;" d="M61.957,27.024
				c-2.226,0.105-3.01,2.747-1.196,3.381c1.815,0.634,4.619,2.854,4.866,0c0.247-2.854-3.007-8.764-3.382-5.284
				C62.108,26.405,61.957,27.024,61.957,27.024z"/>
			<path style="fill:#FCB32F;stroke:#000000;stroke-width:0.25;stroke-miterlimit:10;" d="M63.522,29.269
				c0.687-0.171,0.339-0.123,0.157-0.82"/>
		</g>
		<g>
			<path style="fill:#FCB32F;stroke:#000000;stroke-width:0.75;stroke-miterlimit:10;" d="M57.011,20.683
				c-2.227,0.105-3.01,2.747-1.196,3.381c1.814,0.634,4.618,2.854,4.865,0c0.248-2.853-3.007-8.764-3.382-5.284
				C57.161,20.063,57.011,20.683,57.011,20.683z"/>
			<path style="fill:#FCB32F;stroke:#000000;stroke-width:0.25;stroke-miterlimit:10;" d="M58.575,22.926
				c0.687-0.171,0.339-0.122,0.158-0.819"/>
		</g>
		<g>
			<path style="fill:#FCB32F;stroke:#000000;stroke-width:0.75;stroke-miterlimit:10;" d="M57.011,24.488
				c-2.227,0.105-3.01,2.747-1.196,3.381c1.814,0.634,4.618,2.854,4.865,0c0.248-2.854-3.007-8.764-3.382-5.284
				C57.161,23.868,57.011,24.488,57.011,24.488z"/>
			<path style="fill:#FCB32F;stroke:#000000;stroke-width:0.25;stroke-miterlimit:10;" d="M58.575,26.732
				c0.687-0.171,0.339-0.123,0.158-0.82"/>
		</g>
		<g>
			<path style="fill:#FCB32F;stroke:#000000;stroke-width:0.75;stroke-miterlimit:10;" d="M59.979,24.488
				c-2.227,0.105-3.01,2.747-1.196,3.381c1.814,0.634,4.619,2.854,4.866,0c0.247-2.854-3.007-8.764-3.382-5.284
				C60.129,23.868,59.979,24.488,59.979,24.488z"/>
			<path style="fill:#FCB32F;stroke:#000000;stroke-width:0.25;stroke-miterlimit:10;" d="M61.544,26.732
				c0.686-0.171,0.338-0.123,0.157-0.82"/>
		</g>
		<g>
			<path style="fill:#FCB32F;stroke:#000000;stroke-width:0.75;stroke-miterlimit:10;" d="M54.042,24.488
				c-2.227,0.105-3.01,2.747-1.196,3.381c1.814,0.634,4.619,2.854,4.866,0c0.247-2.854-3.007-8.764-3.382-5.284
				C54.192,23.868,54.042,24.488,54.042,24.488z"/>
			<path style="fill:#FCB32F;stroke:#000000;stroke-width:0.25;stroke-miterlimit:10;" d="M55.607,26.732
				c0.686-0.171,0.338-0.123,0.157-0.82"/>
		</g>
		<g>
			<path style="fill:#FCB32F;stroke:#000000;stroke-width:0.75;stroke-miterlimit:10;" d="M48.105,24.488
				c-2.226,0.105-3.01,2.747-1.196,3.381c1.814,0.634,4.619,2.854,4.866,0c0.247-2.854-3.007-8.764-3.382-5.284
				C48.256,23.868,48.105,24.488,48.105,24.488z"/>
			<path style="fill:#FCB32F;stroke:#000000;stroke-width:0.25;stroke-miterlimit:10;" d="M49.671,26.732
				c0.686-0.171,0.338-0.123,0.157-0.82"/>
		</g>
		<g>
			<path style="fill:#FCB32F;stroke:#000000;stroke-width:0.75;stroke-miterlimit:10;" d="M42.169,24.488
				c-2.226,0.105-3.01,2.747-1.196,3.381c1.814,0.634,4.619,2.854,4.866,0c0.247-2.854-3.007-8.764-3.382-5.284
				C42.32,23.868,42.169,24.488,42.169,24.488z"/>
			<path style="fill:#FCB32F;stroke:#000000;stroke-width:0.25;stroke-miterlimit:10;" d="M43.734,26.732
				c0.687-0.171,0.338-0.123,0.157-0.82"/>
		</g>
		<g>
			<path style="fill:#FCB32F;stroke:#000000;stroke-width:0.75;stroke-miterlimit:10;" d="M36.233,24.488
				c-2.227,0.105-3.011,2.747-1.197,3.381c1.815,0.634,4.619,2.854,4.866,0c0.247-2.854-3.007-8.764-3.382-5.284
				C36.384,23.868,36.233,24.488,36.233,24.488z"/>
			<path style="fill:#FCB32F;stroke:#000000;stroke-width:0.25;stroke-miterlimit:10;" d="M37.798,26.732
				c0.687-0.171,0.339-0.123,0.158-0.82"/>
		</g>
		<g>
			<path style="fill:#FCB32F;stroke:#000000;stroke-width:0.75;stroke-miterlimit:10;" d="M30.296,24.488
				c-2.227,0.105-3.01,2.747-1.196,3.381c1.814,0.634,4.619,2.854,4.866,0c0.248-2.854-3.007-8.764-3.382-5.284
				C30.447,23.868,30.296,24.488,30.296,24.488z"/>
			<path style="fill:#FCB32F;stroke:#000000;stroke-width:0.25;stroke-miterlimit:10;" d="M31.861,26.732
				c0.686-0.171,0.338-0.123,0.158-0.82"/>
		</g>
		<g>
			<path style="fill:#FCB32F;stroke:#000000;stroke-width:0.75;stroke-miterlimit:10;" d="M23.37,21.951
				c-2.226,0.105-3.01,2.747-1.196,3.381c1.814,0.634,4.618,2.854,4.866,0c0.248-2.853-3.007-8.764-3.382-5.284
				C23.521,21.332,23.37,21.951,23.37,21.951z"/>
			<path style="fill:#FCB32F;stroke:#000000;stroke-width:0.25;stroke-miterlimit:10;" d="M24.936,24.195
				c0.686-0.171,0.338-0.123,0.158-0.82"/>
		</g>
		<g>
			<path style="fill:#FCB32F;stroke:#000000;stroke-width:0.75;stroke-miterlimit:10;" d="M22.381,24.488
				c-2.226,0.105-3.01,2.747-1.196,3.381c1.815,0.634,4.619,2.854,4.866,0c0.247-2.854-3.007-8.764-3.382-5.284
				C22.532,23.868,22.381,24.488,22.381,24.488z"/>
			<path style="fill:#FCB32F;stroke:#000000;stroke-width:0.25;stroke-miterlimit:10;" d="M23.946,26.732
				c0.686-0.171,0.338-0.123,0.157-0.82"/>
		</g>
		<g>
			<path style="fill:#FCB32F;stroke:#000000;stroke-width:0.75;stroke-miterlimit:10;" d="M25.349,24.488
				c-2.226,0.105-3.01,2.747-1.196,3.381c1.814,0.634,4.619,2.854,4.866,0c0.247-2.854-3.007-8.764-3.382-5.284
				C25.5,23.868,25.349,24.488,25.349,24.488z"/>
			<path style="fill:#FCB32F;stroke:#000000;stroke-width:0.25;stroke-miterlimit:10;" d="M26.915,26.732
				c0.686-0.171,0.338-0.123,0.157-0.82"/>
		</g>
		<g>
			<path style="fill:#FCB32F;stroke:#000000;stroke-width:0.75;stroke-miterlimit:10;" d="M20.402,18.146
				c-2.226,0.105-3.01,2.748-1.196,3.382c1.814,0.634,4.618,2.853,4.866,0c0.248-2.854-3.007-8.765-3.382-5.285
				C20.553,17.527,20.402,18.146,20.402,18.146z"/>
			<path style="fill:#FCB32F;stroke:#000000;stroke-width:0.25;stroke-miterlimit:10;" d="M21.967,20.39
				c0.686-0.171,0.338-0.122,0.158-0.819"/>
		</g>
		<g>
			<path style="fill:#FCB32F;stroke:#000000;stroke-width:0.75;stroke-miterlimit:10;" d="M24.36,14.341
				c-2.226,0.105-3.01,2.748-1.196,3.382c1.814,0.634,4.619,2.854,4.866,0c0.248-2.854-3.007-8.765-3.382-5.284
				C24.51,13.722,24.36,14.341,24.36,14.341z"/>
			<path style="fill:#FCB32F;stroke:#000000;stroke-width:0.25;stroke-miterlimit:10;" d="M25.925,16.585
				c0.686-0.171,0.338-0.122,0.158-0.819"/>
		</g>
		<g>
			<path style="fill:#FCB32F;stroke:#000000;stroke-width:0.75;stroke-miterlimit:10;" d="M25.349,18.146
				c-2.226,0.105-3.01,2.748-1.196,3.382c1.814,0.634,4.619,2.853,4.866,0c0.247-2.854-3.007-8.765-3.382-5.285
				C25.5,17.527,25.349,18.146,25.349,18.146z"/>
			<path style="fill:#FCB32F;stroke:#000000;stroke-width:0.25;stroke-miterlimit:10;" d="M26.915,20.39
				c0.686-0.171,0.338-0.122,0.157-0.819"/>
		</g>
		<g>
			<path style="fill:#FCB32F;stroke:#000000;stroke-width:0.75;stroke-miterlimit:10;" d="M29.307,19.415
				c-2.226,0.105-3.01,2.748-1.196,3.382c1.814,0.633,4.618,2.853,4.866,0c0.247-2.854-3.007-8.765-3.382-5.284
				C29.458,18.795,29.307,19.415,29.307,19.415z"/>
			<path style="fill:#FCB32F;stroke:#000000;stroke-width:0.25;stroke-miterlimit:10;" d="M30.872,21.658
				c0.686-0.171,0.338-0.122,0.158-0.819"/>
		</g>
		<g>
			<path style="fill:#FCB32F;stroke:#000000;stroke-width:0.75;stroke-miterlimit:10;" d="M28.317,21.951
				c-2.226,0.105-3.01,2.747-1.196,3.381c1.814,0.634,4.619,2.854,4.866,0c0.247-2.853-3.007-8.764-3.382-5.284
				C28.468,21.332,28.317,21.951,28.317,21.951z"/>
			<path style="fill:#FCB32F;stroke:#000000;stroke-width:0.25;stroke-miterlimit:10;" d="M29.883,24.195
				c0.686-0.171,0.338-0.123,0.157-0.82"/>
		</g>
		<g>
			<path style="fill:#FCB32F;stroke:#000000;stroke-width:0.75;stroke-miterlimit:10;" d="M36.233,24.488
				c-2.227,0.105-3.011,2.747-1.197,3.381c1.815,0.634,4.619,2.854,4.866,0c0.247-2.854-3.007-8.764-3.382-5.284
				C36.384,23.868,36.233,24.488,36.233,24.488z"/>
			<path style="fill:#FCB32F;stroke:#000000;stroke-width:0.25;stroke-miterlimit:10;" d="M37.798,26.732
				c0.687-0.171,0.339-0.123,0.158-0.82"/>
		</g>
		<g>
			<path style="fill:#FCB32F;stroke:#000000;stroke-width:0.75;stroke-miterlimit:10;" d="M32.275,27.024
				c-2.226,0.105-3.01,2.747-1.196,3.381c1.815,0.634,4.619,2.854,4.867,0c0.247-2.854-3.007-8.764-3.382-5.284
				C32.426,26.405,32.275,27.024,32.275,27.024z"/>
			<path style="fill:#FCB32F;stroke:#000000;stroke-width:0.25;stroke-miterlimit:10;" d="M33.84,29.269
				c0.686-0.171,0.338-0.123,0.158-0.82"/>
		</g>
		<g>
			<path style="fill:#FCB32F;stroke:#000000;stroke-width:0.75;stroke-miterlimit:10;" d="M37.223,25.756
				c-2.227,0.105-3.01,2.747-1.196,3.381c1.814,0.634,4.618,2.854,4.865,0s-3.007-8.764-3.381-5.284
				C37.373,25.137,37.223,25.756,37.223,25.756z"/>
			<path style="fill:#FCB32F;stroke:#000000;stroke-width:0.25;stroke-miterlimit:10;" d="M38.788,28
				c0.686-0.171,0.338-0.123,0.157-0.82"/>
		</g>
		<g>
			<path style="fill:#FCB32F;stroke:#000000;stroke-width:0.75;stroke-miterlimit:10;" d="M40.19,25.756
				c-2.226,0.105-3.01,2.747-1.196,3.381c1.814,0.634,4.618,2.854,4.866,0c0.247-2.854-3.007-8.764-3.382-5.284
				C40.341,25.137,40.19,25.756,40.19,25.756z"/>
			<path style="fill:#FCB32F;stroke:#000000;stroke-width:0.25;stroke-miterlimit:10;" d="M41.756,28
				c0.686-0.171,0.338-0.123,0.157-0.82"/>
		</g>
		<g>
			<path style="fill:#FCB32F;stroke:#000000;stroke-width:0.75;stroke-miterlimit:10;" d="M43.158,27.024
				c-2.226,0.105-3.01,2.747-1.196,3.381c1.815,0.634,4.619,2.854,4.866,0c0.247-2.854-3.007-8.764-3.382-5.284
				C43.31,26.405,43.158,27.024,43.158,27.024z"/>
			<path style="fill:#FCB32F;stroke:#000000;stroke-width:0.25;stroke-miterlimit:10;" d="M44.724,29.269
				c0.687-0.171,0.339-0.123,0.157-0.82"/>
		</g>
		<g>
			<path style="fill:#FCB32F;stroke:#000000;stroke-width:0.75;stroke-miterlimit:10;" d="M47.116,27.024
				c-2.227,0.105-3.01,2.747-1.196,3.381c1.814,0.634,4.618,2.854,4.866,0c0.247-2.854-3.007-8.764-3.382-5.284
				C47.267,26.405,47.116,27.024,47.116,27.024z"/>
			<path style="fill:#FCB32F;stroke:#000000;stroke-width:0.25;stroke-miterlimit:10;" d="M48.682,29.269
				c0.686-0.171,0.338-0.123,0.157-0.82"/>
		</g>
		<g>
			<path style="fill:#FCB32F;stroke:#000000;stroke-width:0.75;stroke-miterlimit:10;" d="M51.074,27.024
				c-2.227,0.105-3.01,2.747-1.196,3.381c1.814,0.634,4.618,2.854,4.865,0c0.248-2.854-3.007-8.764-3.382-5.284
				C51.225,26.405,51.074,27.024,51.074,27.024z"/>
			<path style="fill:#FCB32F;stroke:#000000;stroke-width:0.25;stroke-miterlimit:10;" d="M52.639,29.269
				c0.687-0.171,0.339-0.123,0.158-0.82"/>
		</g>
		<g>
			<path style="fill:#FCB32F;stroke:#000000;stroke-width:0.75;stroke-miterlimit:10;" d="M53.053,20.683
				c-2.227,0.105-3.01,2.747-1.196,3.381c1.814,0.634,4.618,2.854,4.866,0c0.247-2.853-3.007-8.764-3.382-5.284
				C53.203,20.063,53.053,20.683,53.053,20.683z"/>
			<path style="fill:#FCB32F;stroke:#000000;stroke-width:0.25;stroke-miterlimit:10;" d="M54.618,22.926
				c0.686-0.171,0.338-0.122,0.157-0.819"/>
		</g>
		<g>
			<path style="fill:#FCB32F;stroke:#000000;stroke-width:0.75;stroke-miterlimit:10;" d="M54.042,16.878
				c-2.227,0.105-3.01,2.748-1.196,3.382c1.814,0.634,4.619,2.854,4.866,0s-3.007-8.765-3.382-5.284
				C54.192,16.259,54.042,16.878,54.042,16.878z"/>
			<path style="fill:#FCB32F;stroke:#000000;stroke-width:0.25;stroke-miterlimit:10;" d="M55.607,19.122
				c0.686-0.171,0.338-0.122,0.157-0.819"/>
		</g>
		<g>
			<path style="fill:#FCB32F;stroke:#000000;stroke-width:0.75;stroke-miterlimit:10;" d="M49.095,16.878
				c-2.226,0.105-3.01,2.748-1.196,3.382c1.815,0.634,4.619,2.854,4.866,0s-3.007-8.765-3.382-5.284
				C49.246,16.259,49.095,16.878,49.095,16.878z"/>
			<path style="fill:#FCB32F;stroke:#000000;stroke-width:0.25;stroke-miterlimit:10;" d="M50.66,19.122
				c0.687-0.171,0.338-0.122,0.157-0.819"/>
		</g>
		<g>
			<path style="fill:#FCB32F;stroke:#000000;stroke-width:0.75;stroke-miterlimit:10;" d="M46.127,20.683
				c-2.227,0.105-3.01,2.747-1.196,3.381c1.814,0.634,4.618,2.854,4.866,0c0.247-2.853-3.007-8.764-3.382-5.284
				C46.277,20.063,46.127,20.683,46.127,20.683z"/>
			<path style="fill:#FCB32F;stroke:#000000;stroke-width:0.25;stroke-miterlimit:10;" d="M47.692,22.926
				c0.686-0.171,0.338-0.122,0.157-0.819"/>
		</g>
		<g>
			<path style="fill:#FCB32F;stroke:#000000;stroke-width:0.75;stroke-miterlimit:10;" d="M49.095,19.415
				c-2.226,0.105-3.01,2.748-1.196,3.382c1.815,0.633,4.619,2.853,4.866,0c0.247-2.854-3.007-8.765-3.382-5.284
				C49.246,18.795,49.095,19.415,49.095,19.415z"/>
			<path style="fill:#FCB32F;stroke:#000000;stroke-width:0.25;stroke-miterlimit:10;" d="M50.66,21.658
				c0.687-0.171,0.338-0.122,0.157-0.819"/>
		</g>
		<g>
			<path style="fill:#FCB32F;stroke:#000000;stroke-width:0.75;stroke-miterlimit:10;" d="M43.158,11.805
				c-2.226,0.105-3.01,2.748-1.196,3.382c1.815,0.634,4.619,2.854,4.866,0c0.247-2.854-3.007-8.765-3.382-5.284
				C43.31,11.186,43.158,11.805,43.158,11.805z"/>
			<path style="fill:#FCB32F;stroke:#000000;stroke-width:0.25;stroke-miterlimit:10;" d="M44.724,14.048
				c0.687-0.171,0.339-0.122,0.157-0.819"/>
		</g>
		<g>
			<path style="fill:#FCB32F;stroke:#000000;stroke-width:0.75;stroke-miterlimit:10;" d="M40.19,18.146
				c-2.226,0.105-3.01,2.748-1.196,3.382c1.814,0.634,4.618,2.853,4.866,0c0.247-2.854-3.007-8.765-3.382-5.285
				C40.341,17.527,40.19,18.146,40.19,18.146z"/>
			<path style="fill:#FCB32F;stroke:#000000;stroke-width:0.25;stroke-miterlimit:10;" d="M41.756,20.39
				c0.686-0.171,0.338-0.122,0.157-0.819"/>
		</g>
		<g>
			<path style="fill:#FCB32F;stroke:#000000;stroke-width:0.75;stroke-miterlimit:10;" d="M41.18,19.415
				c-2.226,0.105-3.01,2.748-1.196,3.382c1.814,0.633,4.619,2.853,4.866,0c0.247-2.854-3.007-8.765-3.382-5.284
				C41.33,18.795,41.18,19.415,41.18,19.415z"/>
			<path style="fill:#FCB32F;stroke:#000000;stroke-width:0.25;stroke-miterlimit:10;" d="M42.745,21.658
				c0.686-0.171,0.338-0.122,0.157-0.819"/>
		</g>
		<g>
			<path style="fill:#FCB32F;stroke:#000000;stroke-width:0.75;stroke-miterlimit:10;" d="M45.138,15.609
				c-2.227,0.105-3.01,2.748-1.196,3.382c1.814,0.634,4.618,2.854,4.865,0c0.248-2.854-3.007-8.765-3.381-5.285
				C45.288,14.99,45.138,15.609,45.138,15.609z"/>
			<path style="fill:#FCB32F;stroke:#000000;stroke-width:0.25;stroke-miterlimit:10;" d="M46.703,17.853
				c0.686-0.171,0.338-0.122,0.157-0.819"/>
		</g>
		<g>
			<path style="fill:#FCB32F;stroke:#000000;stroke-width:0.75;stroke-miterlimit:10;" d="M37.223,20.683
				c-2.227,0.105-3.01,2.747-1.196,3.381c1.814,0.634,4.618,2.854,4.865,0c0.247-2.853-3.007-8.764-3.381-5.284
				C37.373,20.063,37.223,20.683,37.223,20.683z"/>
			<path style="fill:#FCB32F;stroke:#000000;stroke-width:0.25;stroke-miterlimit:10;" d="M38.788,22.926
				c0.686-0.171,0.338-0.122,0.157-0.819"/>
		</g>
		<g>
			<path style="fill:#FCB32F;stroke:#000000;stroke-width:0.75;stroke-miterlimit:10;" d="M32.275,20.683
				c-2.226,0.105-3.01,2.747-1.196,3.381c1.815,0.634,4.619,2.854,4.867,0c0.247-2.853-3.007-8.764-3.382-5.284
				C32.426,20.063,32.275,20.683,32.275,20.683z"/>
			<path style="fill:#FCB32F;stroke:#000000;stroke-width:0.25;stroke-miterlimit:10;" d="M33.84,22.926
				c0.686-0.171,0.338-0.122,0.158-0.819"/>
		</g>
		<g>
			<path style="fill:#FCB32F;stroke:#000000;stroke-width:0.75;stroke-miterlimit:10;" d="M27.328,13.073
				c-2.227,0.105-3.01,2.748-1.196,3.382c1.814,0.634,4.619,2.854,4.866,0c0.248-2.854-3.007-8.765-3.382-5.285
				C27.479,12.454,27.328,13.073,27.328,13.073z"/>
			<path style="fill:#FCB32F;stroke:#000000;stroke-width:0.25;stroke-miterlimit:10;" d="M28.893,15.317
				c0.686-0.171,0.338-0.122,0.158-0.819"/>
		</g>
		<g>
			<path style="fill:#FCB32F;stroke:#000000;stroke-width:0.75;stroke-miterlimit:10;" d="M31.286,15.609
				c-2.226,0.105-3.01,2.748-1.196,3.382c1.814,0.634,4.619,2.854,4.866,0c0.248-2.854-3.007-8.765-3.381-5.285
				C31.437,14.99,31.286,15.609,31.286,15.609z"/>
			<path style="fill:#FCB32F;stroke:#000000;stroke-width:0.25;stroke-miterlimit:10;" d="M32.851,17.853
				c0.686-0.171,0.338-0.122,0.157-0.819"/>
		</g>
		<g>
			<path style="fill:#FCB32F;stroke:#000000;stroke-width:0.75;stroke-miterlimit:10;" d="M37.223,11.805
				c-2.227,0.105-3.01,2.748-1.196,3.382c1.814,0.634,4.618,2.854,4.865,0c0.247-2.854-3.007-8.765-3.381-5.284
				C37.373,11.186,37.223,11.805,37.223,11.805z"/>
			<path style="fill:#FCB32F;stroke:#000000;stroke-width:0.25;stroke-miterlimit:10;" d="M38.788,14.048
				c0.686-0.171,0.338-0.122,0.157-0.819"/>
		</g>
		<g>
			<path style="fill:#FCB32F;stroke:#000000;stroke-width:0.75;stroke-miterlimit:10;" d="M34.254,13.073
				c-2.226,0.105-3.01,2.748-1.196,3.382c1.814,0.634,4.619,2.854,4.866,0c0.247-2.854-3.007-8.765-3.382-5.285
				C34.405,12.454,34.254,13.073,34.254,13.073z"/>
			<path style="fill:#FCB32F;stroke:#000000;stroke-width:0.25;stroke-miterlimit:10;" d="M35.819,15.317
				c0.687-0.171,0.338-0.122,0.157-0.819"/>
		</g>
		<g>
			<path style="fill:#FCB32F;stroke:#000000;stroke-width:0.75;stroke-miterlimit:10;" d="M29.307,10.537
				c-2.226,0.105-3.01,2.748-1.196,3.382c1.814,0.634,4.618,2.854,4.866,0c0.247-2.854-3.007-8.765-3.382-5.285
				C29.458,9.917,29.307,10.537,29.307,10.537z"/>
			<path style="fill:#FCB32F;stroke:#000000;stroke-width:0.25;stroke-miterlimit:10;" d="M30.872,12.78
				c0.686-0.171,0.338-0.122,0.158-0.819"/>
		</g>
		<g>
			<path style="fill:#FCB32F;stroke:#000000;stroke-width:0.75;stroke-miterlimit:10;" d="M34.254,9.268
				c-2.226,0.105-3.01,2.748-1.196,3.382c1.814,0.634,4.619,2.854,4.866,0c0.247-2.854-3.007-8.765-3.382-5.284
				C34.405,8.649,34.254,9.268,34.254,9.268z"/>
			<path style="fill:#FCB32F;stroke:#000000;stroke-width:0.25;stroke-miterlimit:10;" d="M35.819,11.512
				c0.687-0.171,0.338-0.122,0.157-0.819"/>
		</g>
		<g>
			<path style="fill:#FCB32F;stroke:#000000;stroke-width:0.75;stroke-miterlimit:10;" d="M27.328,6.731
				c-2.227,0.105-3.01,2.748-1.196,3.382c1.814,0.634,4.619,2.854,4.866,0c0.248-2.854-3.007-8.765-3.382-5.284
				C27.479,6.112,27.328,6.731,27.328,6.731z"/>
			<path style="fill:#FCB32F;stroke:#000000;stroke-width:0.25;stroke-miterlimit:10;" d="M28.893,8.975
				c0.686-0.171,0.338-0.122,0.158-0.819"/>
		</g>
		<g>
			<path style="fill:#FCB32F;stroke:#000000;stroke-width:0.75;stroke-miterlimit:10;" d="M31.286,6.731
				c-2.226,0.105-3.01,2.748-1.196,3.382c1.814,0.634,4.619,2.854,4.866,0c0.248-2.854-3.007-8.765-3.381-5.284
				C31.437,6.112,31.286,6.731,31.286,6.731z"/>
			<path style="fill:#FCB32F;stroke:#000000;stroke-width:0.25;stroke-miterlimit:10;" d="M32.851,8.975
				c0.686-0.171,0.338-0.122,0.157-0.819"/>
		</g>
		<g>
			<path style="fill:#FCB32F;stroke:#000000;stroke-width:0.75;stroke-miterlimit:10;" d="M38.212,8
				c-2.227,0.105-3.01,2.748-1.196,3.382c1.814,0.634,4.618,2.854,4.865,0c0.248-2.854-3.006-8.765-3.381-5.285
				C38.362,7.38,38.212,8,38.212,8z"/>
			<path style="fill:#FCB32F;stroke:#000000;stroke-width:0.25;stroke-miterlimit:10;" d="M39.776,10.244
				c0.687-0.171,0.339-0.122,0.158-0.819"/>
		</g>
		<g>
			<path style="fill:#FCB32F;stroke:#000000;stroke-width:0.75;stroke-miterlimit:10;" d="M40.19,9.268
				c-2.226,0.105-3.01,2.748-1.196,3.382c1.814,0.634,4.618,2.854,4.866,0c0.247-2.854-3.007-8.765-3.382-5.284
				C40.341,8.649,40.19,9.268,40.19,9.268z"/>
			<path style="fill:#FCB32F;stroke:#000000;stroke-width:0.25;stroke-miterlimit:10;" d="M41.756,11.512
				c0.686-0.171,0.338-0.122,0.157-0.819"/>
		</g>
		<g>
			<path style="fill:#FCB32F;stroke:#000000;stroke-width:0.75;stroke-miterlimit:10;" d="M42.169,16.878
				c-2.226,0.105-3.01,2.748-1.196,3.382c1.814,0.634,4.619,2.854,4.866,0s-3.007-8.765-3.382-5.284
				C42.32,16.259,42.169,16.878,42.169,16.878z"/>
			<path style="fill:#FCB32F;stroke:#000000;stroke-width:0.25;stroke-miterlimit:10;" d="M43.734,19.122
				c0.687-0.171,0.338-0.122,0.157-0.819"/>
		</g>
		<g>
			<path style="fill:#FCB32F;stroke:#000000;stroke-width:0.75;stroke-miterlimit:10;" d="M47.116,11.805
				c-2.227,0.105-3.01,2.748-1.196,3.382c1.814,0.634,4.618,2.854,4.866,0c0.247-2.854-3.007-8.765-3.382-5.284
				C47.267,11.186,47.116,11.805,47.116,11.805z"/>
			<path style="fill:#FCB32F;stroke:#000000;stroke-width:0.25;stroke-miterlimit:10;" d="M48.682,14.048
				c0.686-0.171,0.338-0.122,0.157-0.819"/>
		</g>
		<g>
			<path style="fill:#FCB32F;stroke:#000000;stroke-width:0.75;stroke-miterlimit:10;" d="M50.084,11.805
				c-2.226,0.105-3.01,2.748-1.195,3.382s4.618,2.854,4.865,0c0.248-2.854-3.007-8.765-3.382-5.284
				C50.235,11.186,50.084,11.805,50.084,11.805z"/>
			<path style="fill:#FCB32F;stroke:#000000;stroke-width:0.25;stroke-miterlimit:10;" d="M51.649,14.048
				c0.687-0.171,0.339-0.122,0.158-0.819"/>
		</g>
		<g>
			<path style="fill:#FCB32F;stroke:#000000;stroke-width:0.75;stroke-miterlimit:10;" d="M36.233,16.878
				c-2.227,0.105-3.011,2.748-1.197,3.382c1.815,0.634,4.619,2.854,4.866,0s-3.007-8.765-3.382-5.284
				C36.384,16.259,36.233,16.878,36.233,16.878z"/>
			<path style="fill:#FCB32F;stroke:#000000;stroke-width:0.25;stroke-miterlimit:10;" d="M37.798,19.122
				c0.687-0.171,0.339-0.122,0.158-0.819"/>
		</g>
		<g>
			<path style="fill:#FCB32F;stroke:#000000;stroke-width:0.75;stroke-miterlimit:10;" d="M38.212,14.341
				c-2.227,0.105-3.01,2.748-1.196,3.382c1.814,0.634,4.618,2.854,4.865,0c0.248-2.854-3.006-8.765-3.381-5.284
				C38.362,13.722,38.212,14.341,38.212,14.341z"/>
			<path style="fill:#FCB32F;stroke:#000000;stroke-width:0.25;stroke-miterlimit:10;" d="M39.776,16.585
				c0.687-0.171,0.339-0.122,0.158-0.819"/>
		</g>
	</g>
	<g>
		<polygon style="fill:#FFFFFF;stroke:#000000;stroke-miterlimit:10;" points="51.5,86 17.5,86 2.5,28 66.5,28 		"/>
		<g>
			<polygon style="fill:#00A8FF;stroke:#000000;stroke-miterlimit:10;" points="33.5,86 25.5,86 23.5,28 32.5,28 			"/>
			<polygon style="fill:#00A8FF;stroke:#000000;stroke-miterlimit:10;" points="50.5,86 45.5,86 51.5,28 60.5,28 			"/>
			<polygon style="fill:#00A8FF;stroke:#000000;stroke-miterlimit:10;" points="23.5,86 18.5,86 8.5,28 17.5,28 			"/>
			<polygon style="fill:#00A8FF;stroke:#000000;stroke-miterlimit:10;" points="43.5,86 35.5,86 38.5,28 47.5,28 			"/>
		</g>
	</g>
</g>
</svg>
