<?xml version="1.0" encoding="iso-8859-1"?>
<!-- Generator: Adobe Illustrator 16.0.3, SVG Export Plug-In . SVG Version: 6.00 Build 0)  -->
<!DOCTYPE svg PUBLIC "-//W3C//DTD SVG 1.1//EN" "http://www.w3.org/Graphics/SVG/1.1/DTD/svg11.dtd">
<svg version="1.1" id="Capa_1" xmlns="http://www.w3.org/2000/svg" xmlns:xlink="http://www.w3.org/1999/xlink" x="0px" y="0px"
	 width="200px" height="100px" viewBox="0 0 200 100" style="enable-background:new 0 0 200 100;" xml:space="preserve">
<g>
	<path style="fill:#BA6528;stroke:#000000;stroke-width:0.75;stroke-miterlimit:10;" d="M183.259,64.523
		c0,0,2.001-15.484,1.616-26.398C184.5,27.5,177.563,7.75,149.555,5.804C117.169,3.554,79.312,2.6,52.2,4.818
		C25.089,7.037,18.743,18.271,16.154,34.096C13.566,49.921,7.835,63.23,7.835,63.23L183.259,64.523z"/>
	<path style="fill:#9C5323;stroke:#000000;stroke-width:0.75;stroke-miterlimit:10;" d="M20.221,63.877l6.101-5.638
		c0,0,2.496-16.035-11.368-16.174l-9.672,4.903L20.221,63.877z"/>
	<path style="fill:#C57526;stroke:#000000;stroke-width:0.75;stroke-miterlimit:10;" d="M180.948,66.742l-7.624-5.314
		c-0.181-2.308-2.574-22.011,10.952-20.611l8.39,2.6L180.948,66.742z"/>
	<g>
		<path style="fill:#BC6128;stroke:#000000;stroke-linejoin:round;stroke-miterlimit:10;" d="M1.5,52.509
			c0-3.669,4.273-6.976,9.16-6.976c4.888,0,8.84,3.307,8.84,6.976V96.5h-18V52.509z"/>
		<path style="fill:#BC6128;stroke:#000000;stroke-miterlimit:10;" d="M17.5,53.896c0-3.571-2.78-6.653-6.353-6.653
			c-3.572,0-7.647,2.789-7.647,6.362v1.523V96.5h14V55.128V53.896z"/>
	</g>
	<g>
		<path style="fill:#BC6128;stroke:#000000;stroke-linejoin:round;stroke-miterlimit:10;" d="M178.5,49.668
			c0-3.755,4.621-7.141,9.666-7.141c5.043,0,9.334,3.386,9.334,7.141V94.5h-19V49.668z"/>
		<path style="fill:#BC6128;stroke:#000000;stroke-miterlimit:10;" d="M181.5,52.911V94.5h14V52.911l0.031-1.286
			c0-3.574-2.821-5.862-6.75-5.862c-3.932,0-7.281,2.555-7.281,6.127V52.911z"/>
	</g>
	<polygon style="fill:#995828;stroke:#000000;stroke-linejoin:round;stroke-miterlimit:10;" points="19.5,96.5 22.5,92.938 
		22.5,64.5 19.816,64.5 	"/>
	<polygon style="fill:#C4762D;stroke:#000000;stroke-linejoin:round;stroke-miterlimit:10;" points="178.458,94.417 176.5,91.901 
		176.5,72.5 178.5,72.5 	"/>
	<polygon style="fill:#BA5F26;stroke:#000000;stroke-miterlimit:10;" points="176.5,91.821 22.5,92.945 22.5,74.32 176.5,74.136 	
		"/>
	<g>
		<path style="fill:none;stroke:#000000;stroke-width:0.75;stroke-miterlimit:10;" d="M50.397,30.559c0,0-1.016,2.633-0.446,5.638"
			/>
		<path style="fill:none;stroke:#000000;stroke-width:0.75;stroke-miterlimit:10;" d="M47.826,32.978c0,0,1.047,1.74,4.19,0.4"/>
		<path style="fill:none;stroke:#000000;stroke-width:0.75;stroke-miterlimit:10;" d="M98.089,30.188c0,0-1.017,2.635-0.447,5.638"
			/>
		<path style="fill:none;stroke:#000000;stroke-width:0.75;stroke-miterlimit:10;" d="M95.517,32.607c0,0,1.047,1.741,4.189,0.4"/>
		<path style="fill:none;stroke:#000000;stroke-width:0.75;stroke-miterlimit:10;" d="M142.238,30.188c0,0,1.018,2.635,0.445,5.638"
			/>
		<path style="fill:none;stroke:#000000;stroke-width:0.75;stroke-miterlimit:10;" d="M144.812,32.607c0,0-1.048,1.741-4.19,0.4"/>
	</g>
	<g>
		<path style="fill:#BC6128;stroke:#000000;stroke-width:0.75;stroke-miterlimit:10;" d="M22.008,64.709
			c-1.109,1.17-7.456,12.321,6.408,11.152c13.864-1.171,19.656,0.738,25.448,0.432c5.792-0.309,14.542-0.802,15.466-1.664
			c0.924-0.862,0.616-8.381,0-9.119L22.008,64.709z"/>
		<g>
			<path style="fill:#B3612E;stroke:#000000;stroke-width:0.75;stroke-miterlimit:10;" d="M26.829,58.239
				c0,0-5.961,3.743-6.192,4.344c-0.231,0.6-0.924,3.419,0,3.65c0.924,0.23,47.646,0.908,48.693,0s4.498-4.79,4.621-5.161
				c0.124-0.368-0.185-1.971-0.37-2.032C73.396,58.978,26.829,58.239,26.829,58.239z"/>
			<path style="fill:#C6782C;stroke:#000000;stroke-width:0.75;stroke-miterlimit:10;" d="M26.829,58.239l-6.192,4.344
				c0,0-0.231,1.387,7.656,1.202c7.887-0.186,39.559,0.896,40.791,0.018c1.232-0.881,4.498-4.763,4.498-4.763L26.829,58.239z"/>
		</g>
	</g>
	<g>
		<path style="fill:#BC6128;stroke:#000000;stroke-width:0.75;stroke-miterlimit:10;" d="M175.003,65.262
			c3.143-0.368,5.607,0.863,5.484,3.267c-0.124,2.403-1.17,5.915-7.271,6.407c0,0-32.596,0.863-39.312,0
			c-6.719-0.86-8.505,0.001-8.134-5.421c0.369-5.422,0.369-5.237,2.279-5.422C129.961,63.907,175.003,65.262,175.003,65.262z"/>
		<g>
			<path style="fill:#B3612E;stroke:#000000;stroke-width:0.75;stroke-miterlimit:10;" d="M125.244,61.969
				c0,0-0.335,3.787,1.451,3.787s51.696-0.123,52.497-0.801s3.45-2.803-2.834-4.328C170.072,59.102,125.244,61.969,125.244,61.969z"
				/>
			<path style="fill:#C6782C;stroke:#000000;stroke-width:0.75;stroke-miterlimit:10;" d="M173.094,58.054
				c0,0,6.406,3.328,6.346,3.697c-0.063,0.37-50.649,2.033-52.499,1.233c-1.848-0.802-5.052-3.759-5.052-3.759L173.094,58.054z"/>
		</g>
	</g>
	<g>
		<path style="fill:#BC6128;stroke:#000000;stroke-width:0.75;stroke-miterlimit:10;" d="M72.532,64.646
			c0,0-3.616,0.063-3.553,4.251c0.063,4.191,0.561,6.224,4.551,6.778c3.989,0.555,11.096,1.417,15.522,0.555
			c4.425-0.862,8.728-0.739,12.717,0c3.988,0.739,11.97-0.369,13.653-0.739c1.682-0.37,10.224,2.095,10.472-4.066
			c0.249-6.163,0.062-7.948-3.554-7.702C118.725,63.97,72.532,64.646,72.532,64.646z"/>
		<g>
			<path style="fill:#B3612E;stroke:#000000;stroke-width:0.75;stroke-miterlimit:10;" d="M71.424,62.521
				c0,0-4.279,4.017-0.337,3.971c3.942-0.046,16.491-0.14,21.106-0.514c4.616-0.373,20.481-0.234,25,0.046
				c4.52,0.281,10.048,0.655,10.001-1.517c-0.048-2.171-6.155-3.105-6.155-3.105L71.424,62.521z"/>
			<path style="fill:#C6782C;stroke:#000000;stroke-width:0.75;stroke-miterlimit:10;" d="M72.841,59.075
				c0,0,42.344-1.878,49.369-0.336l4.366,4.632c0,0-47.786,0.536-56.015,0L72.841,59.075z"/>
		</g>
	</g>
</g>
</svg>
